<svg width="166" height="111" viewBox="0 0 166 111" fill="none" xmlns="http://www.w3.org/2000/svg">
<g filter="url(#filter0_d_89_10)">
<rect width="119.198" height="65" rx="19" transform="matrix(-1 0 0 1 134.199 15)" fill="white"/>
</g>
<path d="M141.1 81.5041L131.005 64.6689L119.055 75.2241L141.1 81.5041Z" fill="white"/>
<g filter="url(#filter1_d_89_10)">
<path d="M31.5984 51.13C30.7751 51.13 30.1381 50.935 29.6874 50.545C29.2454 50.1463 29.0244 49.5527 29.0244 48.764V47.971C29.0244 47.5377 29.0851 47.1953 29.2064 46.944C29.3278 46.6927 29.4578 46.476 29.5964 46.294C29.7438 46.0947 29.8694 45.9213 29.9734 45.774C30.0861 45.6267 30.1424 45.449 30.1424 45.241C30.1424 45.059 30.0948 44.929 29.9994 44.851C29.9128 44.773 29.8001 44.734 29.6614 44.734C29.5574 44.734 29.4448 44.7513 29.3234 44.786C29.2108 44.8207 29.0981 44.864 28.9854 44.916L28.7254 44.084C28.8814 43.98 29.0721 43.9063 29.2974 43.863C29.5314 43.8197 29.7351 43.798 29.9084 43.798C30.2291 43.798 30.4848 43.8543 30.6754 43.967C30.8748 44.0797 31.0178 44.2357 31.1044 44.435C31.1911 44.6257 31.2344 44.851 31.2344 45.111C31.2344 45.4317 31.1781 45.696 31.0654 45.904C30.9614 46.112 30.8358 46.3157 30.6884 46.515C30.5411 46.7317 30.4198 46.9397 30.3244 47.139C30.2291 47.3383 30.1814 47.5983 30.1814 47.919V48.686C30.1814 49.0847 30.2464 49.3923 30.3764 49.609C30.5064 49.8257 30.6798 49.9773 30.8964 50.064C31.1131 50.142 31.3471 50.181 31.5984 50.181C32.0318 50.181 32.3611 50.0813 32.5864 49.882C32.8118 49.674 32.9244 49.3577 32.9244 48.933V47.113C32.9244 46.7923 32.8508 46.5497 32.7034 46.385C32.5561 46.2117 32.3178 46.125 31.9884 46.125H31.9364V45.384H32.0014C32.3568 45.384 32.6081 45.3017 32.7554 45.137C32.9028 44.9723 32.9894 44.773 33.0154 44.539C33.0501 44.2963 33.0674 44.0753 33.0674 43.876H34.2244C34.2244 44.3353 34.1681 44.7253 34.0554 45.046C33.9428 45.3667 33.6871 45.6007 33.2884 45.748V45.8C33.5311 45.8607 33.7044 45.9647 33.8084 46.112C33.9211 46.2507 33.9948 46.411 34.0294 46.593C34.0641 46.7663 34.0814 46.9353 34.0814 47.1V48.998C34.0814 49.6653 33.8734 50.1897 33.4574 50.571C33.0414 50.9437 32.4218 51.13 31.5984 51.13ZM33.0727 42.745V40.002H34.2167V42.745H33.0727ZM37.6539 51.13C37.3159 51.13 36.9866 51.0953 36.6659 51.026C36.3539 50.9567 36.0202 50.8267 35.6649 50.636L36.0289 49.752C36.2196 49.8647 36.4362 49.9643 36.6789 50.051C36.9216 50.129 37.2032 50.168 37.5239 50.168C38.1652 50.168 38.6636 49.934 39.0189 49.466C39.3829 48.9893 39.5649 48.3047 39.5649 47.412C39.5649 46.5367 39.3786 45.8693 39.0059 45.41C38.6419 44.942 38.0786 44.708 37.3159 44.708C37.0386 44.708 36.7569 44.7383 36.4709 44.799C36.1849 44.8597 35.9336 44.9507 35.7169 45.072V44.097C35.9682 43.967 36.2412 43.876 36.5359 43.824C36.8392 43.772 37.1426 43.746 37.4459 43.746C38.2259 43.746 38.8586 43.902 39.3439 44.214C39.8292 44.5173 40.1846 44.942 40.4099 45.488C40.6352 46.034 40.7479 46.6753 40.7479 47.412C40.7479 48.556 40.4879 49.4617 39.9679 50.129C39.4566 50.7963 38.6852 51.13 37.6539 51.13ZM45.3653 51.117C44.6633 51.117 44.1 51.026 43.6753 50.844C43.2593 50.662 42.956 50.4063 42.7653 50.077C42.5833 49.7477 42.4923 49.3577 42.4923 48.907C42.4923 48.5083 42.5487 48.192 42.6613 47.958C42.7827 47.7153 42.93 47.5377 43.1033 47.425C43.2853 47.3123 43.4717 47.2387 43.6623 47.204V47.152C43.489 47.1 43.307 47.0133 43.1163 46.892C42.9257 46.7707 42.7653 46.6017 42.6353 46.385C42.514 46.1683 42.4533 45.8953 42.4533 45.566C42.4533 45.2627 42.5227 44.9767 42.6613 44.708C42.8 44.4393 43.0253 44.2183 43.3373 44.045C43.6493 43.8717 44.061 43.785 44.5723 43.785C44.7803 43.785 44.997 43.8023 45.2223 43.837C45.4477 43.863 45.621 43.9107 45.7423 43.98L45.5343 44.877C45.439 44.8423 45.3133 44.812 45.1573 44.786C45.01 44.7513 44.854 44.734 44.6893 44.734C44.3253 44.734 44.0567 44.8207 43.8833 44.994C43.71 45.1587 43.6233 45.3797 43.6233 45.657C43.6233 45.9603 43.697 46.19 43.8443 46.346C44.0003 46.502 44.1953 46.6103 44.4293 46.671C44.672 46.723 44.9233 46.749 45.1833 46.749H45.4303V47.594H45.1833C44.6633 47.594 44.2777 47.6893 44.0263 47.88C43.7837 48.062 43.6623 48.3697 43.6623 48.803C43.6623 49.0543 43.71 49.284 43.8053 49.492C43.9093 49.7 44.0827 49.8647 44.3253 49.986C44.5767 50.1073 44.9233 50.168 45.3653 50.168C45.8073 50.168 46.1497 50.1073 46.3923 49.986C46.6437 49.8647 46.8213 49.6913 46.9253 49.466C47.0293 49.232 47.0813 48.9547 47.0813 48.634V43.876H48.2383V48.556C48.2383 49.466 48.0043 50.1203 47.5363 50.519C47.077 50.9177 46.3533 51.117 45.3653 51.117ZM51.8361 51.13C51.5934 51.13 51.3638 51.091 51.1471 51.013C50.9304 50.935 50.7528 50.7963 50.6141 50.597C50.4754 50.3977 50.4061 50.1203 50.4061 49.765V44.682C50.4061 44.4393 50.4278 44.2443 50.4711 44.097C50.5144 43.941 50.5838 43.7893 50.6791 43.642C50.7831 43.4947 50.9261 43.3083 51.1081 43.083C51.3248 42.8143 51.4851 42.5933 51.5891 42.42C51.6931 42.2467 51.7451 42.056 51.7451 41.848C51.7451 41.5967 51.6671 41.4103 51.5111 41.289C51.3638 41.159 51.1341 41.094 50.8221 41.094C50.5534 41.094 50.3064 41.133 50.0811 41.211C49.8644 41.289 49.6824 41.367 49.5351 41.445V40.457C49.6564 40.3877 49.8384 40.3227 50.0811 40.262C50.3324 40.1927 50.6271 40.158 50.9651 40.158C51.5371 40.158 51.9964 40.288 52.3431 40.548C52.6984 40.7993 52.8761 41.1893 52.8761 41.718C52.8761 42.0647 52.8111 42.368 52.6811 42.628C52.5511 42.888 52.3994 43.122 52.2261 43.33C52.0788 43.5207 51.9531 43.681 51.8491 43.811C51.7538 43.9323 51.6801 44.058 51.6281 44.188C51.5848 44.318 51.5631 44.4913 51.5631 44.708V49.622C51.5631 49.8213 51.6064 49.9643 51.6931 50.051C51.7798 50.1377 51.9141 50.181 52.0961 50.181C52.1914 50.181 52.2824 50.1723 52.3691 50.155C52.4558 50.1377 52.5338 50.116 52.6031 50.09L52.7591 50.935C52.5944 51.013 52.4341 51.065 52.2781 51.091C52.1308 51.117 51.9834 51.13 51.8361 51.13ZM54.2029 51V43.876H55.3599V46.957H55.3989L58.3629 43.876H59.7149V43.915L55.3599 48.322V51H54.2029ZM58.6229 51V48.491C58.6229 47.9797 58.4669 47.581 58.1549 47.295C57.8429 47.009 57.3272 46.866 56.6079 46.866L57.2839 46.021C57.8299 46.021 58.2849 46.1207 58.6489 46.32C59.0216 46.5107 59.3032 46.788 59.4939 47.152C59.6846 47.516 59.7799 47.9537 59.7799 48.465V51H58.6229ZM56.1965 42.745V42.173C56.3698 42.1383 56.5475 42.0907 56.7295 42.03C56.9115 41.9607 57.0631 41.874 57.1845 41.77C57.3058 41.6573 57.3665 41.523 57.3665 41.367C57.3665 41.263 57.3361 41.1763 57.2755 41.107C57.2061 41.029 57.1021 40.99 56.9635 40.99C56.8768 40.99 56.7901 41.0073 56.7035 41.042C56.6081 41.0767 56.5258 41.107 56.4565 41.133L56.1965 40.418C56.3698 40.2793 56.5648 40.1883 56.7815 40.145C56.9895 40.1017 57.1585 40.08 57.2885 40.08C57.6351 40.08 57.9081 40.1753 58.1075 40.366C58.2981 40.5567 58.3935 40.7993 58.3935 41.094C58.3935 41.3367 58.3328 41.549 58.2115 41.731C58.0815 41.9043 57.9341 42.043 57.7695 42.147L57.6395 41.835H60.2265V42.745H56.1965ZM64.2378 51.13C63.4231 51.13 62.7904 50.935 62.3398 50.545C61.8978 50.1463 61.6768 49.5527 61.6768 48.764V47.971C61.6768 47.5377 61.7374 47.1953 61.8588 46.944C61.9801 46.6927 62.1101 46.476 62.2488 46.294C62.3961 46.0947 62.5218 45.9213 62.6258 45.774C62.7384 45.6267 62.7948 45.449 62.7948 45.241C62.7948 45.059 62.7471 44.929 62.6518 44.851C62.5651 44.773 62.4524 44.734 62.3138 44.734C62.2098 44.734 62.0971 44.7513 61.9758 44.786C61.8631 44.8207 61.7504 44.864 61.6378 44.916L61.3778 44.084C61.5338 43.98 61.7244 43.9063 61.9498 43.863C62.1838 43.8197 62.3874 43.798 62.5608 43.798C62.8814 43.798 63.1371 43.8543 63.3278 43.967C63.5271 44.0797 63.6701 44.2357 63.7568 44.435C63.8434 44.6257 63.8868 44.851 63.8868 45.111C63.8868 45.4317 63.8304 45.696 63.7178 45.904C63.6138 46.112 63.4881 46.3157 63.3408 46.515C63.1934 46.7317 63.0721 46.9397 62.9768 47.139C62.8814 47.3383 62.8338 47.5983 62.8338 47.919V48.686C62.8338 49.0847 62.8988 49.3923 63.0288 49.609C63.1588 49.8257 63.3321 49.9773 63.5488 50.064C63.7654 50.142 63.9951 50.181 64.2378 50.181C64.6711 50.181 65.0004 50.0813 65.2258 49.882C65.4598 49.674 65.5768 49.3577 65.5768 48.933V43.876H66.7338V48.998C66.7338 49.6653 66.5214 50.1897 66.0968 50.571C65.6808 50.9437 65.0611 51.13 64.2378 51.13ZM71.2952 51.13C70.7838 51.13 70.3418 51.0433 69.9692 50.87C69.6052 50.688 69.3235 50.415 69.1242 50.051C68.9335 49.687 68.8382 49.2147 68.8382 48.634V43.876H69.9952V48.569C69.9952 49.089 70.1252 49.4833 70.3852 49.752C70.6538 50.0207 71.0395 50.155 71.5422 50.155C72.1488 50.155 72.6168 49.96 72.9462 49.57C73.2842 49.18 73.4532 48.6557 73.4532 47.997V43.876H74.6102V51H73.6482L73.5962 49.947H73.5312C73.3752 50.2937 73.1022 50.5797 72.7122 50.805C72.3308 51.0217 71.8585 51.13 71.2952 51.13ZM77.5258 51L76.2908 43.876H77.4738L77.9288 46.97C77.9461 47.048 77.9678 47.217 77.9938 47.477C78.0198 47.737 78.0501 48.036 78.0848 48.374C78.1281 48.712 78.1671 49.0413 78.2018 49.362H78.2668C78.3101 49.1193 78.3621 48.8723 78.4228 48.621C78.4835 48.361 78.5485 48.0923 78.6178 47.815C78.6958 47.529 78.7781 47.2343 78.8648 46.931L79.7488 43.876H80.6848L81.5688 46.931C81.6555 47.2343 81.7335 47.529 81.8028 47.815C81.8808 48.0923 81.9501 48.361 82.0108 48.621C82.0715 48.8723 82.1235 49.1193 82.1668 49.362H82.2188C82.2535 49.0067 82.2838 48.6817 82.3098 48.387C82.3445 48.0923 82.3748 47.8237 82.4008 47.581C82.4268 47.3383 82.4485 47.1347 82.4658 46.97L83.2068 41.315H84.3508L82.9208 51H81.7768L80.5938 47.126C80.5331 46.944 80.4768 46.7273 80.4248 46.476C80.3728 46.2247 80.3165 45.9083 80.2558 45.527H80.2038C80.1605 45.7783 80.1171 45.9993 80.0738 46.19C80.0391 46.3807 80.0001 46.5497 79.9568 46.697C79.9221 46.8443 79.8831 46.9873 79.8398 47.126L78.6568 51H77.5258ZM81.2262 54.445C80.6716 54.445 80.2512 54.3323 79.9652 54.107C79.6706 53.8903 79.5232 53.5783 79.5232 53.171V52.95C79.5232 52.8027 79.4886 52.7117 79.4192 52.677C79.3412 52.651 79.2372 52.6553 79.1072 52.69L79.0292 51.91C79.1506 51.8753 79.2719 51.8537 79.3932 51.845C79.5059 51.8363 79.5926 51.832 79.6532 51.832C79.9652 51.832 80.1906 51.9013 80.3292 52.04C80.4592 52.1787 80.5242 52.3737 80.5242 52.625V53.067C80.5242 53.2317 80.5762 53.3703 80.6802 53.483C80.7842 53.5957 80.9619 53.652 81.2132 53.652C81.4732 53.652 81.6552 53.5957 81.7592 53.483C81.8546 53.3703 81.9022 53.2317 81.9022 53.067V51.871H82.9162V53.132C82.9162 53.5567 82.7732 53.8817 82.4872 54.107C82.2012 54.3323 81.7809 54.445 81.2262 54.445ZM88.1291 51.13C87.6178 51.13 87.1758 51.0433 86.8031 50.87C86.4391 50.688 86.1575 50.415 85.9581 50.051C85.7675 49.687 85.6721 49.2147 85.6721 48.634V43.876H86.8291V48.569C86.8291 49.089 86.9591 49.4833 87.2191 49.752C87.4878 50.0207 87.8735 50.155 88.3761 50.155C88.9828 50.155 89.4508 49.96 89.7801 49.57C90.1181 49.18 90.2871 48.6557 90.2871 47.997V43.876H91.4441V51H90.4821L90.4301 49.947H90.3651C90.2091 50.2937 89.9361 50.5797 89.5461 50.805C89.1648 51.0217 88.6925 51.13 88.1291 51.13ZM90.3948 54.393V53.015C90.3948 52.7983 90.2995 52.69 90.1088 52.69C90.0655 52.69 90.0221 52.6943 89.9788 52.703C89.9268 52.7117 89.8791 52.7247 89.8358 52.742L89.7448 51.962C89.8748 51.9187 90.0178 51.884 90.1738 51.858C90.3211 51.8407 90.4425 51.832 90.5378 51.832C90.8411 51.832 91.0665 51.9013 91.2138 52.04C91.3525 52.1873 91.4218 52.3867 91.4218 52.638V54.393H90.3948ZM90.2778 42.745V40.002H91.4218V42.745H90.2778ZM97.0768 51.13C96.5221 51.13 96.0411 51.0217 95.6338 50.805C95.2351 50.5797 94.9621 50.2677 94.8148 49.869H94.7628L94.6978 51H93.7488V43.876H94.9058V47.997C94.9058 48.4303 94.9795 48.8117 95.1268 49.141C95.2828 49.4617 95.5038 49.713 95.7898 49.895C96.0845 50.0683 96.4355 50.155 96.8428 50.155C97.3541 50.155 97.7355 50.0207 97.9868 49.752C98.2381 49.4833 98.3638 49.089 98.3638 48.569V43.876H99.5208V48.647C99.5208 49.219 99.4211 49.687 99.2218 50.051C99.0311 50.415 98.7538 50.688 98.3898 50.87C98.0258 51.0433 97.5881 51.13 97.0768 51.13ZM105.803 51V46.255C105.803 45.6917 105.673 45.293 105.413 45.059C105.162 44.8163 104.737 44.695 104.139 44.695C103.706 44.695 103.29 44.7557 102.891 44.877C102.501 44.9897 102.128 45.15 101.773 45.358V44.279C102.024 44.149 102.362 44.0277 102.787 43.915C103.22 43.8023 103.706 43.746 104.243 43.746C104.702 43.746 105.101 43.798 105.439 43.902C105.777 43.9973 106.054 44.1447 106.271 44.344C106.496 44.5433 106.665 44.799 106.778 45.111C106.891 45.4143 106.947 45.774 106.947 46.19V51H105.803ZM103.567 51.13C102.804 51.13 102.219 50.9567 101.812 50.61C101.413 50.2547 101.214 49.7477 101.214 49.089C101.214 48.3697 101.474 47.815 101.994 47.425C102.523 47.035 103.376 46.8053 104.555 46.736L106.037 46.645V47.607L104.711 47.698C103.827 47.7587 103.216 47.8973 102.878 48.114C102.549 48.3307 102.384 48.647 102.384 49.063C102.384 49.453 102.505 49.739 102.748 49.921C102.999 50.103 103.346 50.194 103.788 50.194C103.935 50.194 104.07 50.1853 104.191 50.168C104.312 50.142 104.429 50.1117 104.542 50.077L104.724 50.948C104.559 51.0087 104.377 51.052 104.178 51.078C103.987 51.1127 103.784 51.13 103.567 51.13ZM101.233 42.745V42.238L102.182 41.822H106.758V42.745H101.233ZM103.911 42.238V40.769H104.873V42.238H103.911ZM105.809 42.238V40.769H106.758V42.238H105.809ZM104.815 40.002V37.883H105.92V40.002H104.815ZM111.514 51.13C111.003 51.13 110.561 51.0433 110.188 50.87C109.824 50.688 109.542 50.415 109.343 50.051C109.152 49.687 109.057 49.2147 109.057 48.634V43.876H110.214V48.569C110.214 49.089 110.344 49.4833 110.604 49.752C110.873 50.0207 111.258 50.155 111.761 50.155C112.368 50.155 112.836 49.96 113.165 49.57C113.503 49.18 113.672 48.6557 113.672 47.997V43.876H114.829V51H113.867L113.815 49.947H113.75C113.594 50.2937 113.321 50.5797 112.931 50.805C112.55 51.0217 112.077 51.13 111.514 51.13Z" fill="#1A2A40"/>
</g>
<defs>
<filter id="filter0_d_89_10" x="0.000488281" y="0" width="165.198" height="111" filterUnits="userSpaceOnUse" color-interpolation-filters="sRGB">
<feFlood flood-opacity="0" result="BackgroundImageFix"/>
<feColorMatrix in="SourceAlpha" type="matrix" values="0 0 0 0 0 0 0 0 0 0 0 0 0 0 0 0 0 0 127 0" result="hardAlpha"/>
<feOffset dx="8" dy="8"/>
<feGaussianBlur stdDeviation="11.5"/>
<feComposite in2="hardAlpha" operator="out"/>
<feColorMatrix type="matrix" values="0 0 0 0 0 0 0 0 0 0 0 0 0 0 0 0 0 0 0.25 0"/>
<feBlend mode="normal" in2="BackgroundImageFix" result="effect1_dropShadow_89_10"/>
<feBlend mode="normal" in="SourceGraphic" in2="effect1_dropShadow_89_10" result="shape"/>
</filter>
<filter id="filter1_d_89_10" x="28.7256" y="37.8831" width="98.0035" height="28.462" filterUnits="userSpaceOnUse" color-interpolation-filters="sRGB">
<feFlood flood-opacity="0" result="BackgroundImageFix"/>
<feColorMatrix in="SourceAlpha" type="matrix" values="0 0 0 0 0 0 0 0 0 0 0 0 0 0 0 0 0 0 127 0" result="hardAlpha"/>
<feOffset dx="6" dy="6"/>
<feGaussianBlur stdDeviation="2.95"/>
<feComposite in2="hardAlpha" operator="out"/>
<feColorMatrix type="matrix" values="0 0 0 0 0 0 0 0 0 0 0 0 0 0 0 0 0 0 0.25 0"/>
<feBlend mode="normal" in2="BackgroundImageFix" result="effect1_dropShadow_89_10"/>
<feBlend mode="normal" in="SourceGraphic" in2="effect1_dropShadow_89_10" result="shape"/>
</filter>
</defs>
</svg>
