<svg width="203" height="113" viewBox="0 0 203 113" fill="none" xmlns="http://www.w3.org/2000/svg">
<g filter="url(#filter0_d_96_43)">
<rect x="15.1499" y="15.3408" width="156.07" height="66.5819" rx="23" fill="white"/>
</g>
<path d="M8.17084 83.4634L18.3797 66.2185L30.4652 77.0306L8.17084 83.4634Z" fill="white"/>
<g filter="url(#filter1_d_96_43)">
<path d="M37.743 48.803V46.333C37.743 45.787 37.8643 45.3926 38.107 45.15C38.3497 44.8986 38.6573 44.7253 39.03 44.63L39.043 44.591L37.613 44.045V43.616C37.613 43.2606 37.73 42.927 37.964 42.615C38.198 42.2943 38.5317 42.0386 38.965 41.848C39.407 41.6486 39.9313 41.549 40.538 41.549C41.0667 41.549 41.5563 41.6356 42.007 41.809C42.4577 41.9736 42.8174 42.238 43.086 42.602C43.3634 42.9573 43.502 43.4253 43.502 44.006V48.803H42.345V44.123C42.345 43.5423 42.1673 43.1306 41.812 42.888C41.4653 42.6366 41.0363 42.511 40.525 42.511C39.9963 42.511 39.576 42.6236 39.264 42.849C38.952 43.0656 38.796 43.343 38.796 43.681L40.2 44.383L40.096 45.007C39.7753 45.007 39.4937 45.1153 39.251 45.332C39.017 45.54 38.9 45.8736 38.9 46.333V48.803H37.743ZM49.7759 48.803V44.058C49.7759 43.4946 49.6459 43.096 49.3859 42.862C49.1346 42.6193 48.7099 42.498 48.1119 42.498C47.6786 42.498 47.2626 42.5586 46.8639 42.68C46.4739 42.7926 46.1013 42.953 45.7459 43.161V42.082C45.9973 41.952 46.3353 41.8306 46.7599 41.718C47.1933 41.6053 47.6786 41.549 48.2159 41.549C48.6753 41.549 49.0739 41.601 49.4119 41.705C49.7499 41.8003 50.0273 41.9476 50.2439 42.147C50.4693 42.3463 50.6383 42.602 50.7509 42.914C50.8636 43.2173 50.9199 43.577 50.9199 43.993V48.803H49.7759ZM47.5399 48.933C46.7773 48.933 46.1923 48.7596 45.7849 48.413C45.3863 48.0576 45.1869 47.5506 45.1869 46.892C45.1869 46.1726 45.4469 45.618 45.9669 45.228C46.4956 44.838 47.3493 44.6083 48.5279 44.539L50.0099 44.448V45.41L48.6839 45.501C47.7999 45.5616 47.1889 45.7003 46.8509 45.917C46.5216 46.1336 46.3569 46.45 46.3569 46.866C46.3569 47.256 46.4783 47.542 46.7209 47.724C46.9723 47.906 47.3189 47.997 47.7609 47.997C47.9083 47.997 48.0426 47.9883 48.1639 47.971C48.2853 47.945 48.4023 47.9146 48.5149 47.88L48.6969 48.751C48.5323 48.8116 48.3503 48.855 48.1509 48.881C47.9603 48.9156 47.7566 48.933 47.5399 48.933ZM45.2058 40.548V40.041L46.1548 39.625H50.7308V40.548H45.2058ZM49.6388 37.805V35.686H50.7438V37.805H49.6388ZM55.4867 48.933C54.9754 48.933 54.5334 48.8463 54.1607 48.673C53.7967 48.491 53.515 48.218 53.3157 47.854C53.125 47.49 53.0297 47.0176 53.0297 46.437V41.679H54.1867V46.372C54.1867 46.892 54.3167 47.2863 54.5767 47.555C54.8454 47.8236 55.231 47.958 55.7337 47.958C56.3404 47.958 56.8084 47.763 57.1377 47.373C57.4757 46.983 57.6447 46.4586 57.6447 45.8V41.679H58.8017V48.803H57.8397L57.7877 47.75H57.7227C57.5667 48.0966 57.2937 48.3826 56.9037 48.608C56.5224 48.8246 56.05 48.933 55.4867 48.933ZM67.6364 48.9553C66.9466 48.9553 66.3245 48.7966 65.7702 48.4792C65.2158 48.1619 64.7757 47.6583 64.4498 46.9685C64.124 46.2745 63.9611 45.3604 63.9611 44.2263C63.9611 43.3123 64.0711 42.5505 64.2911 41.9412C64.5112 41.3318 64.8095 40.8494 65.1862 40.4939C65.5628 40.1384 65.9902 39.8866 66.4684 39.7385C66.9466 39.5862 67.4459 39.51 67.9664 39.51C68.4996 39.51 68.963 39.5523 69.3566 39.637C69.7544 39.7216 70.0887 39.8168 70.3595 39.9226L70.4484 40.9319C70.1775 40.8261 69.8432 40.7224 69.4454 40.6208C69.0477 40.5151 68.5652 40.4622 67.9982 40.4622C67.0968 40.4622 66.407 40.752 65.9288 41.3318C65.4549 41.9115 65.2179 42.8171 65.2179 44.0486C65.2179 45.3731 65.4126 46.3634 65.8019 47.0193C66.1954 47.671 66.845 47.9968 67.7506 47.9968C68.305 47.9968 68.7536 47.9058 69.0963 47.7239C69.4433 47.5419 69.7057 47.3663 69.8834 47.197V44.9373H68.1632L68.0426 44.0867H70.8927V48.7776H70.2326L69.9913 48.0095C69.8856 48.1449 69.7332 48.2867 69.5343 48.4348C69.3397 48.5787 69.0879 48.7014 68.7789 48.803C68.47 48.9045 68.0892 48.9553 67.6364 48.9553ZM72.5939 44.22C72.5939 42.6288 72.907 41.446 73.5333 40.6716C74.1596 39.8972 75.0695 39.51 76.2628 39.51C77.4647 39.51 78.3787 39.8972 79.005 40.6716C79.6356 41.446 79.9508 42.6288 79.9508 44.22C79.9508 45.828 79.6356 47.0193 79.005 47.7937C78.3787 48.5681 77.4647 48.9553 76.2628 48.9553C75.0695 48.9553 74.1596 48.5681 73.5333 47.7937C72.907 47.0151 72.5939 45.8238 72.5939 44.22ZM73.8063 44.22C73.8063 44.8167 73.8507 45.3477 73.9396 45.8132C74.0327 46.2787 74.1787 46.6744 74.3776 47.0002C74.5765 47.3219 74.8304 47.5694 75.1393 47.7429C75.4482 47.9122 75.8227 47.9968 76.2628 47.9968C76.7072 47.9968 77.0838 47.9122 77.3927 47.7429C77.7059 47.5694 77.9619 47.3219 78.1608 47.0002C78.3597 46.6744 78.5036 46.2787 78.5924 45.8132C78.6855 45.3477 78.7321 44.8167 78.7321 44.22C78.7321 43.6275 78.6855 43.0986 78.5924 42.6331C78.5036 42.1676 78.3597 41.774 78.1608 41.4524C77.9619 41.1308 77.7059 40.8853 77.3927 40.7161C77.0838 40.5468 76.7072 40.4622 76.2628 40.4622C75.827 40.4622 75.4546 40.5468 75.1456 40.7161C74.8367 40.8853 74.5828 41.1308 74.3839 41.4524C74.1893 41.774 74.0433 42.1676 73.9459 42.6331C73.8528 43.0986 73.8063 43.6275 73.8063 44.22ZM81.8678 48.803V39.6814H83.0421V47.9016H86.7745L86.6666 48.803H81.8678ZM88.1012 48.803V39.6814H90.7164C91.0719 39.6814 91.421 39.7004 91.7638 39.7385C92.1108 39.7724 92.4409 39.8443 92.754 39.9543C93.0757 40.0728 93.3655 40.2273 93.6237 40.4177C93.886 40.6124 94.1146 40.8705 94.3092 41.1921C94.5039 41.5138 94.6562 41.9052 94.7662 42.3665C94.8763 42.8404 94.9313 43.4032 94.9313 44.0549C94.9313 44.7786 94.872 45.4324 94.7536 46.0164C94.6393 46.6003 94.4383 47.0997 94.1505 47.5144C93.8628 47.9291 93.4629 48.2486 92.9508 48.4729C92.443 48.693 91.7934 48.803 91.0021 48.803H88.1012ZM90.6022 47.8889C91.8082 47.8889 92.6398 47.6181 93.0968 47.0764C93.3338 46.7929 93.4988 46.4099 93.5919 45.9275C93.6893 45.4451 93.7379 44.8378 93.7379 44.1057C93.7379 43.509 93.6956 42.9949 93.611 42.5632C93.5306 42.1316 93.3888 41.7698 93.1857 41.4778C92.9783 41.19 92.7011 40.9721 92.3541 40.824C92.0071 40.6759 91.5713 40.6018 91.0465 40.6018H89.32V47.8889H90.6022ZM96.8483 48.803V39.6814H102.028L101.876 40.6018H98.048V43.6677H101.171V44.55H98.048V47.8826H102.015L101.869 48.803H96.8483ZM103.742 48.803V39.6814H104.948L109.715 46.9685V39.6814H110.832V48.7966H109.677L104.859 41.5159V48.803H103.742ZM118.621 48.9553C117.994 48.9553 117.485 48.9024 117.091 48.7966C116.697 48.6866 116.382 48.5723 116.145 48.4539L115.98 47.4509C116.255 47.5863 116.602 47.7112 117.021 47.8254C117.444 47.9397 117.939 47.9968 118.506 47.9968C119.154 47.9968 119.658 47.8868 120.017 47.6667C120.377 47.4467 120.557 47.0214 120.557 46.3909C120.557 46.0269 120.493 45.7371 120.366 45.5212C120.239 45.3054 120.015 45.1192 119.693 44.9626C119.376 44.8018 118.928 44.6305 118.348 44.4485C117.747 44.2708 117.262 44.0761 116.894 43.8645C116.526 43.6487 116.257 43.3821 116.088 43.0647C115.923 42.7431 115.843 42.3347 115.847 41.8396C115.864 41.2556 116.01 40.7944 116.285 40.4558C116.564 40.113 116.934 39.8697 117.396 39.7258C117.861 39.5777 118.382 39.5037 118.957 39.5037C119.334 39.5037 119.713 39.5375 120.093 39.6052C120.474 39.6687 120.836 39.7555 121.179 39.8655L121.312 40.9065C121.071 40.8092 120.73 40.7118 120.29 40.6145C119.85 40.5172 119.402 40.4685 118.944 40.4685C118.36 40.4685 117.889 40.5658 117.529 40.7605C117.169 40.9509 116.989 41.3233 116.989 41.8777C116.998 42.1443 117.057 42.3707 117.167 42.5569C117.281 42.7389 117.478 42.9018 117.757 43.0457C118.041 43.1895 118.441 43.3419 118.957 43.5027C119.431 43.6593 119.842 43.8137 120.189 43.9661C120.54 44.1142 120.83 44.2898 121.058 44.4929C121.287 44.6918 121.456 44.9457 121.566 45.2546C121.68 45.5593 121.737 45.9465 121.737 46.4163C121.737 47.1949 121.494 47.8127 121.007 48.2698C120.521 48.7268 119.725 48.9553 118.621 48.9553ZM123.534 48.803V39.6814H124.695V48.803H123.534ZM127.05 48.803V39.6814H129.78C130.449 39.6814 131.02 39.7491 131.494 39.8845C131.972 40.0199 132.338 40.2738 132.592 40.6462C132.846 41.0186 132.973 41.5624 132.973 42.2776C132.973 42.9124 132.863 43.4117 132.643 43.7756C132.423 44.1353 132.139 44.3977 131.792 44.5627C131.445 44.7278 131.081 44.8336 130.7 44.8801L133.265 48.4412V48.803H132.116L129.513 44.9944H128.244V48.803H127.05ZM128.244 44.1057H129.666C130.089 44.1057 130.442 44.0782 130.726 44.0232C131.009 43.9639 131.236 43.8666 131.405 43.7312C131.578 43.5958 131.699 43.4202 131.767 43.2043C131.839 42.9843 131.875 42.7113 131.875 42.3855C131.875 41.9919 131.837 41.6767 131.76 41.4397C131.688 41.2027 131.559 41.0186 131.373 40.8875C131.191 40.7605 130.944 40.6737 130.631 40.6272C130.317 40.5806 129.928 40.5574 129.463 40.5574H128.244V44.1057ZM134.858 48.803V39.6814H140.038L139.885 40.6018H136.058V43.6677H139.181V44.55H136.058V47.8826H140.025L139.879 48.803H134.858ZM141.752 48.803V39.6814H142.958L147.725 46.9685V39.6814H148.842V48.7966H147.687L142.869 41.5159V48.803H141.752ZM66.6986 65.803V58.679H67.8556V61.76H67.8946L70.8586 58.679H72.2106V58.718L67.8556 63.125V65.803H66.6986ZM71.1186 65.803V63.294C71.1186 62.7826 70.9626 62.384 70.6506 62.098C70.3386 61.812 69.823 61.669 69.1036 61.669L69.7796 60.824C70.3256 60.824 70.7806 60.9236 71.1446 61.123C71.5173 61.3136 71.799 61.591 71.9896 61.955C72.1803 62.319 72.2756 62.7566 72.2756 63.268V65.803H71.1186ZM76.7465 65.933C75.8105 65.933 75.1085 65.6903 74.6405 65.205C74.1812 64.711 73.9515 63.9396 73.9515 62.891C73.9515 62.7176 73.9559 62.5313 73.9645 62.332C73.9819 62.124 73.9992 61.9203 74.0165 61.721H76.7465V62.631H75.1085V62.891C75.1085 63.437 75.1692 63.866 75.2905 64.178C75.4119 64.4813 75.5895 64.6936 75.8235 64.815C76.0662 64.9363 76.3652 64.997 76.7205 64.997C77.1105 64.997 77.4485 64.9233 77.7345 64.776C78.0205 64.6286 78.2415 64.36 78.3975 63.97C78.5535 63.58 78.6315 63.021 78.6315 62.293C78.6315 61.6516 78.5622 61.1273 78.4235 60.72C78.2849 60.3126 78.0552 60.0093 77.7345 59.81C77.4225 59.6106 76.9979 59.511 76.4605 59.511C76.1832 59.511 75.9145 59.537 75.6545 59.589C75.3945 59.6323 75.1432 59.7016 74.9005 59.797C74.6579 59.8836 74.4195 59.9963 74.1855 60.135V59.056C74.3589 58.9606 74.5712 58.8783 74.8225 58.809C75.0739 58.731 75.3512 58.6703 75.6545 58.627C75.9579 58.575 76.2742 58.549 76.6035 58.549C77.3662 58.549 77.9815 58.705 78.4495 59.017C78.9262 59.3203 79.2729 59.7536 79.4895 60.317C79.7062 60.8716 79.8145 61.5303 79.8145 62.293C79.8145 63.0556 79.7149 63.71 79.5155 64.256C79.3162 64.802 78.9912 65.218 78.5405 65.504C78.0985 65.79 77.5005 65.933 76.7465 65.933ZM85.1214 65.933C84.5667 65.933 84.0857 65.8246 83.6784 65.608C83.2797 65.3826 83.0067 65.0706 82.8594 64.672H82.8074L82.7424 65.803H81.7934V58.679H82.9504V62.8C82.9504 63.2333 83.024 63.6146 83.1714 63.944C83.3274 64.2646 83.5484 64.516 83.8344 64.698C84.129 64.8713 84.48 64.958 84.8874 64.958C85.3987 64.958 85.78 64.8236 86.0314 64.555C86.2827 64.2863 86.4084 63.892 86.4084 63.372V58.679H87.5654V63.45C87.5654 64.022 87.4657 64.49 87.2664 64.854C87.0757 65.218 86.7984 65.491 86.4344 65.673C86.0704 65.8463 85.6327 65.933 85.1214 65.933ZM93.8477 65.803V61.058C93.8477 60.4946 93.7177 60.096 93.4577 59.862C93.2064 59.6193 92.7817 59.498 92.1837 59.498C91.7504 59.498 91.3344 59.5586 90.9357 59.68C90.5457 59.7926 90.173 59.953 89.8177 60.161V59.082C90.069 58.952 90.407 58.8306 90.8317 58.718C91.265 58.6053 91.7504 58.549 92.2877 58.549C92.747 58.549 93.137 58.601 93.4577 58.705C93.787 58.809 94.0297 58.9996 94.1857 59.277C94.489 59.4156 94.697 59.6323 94.8097 59.927C94.931 60.2216 94.9917 60.577 94.9917 60.993V65.803H93.8477ZM91.6117 65.933C90.849 65.933 90.264 65.7596 89.8567 65.413C89.458 65.0576 89.2587 64.5506 89.2587 63.892C89.2587 63.1726 89.5187 62.618 90.0387 62.228C90.5674 61.838 91.421 61.6083 92.5997 61.539L94.0817 61.448V62.41L92.7557 62.501C91.8717 62.5616 91.2607 62.7003 90.9227 62.917C90.5934 63.1336 90.4287 63.45 90.4287 63.866C90.4287 64.256 90.55 64.542 90.7927 64.724C91.044 64.906 91.3907 64.997 91.8327 64.997C91.98 64.997 92.1144 64.9883 92.2357 64.971C92.357 64.945 92.474 64.9146 92.5867 64.88L92.7687 65.751C92.604 65.8116 92.422 65.855 92.2227 65.881C92.032 65.9156 91.8284 65.933 91.6117 65.933ZM94.1467 59.68L93.4967 59.069C93.722 59.0343 93.9344 58.9476 94.1337 58.809C94.333 58.6703 94.4327 58.471 94.4327 58.211H95.5637C95.5637 58.4796 95.4987 58.718 95.3687 58.926C95.2474 59.1253 95.0784 59.29 94.8617 59.42C94.645 59.5413 94.4067 59.628 94.1467 59.68ZM98.0502 61.331C97.6948 61.331 97.4045 61.279 97.1792 61.175C96.9625 61.0623 96.8065 60.9236 96.7112 60.759C96.6158 60.5856 96.5682 60.4036 96.5682 60.213C96.5682 60.083 96.5855 59.9486 96.6202 59.81C96.6635 59.6713 96.7155 59.5543 96.7762 59.459L97.7512 59.615C97.7338 59.6583 97.7122 59.719 97.6862 59.797C97.6688 59.875 97.6602 59.953 97.6602 60.031C97.6602 60.1436 97.6905 60.239 97.7512 60.317C97.8118 60.3863 97.9245 60.421 98.0892 60.421H99.9482V61.331H98.0502ZM98.0502 64.971C97.6948 64.971 97.4045 64.919 97.1792 64.815C96.9625 64.7023 96.8065 64.5636 96.7112 64.399C96.6158 64.2256 96.5682 64.0436 96.5682 63.853C96.5682 63.723 96.5855 63.5886 96.6202 63.45C96.6635 63.3113 96.7155 63.1943 96.7762 63.099L97.7512 63.255C97.7338 63.2983 97.7122 63.359 97.6862 63.437C97.6688 63.515 97.6602 63.593 97.6602 63.671C97.6602 63.7836 97.6905 63.879 97.7512 63.957C97.8118 64.0263 97.9245 64.061 98.0892 64.061H99.9482V64.971H98.0502ZM104.029 65.933C103.093 65.933 102.391 65.6903 101.923 65.205C101.463 64.711 101.234 63.9396 101.234 62.891C101.234 62.7176 101.238 62.5313 101.247 62.332C101.264 62.124 101.281 61.9203 101.299 61.721H104.029V62.631H102.391V62.891C102.391 63.437 102.451 63.866 102.573 64.178C102.694 64.4813 102.872 64.6936 103.106 64.815C103.348 64.9363 103.647 64.997 104.003 64.997C104.393 64.997 104.731 64.9233 105.017 64.776C105.303 64.6286 105.524 64.36 105.68 63.97C105.836 63.58 105.914 63.021 105.914 62.293C105.914 61.6516 105.844 61.1273 105.706 60.72C105.567 60.3126 105.337 60.0093 105.017 59.81C104.705 59.6106 104.28 59.511 103.743 59.511C103.465 59.511 103.197 59.537 102.937 59.589C102.677 59.6323 102.425 59.7016 102.183 59.797C101.94 59.8836 101.702 59.9963 101.468 60.135V59.056C101.641 58.9606 101.853 58.8783 102.105 58.809C102.356 58.731 102.633 58.6703 102.937 58.627C103.24 58.575 103.556 58.549 103.886 58.549C104.648 58.549 105.264 58.705 105.732 59.017C106.208 59.3203 106.555 59.7536 106.772 60.317C106.988 60.8716 107.097 61.5303 107.097 62.293C107.097 63.0556 106.997 63.71 106.798 64.256C106.598 64.802 106.273 65.218 105.823 65.504C105.381 65.79 104.783 65.933 104.029 65.933ZM110.987 65.803V60.746C110.987 60.3213 110.887 60.0093 110.688 59.81C110.497 59.6106 110.172 59.511 109.713 59.511C109.401 59.511 109.106 59.5543 108.829 59.641C108.56 59.719 108.3 59.8316 108.049 59.979V58.939C108.222 58.8523 108.469 58.7656 108.79 58.679C109.11 58.5923 109.492 58.549 109.934 58.549C110.384 58.549 110.774 58.614 111.104 58.744C111.433 58.874 111.689 59.0906 111.871 59.394C112.053 59.6886 112.144 60.083 112.144 60.577V65.803H110.987ZM116.684 65.933C115.991 65.933 115.445 65.7726 115.046 65.452C114.656 65.1226 114.379 64.6806 114.214 64.126C114.058 63.5713 113.98 62.9603 113.98 62.293C113.98 61.5563 114.054 60.9496 114.201 60.473C114.357 59.9876 114.574 59.6063 114.851 59.329C115.137 59.043 115.475 58.8436 115.865 58.731C116.264 58.6096 116.701 58.549 117.178 58.549C117.871 58.549 118.435 58.653 118.868 58.861C119.31 59.0603 119.635 59.3463 119.843 59.719C120.051 60.0916 120.155 60.538 120.155 61.058V65.803H119.011V61.162C119.011 60.6246 118.877 60.2173 118.608 59.94C118.339 59.654 117.876 59.511 117.217 59.511C116.818 59.511 116.459 59.5846 116.138 59.732C115.826 59.8793 115.579 60.1523 115.397 60.551C115.224 60.9496 115.137 61.5346 115.137 62.306C115.137 62.8086 115.185 63.2636 115.28 63.671C115.384 64.0696 115.562 64.386 115.813 64.62C116.064 64.854 116.415 64.971 116.866 64.971C116.996 64.971 117.117 64.9623 117.23 64.945C117.343 64.9276 117.451 64.9016 117.555 64.867L117.672 65.764C117.533 65.8246 117.373 65.868 117.191 65.894C117.018 65.92 116.849 65.933 116.684 65.933Z" fill="#1A2A40"/>
</g>
<defs>
<filter id="filter0_d_96_43" x="0.149902" y="0.34082" width="202.07" height="112.582" filterUnits="userSpaceOnUse" color-interpolation-filters="sRGB">
<feFlood flood-opacity="0" result="BackgroundImageFix"/>
<feColorMatrix in="SourceAlpha" type="matrix" values="0 0 0 0 0 0 0 0 0 0 0 0 0 0 0 0 0 0 127 0" result="hardAlpha"/>
<feOffset dx="8" dy="8"/>
<feGaussianBlur stdDeviation="11.5"/>
<feComposite in2="hardAlpha" operator="out"/>
<feColorMatrix type="matrix" values="0 0 0 0 0 0 0 0 0 0 0 0 0 0 0 0 0 0 0.25 0"/>
<feBlend mode="normal" in2="BackgroundImageFix" result="effect1_dropShadow_96_43"/>
<feBlend mode="normal" in="SourceGraphic" in2="effect1_dropShadow_96_43" result="shape"/>
</filter>
<filter id="filter1_d_96_43" x="37.6128" y="35.686" width="123.129" height="42.1468" filterUnits="userSpaceOnUse" color-interpolation-filters="sRGB">
<feFlood flood-opacity="0" result="BackgroundImageFix"/>
<feColorMatrix in="SourceAlpha" type="matrix" values="0 0 0 0 0 0 0 0 0 0 0 0 0 0 0 0 0 0 127 0" result="hardAlpha"/>
<feOffset dx="6" dy="6"/>
<feGaussianBlur stdDeviation="2.95"/>
<feComposite in2="hardAlpha" operator="out"/>
<feColorMatrix type="matrix" values="0 0 0 0 0 0 0 0 0 0 0 0 0 0 0 0 0 0 0.25 0"/>
<feBlend mode="normal" in2="BackgroundImageFix" result="effect1_dropShadow_96_43"/>
<feBlend mode="normal" in="SourceGraphic" in2="effect1_dropShadow_96_43" result="shape"/>
</filter>
</defs>
</svg>
