<svg width="149" height="114" viewBox="0 0 149 114" fill="none" xmlns="http://www.w3.org/2000/svg">
<g filter="url(#filter0_d_96_48)">
<rect x="15.646" y="15.7988" width="101.895" height="66.5819" rx="19" fill="white"/>
</g>
<path d="M9.74536 83.9214L18.375 66.6765L28.5909 77.4887L9.74536 83.9214Z" fill="white"/>
<g filter="url(#filter1_d_96_48)">
<path d="M33.3781 44.9527L36.1849 52.9115H36.2957L39.1026 44.9527H40.3028L36.8313 54.4072H35.6494L32.1778 44.9527H33.3781ZM42.9204 44.9527V54.4072H41.7755V44.9527H42.9204ZM44.6989 45.9683V44.9527H51.7898V45.9683H48.8168V54.4072H47.6719V45.9683H44.6989ZM52.84 54.4072H51.6398L55.1113 44.9527H56.2932L59.7648 54.4072H58.5645L55.7392 46.4484H55.6653L52.84 54.4072ZM53.2832 50.714H58.1213V51.7297H53.2832V50.714ZM61.2374 44.9527H62.6039L65.817 52.8007H65.9278L69.1408 44.9527H70.5073V54.4072H69.4363V47.224H69.3439L66.3894 54.4072H65.3553L62.4008 47.224H62.3084V54.4072H61.2374V44.9527ZM73.9477 44.9527V54.4072H72.8028V44.9527H73.9477ZM83.7404 44.9527V54.4072H82.6325L77.4805 46.9839H77.3882V54.4072H76.2433V44.9527H77.3512L82.5217 52.3944H82.614V44.9527H83.7404ZM89.6876 54.4072V44.9527H92.993C93.6516 44.9527 94.1948 45.0666 94.6226 45.2943C95.0504 45.519 95.369 45.8221 95.5782 46.2037C95.7875 46.5823 95.8922 47.0024 95.8922 47.464C95.8922 47.8703 95.8198 48.2058 95.6752 48.4704C95.5336 48.7351 95.3459 48.9444 95.112 49.0983C94.8811 49.2522 94.6303 49.366 94.3595 49.4399V49.5322C94.6488 49.5507 94.9396 49.6523 95.232 49.8369C95.5244 50.0216 95.769 50.2863 95.966 50.6309C96.163 50.9756 96.2615 51.3973 96.2615 51.8959C96.2615 52.3698 96.1538 52.7961 95.9383 53.1746C95.7229 53.5532 95.3828 53.8532 94.9181 54.0748C94.4534 54.2964 93.8486 54.4072 93.1038 54.4072H89.6876ZM90.8325 53.3916H93.1038C93.8517 53.3916 94.3826 53.247 94.6965 52.9577C95.0135 52.6653 95.172 52.3113 95.172 51.8959C95.172 51.5758 95.0904 51.2803 94.9273 51.0095C94.7642 50.7356 94.5318 50.5171 94.2302 50.354C93.9286 50.1878 93.5716 50.1047 93.1592 50.1047H90.8325V53.3916ZM90.8325 49.1075H92.9561C93.3008 49.1075 93.6116 49.0398 93.8886 48.9044C94.1687 48.769 94.3903 48.5782 94.5534 48.3319C94.7196 48.0857 94.8027 47.7964 94.8027 47.464C94.8027 47.0486 94.658 46.6962 94.3687 46.4069C94.0794 46.1145 93.6208 45.9683 92.993 45.9683H90.8325V49.1075ZM100.931 54.5365C100.389 54.5365 99.9016 54.4288 99.4676 54.2133C99.0337 53.9979 98.6859 53.7024 98.4243 53.327C98.1627 52.9515 98.0196 52.5237 97.995 52.0436H99.1029C99.146 52.4714 99.3399 52.8253 99.6846 53.1054C100.032 53.3824 100.448 53.5209 100.931 53.5209C101.319 53.5209 101.664 53.4301 101.965 53.2485C102.27 53.0669 102.508 52.8176 102.681 52.5006C102.856 52.1805 102.944 51.8189 102.944 51.4157C102.944 51.0033 102.853 50.6356 102.671 50.3124C102.493 49.9862 102.247 49.7292 101.933 49.5415C101.619 49.3537 101.26 49.2583 100.857 49.2552C100.568 49.2522 100.271 49.2968 99.9662 49.3891C99.6615 49.4784 99.4107 49.5938 99.2137 49.7354L98.1427 49.6061L98.7151 44.9527H103.627V45.9683H99.6754L99.343 48.7567H99.3984C99.5923 48.6028 99.8354 48.4751 100.128 48.3735C100.42 48.2719 100.725 48.2211 101.042 48.2211C101.62 48.2211 102.136 48.3596 102.588 48.6366C103.044 48.9105 103.401 49.286 103.659 49.7631C103.921 50.2401 104.052 50.7848 104.052 51.3973C104.052 52.0005 103.916 52.5391 103.646 53.0131C103.378 53.4839 103.008 53.8563 102.538 54.1302C102.067 54.4011 101.531 54.5365 100.931 54.5365Z" fill="#1A2A40"/>
</g>
<defs>
<filter id="filter0_d_96_48" x="0.645996" y="0.798828" width="147.895" height="112.582" filterUnits="userSpaceOnUse" color-interpolation-filters="sRGB">
<feFlood flood-opacity="0" result="BackgroundImageFix"/>
<feColorMatrix in="SourceAlpha" type="matrix" values="0 0 0 0 0 0 0 0 0 0 0 0 0 0 0 0 0 0 127 0" result="hardAlpha"/>
<feOffset dx="8" dy="8"/>
<feGaussianBlur stdDeviation="11.5"/>
<feComposite in2="hardAlpha" operator="out"/>
<feColorMatrix type="matrix" values="0 0 0 0 0 0 0 0 0 0 0 0 0 0 0 0 0 0 0.25 0"/>
<feBlend mode="normal" in2="BackgroundImageFix" result="effect1_dropShadow_96_48"/>
<feBlend mode="normal" in="SourceGraphic" in2="effect1_dropShadow_96_48" result="shape"/>
</filter>
<filter id="filter1_d_96_48" x="32.1777" y="44.9526" width="83.774" height="21.4837" filterUnits="userSpaceOnUse" color-interpolation-filters="sRGB">
<feFlood flood-opacity="0" result="BackgroundImageFix"/>
<feColorMatrix in="SourceAlpha" type="matrix" values="0 0 0 0 0 0 0 0 0 0 0 0 0 0 0 0 0 0 127 0" result="hardAlpha"/>
<feOffset dx="6" dy="6"/>
<feGaussianBlur stdDeviation="2.95"/>
<feComposite in2="hardAlpha" operator="out"/>
<feColorMatrix type="matrix" values="0 0 0 0 0 0 0 0 0 0 0 0 0 0 0 0 0 0 0.25 0"/>
<feBlend mode="normal" in2="BackgroundImageFix" result="effect1_dropShadow_96_48"/>
<feBlend mode="normal" in="SourceGraphic" in2="effect1_dropShadow_96_48" result="shape"/>
</filter>
</defs>
</svg>
