<svg width="174" height="111" viewBox="0 0 174 111" fill="none" xmlns="http://www.w3.org/2000/svg">
<g filter="url(#filter0_d_89_16)">
<rect width="127.264" height="65" rx="19" transform="matrix(-1 0 0 1 142.264 15)" fill="white"/>
</g>
<path d="M149.633 81.5041L138.855 64.6689L126.096 75.2241L149.633 81.5041Z" fill="white"/>
<g filter="url(#filter1_d_89_16)">
<path d="M44.556 47.176V44.849C44.556 44.5197 44.5863 44.2553 44.647 44.056C44.7076 43.848 44.79 43.679 44.894 43.549C44.998 43.419 45.1106 43.3107 45.232 43.224L45.219 43.172H42.957L43.256 42.262H46.922V43.172C46.6013 43.172 46.3196 43.276 46.077 43.484C45.8343 43.692 45.713 44.0733 45.713 44.628V47.176H44.556ZM45.973 53.13C45.739 53.13 45.5136 53.091 45.297 53.013C45.0803 52.935 44.9026 52.7963 44.764 52.597C44.6253 52.3977 44.556 52.1203 44.556 51.765V45.876H45.713V51.622C45.713 51.8213 45.7563 51.9643 45.843 52.051C45.9296 52.1377 46.0683 52.181 46.259 52.181C46.337 52.181 46.4193 52.1723 46.506 52.155C46.5926 52.1377 46.675 52.116 46.753 52.09L46.909 52.935C46.7443 53.013 46.584 53.065 46.428 53.091C46.272 53.117 46.1203 53.13 45.973 53.13ZM50.0023 53.13C49.4909 53.13 49.0143 53.0823 48.5723 52.987C48.1389 52.883 47.7706 52.7617 47.4673 52.623L47.8053 51.687C47.9873 51.7563 48.1953 51.83 48.4293 51.908C48.6633 51.986 48.9146 52.051 49.1833 52.103C49.4606 52.1463 49.7423 52.168 50.0283 52.168C50.4876 52.168 50.8689 52.0813 51.1723 51.908C51.4756 51.7347 51.6273 51.4833 51.6273 51.154C51.6273 50.9547 51.5709 50.7857 51.4583 50.647C51.3543 50.4997 51.1896 50.3653 50.9643 50.244C50.7389 50.1227 50.4486 50.0057 50.0933 49.893C49.5473 49.7197 49.0836 49.5377 48.7023 49.347C48.3296 49.1477 48.0436 48.9137 47.8443 48.645C47.6536 48.3677 47.5583 48.0253 47.5583 47.618C47.5583 47.254 47.6536 46.9333 47.8443 46.656C48.0436 46.37 48.3469 46.149 48.7543 45.993C49.1703 45.8283 49.6989 45.746 50.3403 45.746C50.7563 45.746 51.1463 45.785 51.5103 45.863C51.8829 45.9323 52.1733 46.032 52.3813 46.162V47.137C52.2339 47.0677 52.0476 46.9983 51.8223 46.929C51.6056 46.8597 51.3673 46.8033 51.1073 46.76C50.8473 46.7167 50.5786 46.695 50.3013 46.695C49.7206 46.695 49.3089 46.786 49.0663 46.968C48.8323 47.1413 48.7153 47.3407 48.7153 47.566C48.7153 47.7567 48.7673 47.917 48.8713 48.047C48.9839 48.177 49.1703 48.3027 49.4303 48.424C49.6989 48.5453 50.0586 48.684 50.5093 48.84C50.9253 48.9787 51.3066 49.139 51.6533 49.321C51.9999 49.503 52.2729 49.7327 52.4723 50.01C52.6803 50.2787 52.7843 50.6253 52.7843 51.05C52.7843 51.414 52.6933 51.7563 52.5113 52.077C52.3379 52.389 52.0476 52.6447 51.6403 52.844C51.2329 53.0347 50.6869 53.13 50.0023 53.13ZM49.1457 44.745V44.173C49.319 44.1383 49.4967 44.0907 49.6787 44.03C49.8607 43.9607 50.0124 43.874 50.1337 43.77C50.255 43.6573 50.3157 43.523 50.3157 43.367C50.3157 43.263 50.2854 43.1763 50.2247 43.107C50.1554 43.029 50.0514 42.99 49.9127 42.99C49.826 42.99 49.7394 43.0073 49.6527 43.042C49.5574 43.0767 49.475 43.107 49.4057 43.133L49.1457 42.418C49.319 42.2793 49.514 42.1883 49.7307 42.145C49.9387 42.1017 50.1077 42.08 50.2377 42.08C50.5844 42.08 50.8574 42.1753 51.0567 42.366C51.2474 42.5567 51.3427 42.7993 51.3427 43.094C51.3427 43.3367 51.282 43.549 51.1607 43.731C51.0307 43.9043 50.8834 44.043 50.7187 44.147L50.5887 43.835H53.1757V44.745H49.1457ZM55.9599 53.13C55.7259 53.13 55.5006 53.091 55.2839 53.013C55.0673 52.935 54.8896 52.7963 54.7509 52.597C54.6123 52.3977 54.5429 52.1203 54.5429 51.765V45.876H55.6999V51.622C55.6999 51.8213 55.7433 51.9643 55.8299 52.051C55.9166 52.1377 56.0553 52.181 56.2459 52.181C56.3239 52.181 56.4063 52.1723 56.4929 52.155C56.5796 52.1377 56.6619 52.116 56.7399 52.09L56.8959 52.935C56.7313 53.013 56.5709 53.065 56.4149 53.091C56.2589 53.117 56.1073 53.13 55.9599 53.13ZM59.5089 53.13C59.2749 53.13 59.0496 53.091 58.8329 53.013C58.6163 52.935 58.4386 52.7963 58.2999 52.597C58.1613 52.3977 58.0919 52.1203 58.0919 51.765V45.876H59.2489V51.622C59.2489 51.8213 59.2923 51.9643 59.3789 52.051C59.4656 52.1377 59.6043 52.181 59.7949 52.181C59.8729 52.181 59.9553 52.1723 60.0419 52.155C60.1286 52.1377 60.2109 52.116 60.2889 52.09L60.4449 52.935C60.2803 53.013 60.1199 53.065 59.9639 53.091C59.8079 53.117 59.6563 53.13 59.5089 53.13ZM64.1316 53.13C63.1956 53.13 62.4936 52.8873 62.0256 52.402C61.5663 51.908 61.3366 51.1367 61.3366 50.088C61.3366 49.9147 61.341 49.7283 61.3496 49.529C61.367 49.321 61.3843 49.1173 61.4016 48.918H64.1316V49.828H62.4936V50.088C62.4936 50.634 62.5543 51.063 62.6756 51.375C62.797 51.6783 62.9746 51.8907 63.2086 52.012C63.4513 52.1333 63.7503 52.194 64.1056 52.194C64.4956 52.194 64.8336 52.1203 65.1196 51.973C65.4056 51.8257 65.6266 51.557 65.7826 51.167C65.9386 50.777 66.0166 50.218 66.0166 49.49C66.0166 48.8487 65.9473 48.3243 65.8086 47.917C65.67 47.5097 65.4403 47.2063 65.1196 47.007C64.8076 46.8077 64.383 46.708 63.8456 46.708C63.5683 46.708 63.2996 46.734 63.0396 46.786C62.7796 46.8293 62.5283 46.8987 62.2856 46.994C62.043 47.0807 61.8046 47.1933 61.5706 47.332V46.253C61.744 46.1577 61.9563 46.0753 62.2076 46.006C62.459 45.928 62.7363 45.8673 63.0396 45.824C63.343 45.772 63.6593 45.746 63.9886 45.746C64.7513 45.746 65.3666 45.902 65.8346 46.214C66.3113 46.5173 66.658 46.9507 66.8746 47.514C67.0913 48.0687 67.1996 48.7273 67.1996 49.49C67.1996 50.2527 67.1 50.907 66.9006 51.453C66.7013 51.999 66.3763 52.415 65.9256 52.701C65.4836 52.987 64.8856 53.13 64.1316 53.13ZM73.2475 53V48.255C73.2475 47.6917 73.1175 47.293 72.8575 47.059C72.6062 46.8163 72.1815 46.695 71.5835 46.695C71.1502 46.695 70.7342 46.7557 70.3355 46.877C69.9455 46.9897 69.5728 47.15 69.2175 47.358V46.279C69.4688 46.149 69.8068 46.0277 70.2315 45.915C70.6648 45.8023 71.1502 45.746 71.6875 45.746C72.1468 45.746 72.5455 45.798 72.8835 45.902C73.2215 45.9973 73.4988 46.1447 73.7155 46.344C73.9408 46.5433 74.1098 46.799 74.2225 47.111C74.3352 47.4143 74.3915 47.774 74.3915 48.19V53H73.2475ZM71.0115 53.13C70.2488 53.13 69.6638 52.9567 69.2565 52.61C68.8578 52.2547 68.6585 51.7477 68.6585 51.089C68.6585 50.3697 68.9185 49.815 69.4385 49.425C69.9672 49.035 70.8208 48.8053 71.9995 48.736L73.4815 48.645V49.607L72.1555 49.698C71.2715 49.7587 70.6605 49.8973 70.3225 50.114C69.9932 50.3307 69.8285 50.647 69.8285 51.063C69.8285 51.453 69.9498 51.739 70.1925 51.921C70.4438 52.103 70.7905 52.194 71.2325 52.194C71.3798 52.194 71.5142 52.1853 71.6355 52.168C71.7568 52.142 71.8738 52.1117 71.9865 52.077L72.1685 52.948C72.0038 53.0087 71.8218 53.052 71.6225 53.078C71.4318 53.1127 71.2282 53.13 71.0115 53.13ZM76.4362 53V50.53C76.4362 49.984 76.5576 49.5897 76.8002 49.347C77.0429 49.0957 77.3506 48.9223 77.7232 48.827L77.7362 48.788L76.3062 48.242V47.813C76.3062 47.4577 76.4232 47.124 76.6572 46.812C76.8912 46.4913 77.2249 46.2357 77.6582 46.045C78.1002 45.8457 78.6246 45.746 79.2312 45.746C79.7599 45.746 80.2496 45.8327 80.7002 46.006C81.1509 46.1707 81.5106 46.435 81.7792 46.799C82.0566 47.1543 82.1952 47.6223 82.1952 48.203V53H81.0382V48.32C81.0382 47.7393 80.8606 47.3277 80.5052 47.085C80.1586 46.8337 79.7296 46.708 79.2182 46.708C78.6896 46.708 78.2692 46.8207 77.9572 47.046C77.6452 47.2627 77.4892 47.54 77.4892 47.878L78.8932 48.58L78.7892 49.204C78.4686 49.204 78.1869 49.3123 77.9442 49.529C77.7102 49.737 77.5932 50.0707 77.5932 50.53V53H76.4362ZM86.8182 53.13C85.8822 53.13 85.1802 52.8873 84.7122 52.402C84.2528 51.908 84.0232 51.1367 84.0232 50.088C84.0232 49.9147 84.0275 49.7283 84.0362 49.529C84.0535 49.321 84.0708 49.1173 84.0882 48.918H86.8182V49.828H85.1802V50.088C85.1802 50.634 85.2408 51.063 85.3622 51.375C85.4835 51.6783 85.6612 51.8907 85.8952 52.012C86.1378 52.1333 86.4368 52.194 86.7922 52.194C87.1822 52.194 87.5202 52.1203 87.8062 51.973C88.0922 51.8257 88.3132 51.557 88.4692 51.167C88.6252 50.777 88.7032 50.218 88.7032 49.49C88.7032 48.8487 88.6338 48.3243 88.4952 47.917C88.3565 47.5097 88.1268 47.2063 87.8062 47.007C87.4942 46.8077 87.0695 46.708 86.5322 46.708C86.2548 46.708 85.9862 46.734 85.7262 46.786C85.4662 46.8293 85.2148 46.8987 84.9722 46.994C84.7295 47.0807 84.4912 47.1933 84.2572 47.332V46.253C84.4305 46.1577 84.6428 46.0753 84.8942 46.006C85.1455 45.928 85.4228 45.8673 85.7262 45.824C86.0295 45.772 86.3458 45.746 86.6752 45.746C87.4378 45.746 88.0532 45.902 88.5212 46.214C88.9978 46.5173 89.3445 46.9507 89.5612 47.514C89.7778 48.0687 89.8862 48.7273 89.8862 49.49C89.8862 50.2527 89.7865 50.907 89.5872 51.453C89.3878 51.999 89.0628 52.415 88.6122 52.701C88.1702 52.987 87.5722 53.13 86.8182 53.13ZM94.283 53.13C93.347 53.13 92.645 52.8873 92.177 52.402C91.7177 51.908 91.488 51.1367 91.488 50.088C91.488 49.9147 91.4923 49.7283 91.501 49.529C91.5183 49.321 91.5357 49.1173 91.553 48.918H94.283V49.828H92.645V50.088C92.645 50.634 92.7057 51.063 92.827 51.375C92.9483 51.6783 93.126 51.8907 93.36 52.012C93.6027 52.1333 93.9017 52.194 94.257 52.194C94.647 52.194 94.985 52.1203 95.271 51.973C95.557 51.8257 95.778 51.557 95.934 51.167C96.09 50.777 96.168 50.218 96.168 49.49C96.168 48.8487 96.0943 48.3243 95.947 47.917C95.8083 47.5097 95.5787 47.2063 95.258 47.007C94.946 46.8077 94.5257 46.708 93.997 46.708C93.581 46.708 93.1823 46.76 92.801 46.864C92.4283 46.968 92.0687 47.124 91.722 47.332V46.253C91.8953 46.1577 92.1077 46.0753 92.359 46.006C92.6103 45.928 92.8877 45.8673 93.191 45.824C93.4943 45.772 93.8107 45.746 94.14 45.746C94.5993 45.746 95.0067 45.811 95.362 45.941C95.726 46.0623 96.0293 46.2703 96.272 46.565C96.662 46.8163 96.9393 47.1977 97.104 47.709C97.2687 48.2203 97.351 48.8183 97.351 49.503C97.351 50.2657 97.2513 50.92 97.052 51.466C96.8527 52.0033 96.5277 52.415 96.077 52.701C95.635 52.987 95.037 53.13 94.283 53.13ZM96.246 46.877L95.596 46.266C95.8213 46.2313 96.0337 46.1447 96.233 46.006C96.4323 45.8673 96.532 45.668 96.532 45.408H97.663C97.663 45.6767 97.598 45.915 97.468 46.123C97.3467 46.3223 97.1777 46.487 96.961 46.617C96.7443 46.7383 96.506 46.825 96.246 46.877ZM101.557 53.13C100.621 53.13 99.9194 52.8873 99.4514 52.402C98.9921 51.908 98.7624 51.1367 98.7624 50.088C98.7624 49.9147 98.7668 49.7283 98.7754 49.529C98.7928 49.321 98.8101 49.1173 98.8274 48.918H101.557V49.828H99.9194V50.088C99.9194 50.634 99.9801 51.063 100.101 51.375C100.223 51.6783 100.4 51.8907 100.634 52.012C100.877 52.1333 101.176 52.194 101.531 52.194C101.921 52.194 102.259 52.1203 102.545 51.973C102.831 51.8257 103.052 51.557 103.208 51.167C103.364 50.777 103.442 50.218 103.442 49.49C103.442 48.8487 103.373 48.3243 103.234 47.917C103.096 47.5097 102.866 47.2063 102.545 47.007C102.233 46.8077 101.809 46.708 101.271 46.708C100.994 46.708 100.725 46.734 100.465 46.786C100.205 46.8293 99.9541 46.8987 99.7114 46.994C99.4688 47.0807 99.2304 47.1933 98.9964 47.332V46.253C99.1698 46.1577 99.3821 46.0753 99.6334 46.006C99.8848 45.928 100.162 45.8673 100.465 45.824C100.769 45.772 101.085 45.746 101.414 45.746C102.177 45.746 102.792 45.902 103.26 46.214C103.737 46.5173 104.084 46.9507 104.3 47.514C104.517 48.0687 104.625 48.7273 104.625 49.49C104.625 50.2527 104.526 50.907 104.326 51.453C104.127 51.999 103.802 52.415 103.351 52.701C102.909 52.987 102.311 53.13 101.557 53.13ZM110.673 53V48.255C110.673 47.6917 110.543 47.293 110.283 47.059C110.032 46.8163 109.607 46.695 109.009 46.695C108.576 46.695 108.16 46.7557 107.761 46.877C107.371 46.9897 106.999 47.15 106.643 47.358V46.279C106.895 46.149 107.233 46.0277 107.657 45.915C108.091 45.8023 108.576 45.746 109.113 45.746C109.573 45.746 109.971 45.798 110.309 45.902C110.647 45.9973 110.925 46.1447 111.141 46.344C111.367 46.5433 111.536 46.799 111.648 47.111C111.761 47.4143 111.817 47.774 111.817 48.19V53H110.673ZM108.437 53.13C107.675 53.13 107.09 52.9567 106.682 52.61C106.284 52.2547 106.084 51.7477 106.084 51.089C106.084 50.3697 106.344 49.815 106.864 49.425C107.393 49.035 108.247 48.8053 109.425 48.736L110.907 48.645V49.607L109.581 49.698C108.697 49.7587 108.086 49.8973 107.748 50.114C107.419 50.3307 107.254 50.647 107.254 51.063C107.254 51.453 107.376 51.739 107.618 51.921C107.87 52.103 108.216 52.194 108.658 52.194C108.806 52.194 108.94 52.1853 109.061 52.168C109.183 52.142 109.3 52.1117 109.412 52.077L109.594 52.948C109.43 53.0087 109.248 53.052 109.048 53.078C108.858 53.1127 108.654 53.13 108.437 53.13ZM109.496 45.122C109.435 45.0267 109.388 44.9053 109.353 44.758C109.31 44.602 109.288 44.4503 109.288 44.303C109.288 44.121 109.327 43.952 109.405 43.796C109.483 43.6313 109.622 43.497 109.821 43.393C110.02 43.289 110.298 43.237 110.653 43.237H112.434V44.134H110.952C110.779 44.134 110.64 44.1687 110.536 44.238C110.432 44.2987 110.38 44.407 110.38 44.563C110.38 44.6237 110.393 44.6887 110.419 44.758C110.436 44.8273 110.462 44.8967 110.497 44.966L109.496 45.122Z" fill="#1A2A40"/>
</g>
<defs>
<filter id="filter0_d_89_16" x="0" y="0" width="173.264" height="111" filterUnits="userSpaceOnUse" color-interpolation-filters="sRGB">
<feFlood flood-opacity="0" result="BackgroundImageFix"/>
<feColorMatrix in="SourceAlpha" type="matrix" values="0 0 0 0 0 0 0 0 0 0 0 0 0 0 0 0 0 0 127 0" result="hardAlpha"/>
<feOffset dx="8" dy="8"/>
<feGaussianBlur stdDeviation="11.5"/>
<feComposite in2="hardAlpha" operator="out"/>
<feColorMatrix type="matrix" values="0 0 0 0 0 0 0 0 0 0 0 0 0 0 0 0 0 0 0.25 0"/>
<feBlend mode="normal" in2="BackgroundImageFix" result="effect1_dropShadow_89_16"/>
<feBlend mode="normal" in="SourceGraphic" in2="effect1_dropShadow_89_16" result="shape"/>
</filter>
<filter id="filter1_d_89_16" x="42.957" y="42.0801" width="81.3771" height="22.9498" filterUnits="userSpaceOnUse" color-interpolation-filters="sRGB">
<feFlood flood-opacity="0" result="BackgroundImageFix"/>
<feColorMatrix in="SourceAlpha" type="matrix" values="0 0 0 0 0 0 0 0 0 0 0 0 0 0 0 0 0 0 127 0" result="hardAlpha"/>
<feOffset dx="6" dy="6"/>
<feGaussianBlur stdDeviation="2.95"/>
<feComposite in2="hardAlpha" operator="out"/>
<feColorMatrix type="matrix" values="0 0 0 0 0 0 0 0 0 0 0 0 0 0 0 0 0 0 0.25 0"/>
<feBlend mode="normal" in2="BackgroundImageFix" result="effect1_dropShadow_89_16"/>
<feBlend mode="normal" in="SourceGraphic" in2="effect1_dropShadow_89_16" result="shape"/>
</filter>
</defs>
</svg>
