<svg width="205" height="125" viewBox="0 0 205 125" fill="none" xmlns="http://www.w3.org/2000/svg">
<g filter="url(#filter0_d_89_15)">
<rect x="173.632" y="94" width="158.632" height="78.7899" rx="19" transform="rotate(180 173.632 94)" fill="white"/>
</g>
<path d="M182.818 13.3869L169.383 33.7937L153.478 20.9992L182.818 13.3869Z" fill="white"/>
<g filter="url(#filter1_d_89_15)">
<path d="M48.2353 43V38.255C48.2353 37.6917 48.1053 37.293 47.8453 37.059C47.5939 36.8163 47.1693 36.695 46.5713 36.695C46.1379 36.695 45.7219 36.7557 45.3233 36.877C44.9333 36.9897 44.5606 37.15 44.2053 37.358V36.279C44.4566 36.149 44.7946 36.0277 45.2193 35.915C45.6526 35.8023 46.1379 35.746 46.6753 35.746C47.1346 35.746 47.5333 35.798 47.8713 35.902C48.2093 35.9973 48.4866 36.1447 48.7033 36.344C48.9286 36.5433 49.0976 36.799 49.2103 37.111C49.3229 37.4143 49.3793 37.774 49.3793 38.19V43H48.2353ZM45.9993 43.13C45.2366 43.13 44.6516 42.9567 44.2443 42.61C43.8456 42.2547 43.6463 41.7477 43.6463 41.089C43.6463 40.3697 43.9063 39.815 44.4263 39.425C44.9549 39.035 45.8086 38.8053 46.9873 38.736L48.4693 38.645V39.607L47.1433 39.698C46.2593 39.7587 45.6483 39.8973 45.3103 40.114C44.9809 40.3307 44.8163 40.647 44.8163 41.063C44.8163 41.453 44.9376 41.739 45.1803 41.921C45.4316 42.103 45.7783 42.194 46.2203 42.194C46.3676 42.194 46.5019 42.1853 46.6233 42.168C46.7446 42.142 46.8616 42.1117 46.9743 42.077L47.1563 42.948C46.9916 43.0087 46.8096 43.052 46.6103 43.078C46.4196 43.1127 46.2159 43.13 45.9993 43.13ZM53.92 43.13C53.2267 43.13 52.6807 42.9697 52.282 42.649C51.892 42.3197 51.6147 41.8777 51.45 41.323C51.294 40.7683 51.216 40.1573 51.216 39.49C51.216 38.7533 51.2897 38.1467 51.437 37.67C51.593 37.1847 51.8097 36.8033 52.087 36.526C52.373 36.24 52.711 36.0407 53.101 35.928C53.4997 35.8067 53.9374 35.746 54.414 35.746C55.1074 35.746 55.6707 35.85 56.104 36.058C56.546 36.2573 56.871 36.5433 57.079 36.916C57.287 37.2887 57.391 37.735 57.391 38.255V43H56.247V38.359C56.247 37.8217 56.1127 37.4143 55.844 37.137C55.5754 36.851 55.1117 36.708 54.453 36.708C54.0544 36.708 53.6947 36.7817 53.374 36.929C53.062 37.0763 52.815 37.3493 52.633 37.748C52.4597 38.1467 52.373 38.7317 52.373 39.503C52.373 40.0057 52.4207 40.4607 52.516 40.868C52.62 41.2667 52.7977 41.583 53.049 41.817C53.3004 42.051 53.6514 42.168 54.102 42.168C54.232 42.168 54.3534 42.1593 54.466 42.142C54.5787 42.1247 54.687 42.0987 54.791 42.064L54.908 42.961C54.7694 43.0217 54.609 43.065 54.427 43.091C54.2537 43.117 54.0847 43.13 53.92 43.13ZM61.1118 43.13C60.8778 43.13 60.6524 43.091 60.4358 43.013C60.2191 42.935 60.0414 42.7963 59.9028 42.597C59.7641 42.3977 59.6948 42.1203 59.6948 41.765V35.876H60.8518V41.622C60.8518 41.8213 60.8951 41.9643 60.9818 42.051C61.0684 42.1377 61.2071 42.181 61.3978 42.181C61.4758 42.181 61.5581 42.1723 61.6448 42.155C61.7314 42.1377 61.8138 42.116 61.8918 42.09L62.0478 42.935C61.8831 43.013 61.7228 43.065 61.5668 43.091C61.4108 43.117 61.2591 43.13 61.1118 43.13ZM64.6608 43.13C64.4268 43.13 64.2014 43.091 63.9848 43.013C63.7681 42.935 63.5904 42.7963 63.4518 42.597C63.3131 42.3977 63.2438 42.1203 63.2438 41.765V35.876H64.4008V41.622C64.4008 41.8213 64.4441 41.9643 64.5308 42.051C64.6174 42.1377 64.7561 42.181 64.9468 42.181C65.0248 42.181 65.1071 42.1723 65.1938 42.155C65.2804 42.1377 65.3628 42.116 65.4408 42.09L65.5968 42.935C65.4321 43.013 65.2718 43.065 65.1158 43.091C64.9598 43.117 64.8081 43.13 64.6608 43.13ZM69.6088 43.13C68.5861 43.13 67.8538 42.896 67.4118 42.428C66.9698 41.96 66.7488 41.2927 66.7488 40.426V35.876H67.9058V40.439C67.9058 41.0197 68.0445 41.453 68.3218 41.739C68.5991 42.025 69.0281 42.168 69.6088 42.168C70.1981 42.168 70.6315 42.025 70.9088 41.739C71.1948 41.453 71.3378 41.0197 71.3378 40.439V35.876H72.4948V40.426C72.4948 41.2927 72.2695 41.96 71.8188 42.428C71.3768 42.896 70.6401 43.13 69.6088 43.13ZM74.5945 43V38.45C74.5945 37.5747 74.8285 36.9073 75.2965 36.448C75.7645 35.98 76.5098 35.746 77.5325 35.746C78.5638 35.746 79.3092 35.98 79.7685 36.448C80.2365 36.9073 80.4705 37.5747 80.4705 38.45V43H79.3135V38.45C79.3135 37.8693 79.1618 37.436 78.8585 37.15C78.5552 36.8553 78.1088 36.708 77.5195 36.708C76.9388 36.708 76.4968 36.8553 76.1935 37.15C75.8988 37.436 75.7515 37.8693 75.7515 38.45V39.893L75.7905 39.906C75.9812 39.568 76.2152 39.347 76.4925 39.243C76.7698 39.1303 77.1598 39.074 77.6625 39.074H78.0915V40.023H77.6625C77.1338 40.023 76.7308 40.0967 76.4535 40.244C76.1848 40.3913 75.9985 40.5863 75.8945 40.829C75.7992 41.063 75.7515 41.3273 75.7515 41.622V43H74.5945ZM82.6189 43V35.876H83.4249L83.6329 37.007H83.6849C83.8322 36.617 84.1009 36.3093 84.4909 36.084C84.8809 35.8587 85.3532 35.746 85.9079 35.746C86.4279 35.746 86.8699 35.837 87.2339 36.019C87.6065 36.1923 87.8925 36.461 88.0919 36.825C88.2912 37.189 88.3909 37.6613 88.3909 38.242V43H87.2339V38.307C87.2339 37.787 87.1039 37.3927 86.8439 37.124C86.5839 36.8553 86.1982 36.721 85.6869 36.721C85.2795 36.721 84.9329 36.8163 84.6469 37.007C84.3609 37.1977 84.1442 37.4577 83.9969 37.787C83.8495 38.1077 83.7759 38.4717 83.7759 38.879V43H82.6189ZM82.7286 34.745V34.238L83.6776 33.822H88.2536V34.745H82.7286ZM87.1746 34.238V32.769H88.2666V34.238H87.1746ZM92.1137 43.13C91.8797 43.13 91.6544 43.091 91.4377 43.013C91.2211 42.935 91.0434 42.7963 90.9047 42.597C90.7661 42.3977 90.6967 42.1203 90.6967 41.765V35.876H91.8537V41.622C91.8537 41.8213 91.8971 41.9643 91.9837 42.051C92.0704 42.1377 92.2091 42.181 92.3997 42.181C92.4777 42.181 92.5601 42.1723 92.6467 42.155C92.7334 42.1377 92.8157 42.116 92.8937 42.09L93.0497 42.935C92.8851 43.013 92.7247 43.065 92.5687 43.091C92.4127 43.117 92.2611 43.13 92.1137 43.13ZM96.2108 43.13C95.6994 43.13 95.2228 43.0823 94.7808 42.987C94.3474 42.883 93.9791 42.7617 93.6758 42.623L94.0138 41.687C94.1958 41.7563 94.4038 41.83 94.6378 41.908C94.8718 41.986 95.1231 42.051 95.3918 42.103C95.6691 42.1463 95.9508 42.168 96.2368 42.168C96.6961 42.168 97.0774 42.0813 97.3808 41.908C97.6841 41.7347 97.8358 41.4833 97.8358 41.154C97.8358 40.9547 97.7794 40.7857 97.6668 40.647C97.5628 40.4997 97.3981 40.3653 97.1728 40.244C96.9474 40.1227 96.6571 40.0057 96.3018 39.893C95.7558 39.7197 95.2921 39.5377 94.9108 39.347C94.5381 39.1477 94.2521 38.9137 94.0528 38.645C93.8621 38.3677 93.7668 38.0253 93.7668 37.618C93.7668 37.254 93.8621 36.9333 94.0528 36.656C94.2521 36.37 94.5554 36.149 94.9628 35.993C95.3788 35.8283 95.9074 35.746 96.5488 35.746C96.9648 35.746 97.3548 35.785 97.7188 35.863C98.0914 35.9323 98.3818 36.032 98.5898 36.162V37.137C98.4424 37.0677 98.2561 36.9983 98.0308 36.929C97.8141 36.8597 97.5758 36.8033 97.3158 36.76C97.0558 36.7167 96.7871 36.695 96.5098 36.695C95.9291 36.695 95.5174 36.786 95.2748 36.968C95.0408 37.1413 94.9238 37.3407 94.9238 37.566C94.9238 37.7567 94.9758 37.917 95.0798 38.047C95.1924 38.177 95.3788 38.3027 95.6388 38.424C95.9074 38.5453 96.2671 38.684 96.7178 38.84C97.1338 38.9787 97.5151 39.139 97.8618 39.321C98.2084 39.503 98.4814 39.7327 98.6808 40.01C98.8888 40.2787 98.9928 40.6253 98.9928 41.05C98.9928 41.414 98.9018 41.7563 98.7198 42.077C98.5464 42.389 98.2561 42.6447 97.8488 42.844C97.4414 43.0347 96.8954 43.13 96.2108 43.13ZM93.4562 34.745V34.238L94.4052 33.822H98.9812V34.745H93.4562ZM97.9022 34.238V32.769H98.9942V34.238H97.9022ZM103.299 43.117C102.597 43.117 102.034 43.026 101.609 42.844C101.193 42.662 100.89 42.4063 100.699 42.077C100.517 41.7477 100.426 41.3577 100.426 40.907C100.426 40.5083 100.483 40.192 100.595 39.958C100.717 39.7153 100.864 39.5377 101.037 39.425C101.219 39.3123 101.406 39.2387 101.596 39.204V39.152C101.423 39.1 101.241 39.0133 101.05 38.892C100.86 38.7707 100.699 38.6017 100.569 38.385C100.448 38.1683 100.387 37.8953 100.387 37.566C100.387 37.2627 100.457 36.9767 100.595 36.708C100.734 36.4393 100.959 36.2183 101.271 36.045C101.583 35.8717 101.995 35.785 102.506 35.785C102.714 35.785 102.931 35.8023 103.156 35.837C103.382 35.863 103.555 35.9107 103.676 35.98L103.468 36.877C103.373 36.8423 103.247 36.812 103.091 36.786C102.944 36.7513 102.788 36.734 102.623 36.734C102.259 36.734 101.991 36.8207 101.817 36.994C101.644 37.1587 101.557 37.3797 101.557 37.657C101.557 37.9603 101.631 38.19 101.778 38.346C101.934 38.502 102.129 38.6103 102.363 38.671C102.606 38.723 102.857 38.749 103.117 38.749H103.364V39.594H103.117C102.597 39.594 102.212 39.6893 101.96 39.88C101.718 40.062 101.596 40.3697 101.596 40.803C101.596 41.0543 101.644 41.284 101.739 41.492C101.843 41.7 102.017 41.8647 102.259 41.986C102.511 42.1073 102.857 42.168 103.299 42.168C103.741 42.168 104.084 42.1073 104.326 41.986C104.578 41.8647 104.755 41.6913 104.859 41.466C104.963 41.232 105.015 40.9547 105.015 40.634V35.876H106.172V40.556C106.172 41.466 105.938 42.1203 105.47 42.519C105.011 42.9177 104.287 43.117 103.299 43.117ZM113.137 43.13C112.903 43.13 112.678 43.091 112.461 43.013C112.245 42.935 112.067 42.7963 111.928 42.597C111.79 42.3977 111.72 42.1203 111.72 41.765V35.876H112.877V41.622C112.877 41.8213 112.921 41.9643 113.007 42.051C113.094 42.1377 113.233 42.181 113.423 42.181C113.501 42.181 113.584 42.1723 113.67 42.155C113.757 42.1377 113.839 42.116 113.917 42.09L114.073 42.935C113.909 43.013 113.748 43.065 113.592 43.091C113.436 43.117 113.285 43.13 113.137 43.13ZM116.971 43.13C116.737 43.13 116.512 43.091 116.295 43.013C116.078 42.935 115.901 42.7963 115.762 42.597C115.623 42.3977 115.554 42.1203 115.554 41.765V35.876H116.711V41.622C116.711 41.8213 116.754 41.9643 116.841 42.051C116.928 42.1377 117.066 42.181 117.257 42.181C117.335 42.181 117.417 42.1723 117.504 42.155C117.591 42.1377 117.673 42.116 117.751 42.09L117.907 42.935C117.742 43.013 117.582 43.065 117.426 43.091C117.27 43.117 117.118 43.13 116.971 43.13ZM123.239 43V38.255C123.239 37.6917 123.109 37.293 122.849 37.059C122.598 36.8163 122.173 36.695 121.575 36.695C121.142 36.695 120.726 36.7557 120.327 36.877C119.937 36.9897 119.565 37.15 119.209 37.358V36.279C119.461 36.149 119.799 36.0277 120.223 35.915C120.657 35.8023 121.142 35.746 121.679 35.746C122.139 35.746 122.537 35.798 122.875 35.902C123.213 35.9973 123.491 36.1447 123.707 36.344C123.933 36.5433 124.102 36.799 124.214 37.111C124.327 37.4143 124.383 37.774 124.383 38.19V43H123.239ZM121.003 43.13C120.241 43.13 119.656 42.9567 119.248 42.61C118.85 42.2547 118.65 41.7477 118.65 41.089C118.65 40.3697 118.91 39.815 119.43 39.425C119.959 39.035 120.813 38.8053 121.991 38.736L123.473 38.645V39.607L122.147 39.698C121.263 39.7587 120.652 39.8973 120.314 40.114C119.985 40.3307 119.82 40.647 119.82 41.063C119.82 41.453 119.942 41.739 120.184 41.921C120.436 42.103 120.782 42.194 121.224 42.194C121.372 42.194 121.506 42.1853 121.627 42.168C121.749 42.142 121.866 42.1117 121.978 42.077L122.16 42.948C121.996 43.0087 121.814 43.052 121.614 43.078C121.424 43.1127 121.22 43.13 121.003 43.13ZM127.429 38.528C127.074 38.528 126.783 38.476 126.558 38.372C126.341 38.2593 126.185 38.1207 126.09 37.956C125.995 37.7827 125.947 37.6007 125.947 37.41C125.947 37.28 125.964 37.1457 125.999 37.007C126.042 36.8683 126.094 36.7513 126.155 36.656L127.13 36.812C127.113 36.8553 127.091 36.916 127.065 36.994C127.048 37.072 127.039 37.15 127.039 37.228C127.039 37.3407 127.069 37.436 127.13 37.514C127.191 37.5833 127.303 37.618 127.468 37.618H129.327V38.528H127.429ZM127.429 42.168C127.074 42.168 126.783 42.116 126.558 42.012C126.341 41.8993 126.185 41.7607 126.09 41.596C125.995 41.4227 125.947 41.2407 125.947 41.05C125.947 40.92 125.964 40.7857 125.999 40.647C126.042 40.5083 126.094 40.3913 126.155 40.296L127.13 40.452C127.113 40.4953 127.091 40.556 127.065 40.634C127.048 40.712 127.039 40.79 127.039 40.868C127.039 40.9807 127.069 41.076 127.13 41.154C127.191 41.2233 127.303 41.258 127.468 41.258H129.327V42.168H127.429ZM133.629 43.117C132.927 43.117 132.363 43.026 131.939 42.844C131.523 42.662 131.219 42.4063 131.029 42.077C130.847 41.7477 130.756 41.3577 130.756 40.907C130.756 40.5083 130.812 40.192 130.925 39.958C131.046 39.7153 131.193 39.5377 131.367 39.425C131.549 39.3123 131.735 39.2387 131.926 39.204V39.152C131.752 39.1 131.57 39.0133 131.38 38.892C131.189 38.7707 131.029 38.6017 130.899 38.385C130.777 38.1683 130.717 37.8953 130.717 37.566C130.717 37.2627 130.786 36.9767 130.925 36.708C131.063 36.4393 131.289 36.2183 131.601 36.045C131.913 35.8717 132.324 35.785 132.836 35.785C133.044 35.785 133.26 35.8023 133.486 35.837C133.711 35.863 133.884 35.9107 134.006 35.98L133.798 36.877C133.702 36.8423 133.577 36.812 133.421 36.786C133.273 36.7513 133.117 36.734 132.953 36.734C132.589 36.734 132.32 36.8207 132.147 36.994C131.973 37.1587 131.887 37.3797 131.887 37.657C131.887 37.9603 131.96 38.19 132.108 38.346C132.264 38.502 132.459 38.6103 132.693 38.671C132.935 38.723 133.187 38.749 133.447 38.749H133.694V39.594H133.447C132.927 39.594 132.541 39.6893 132.29 39.88C132.047 40.062 131.926 40.3697 131.926 40.803C131.926 41.0543 131.973 41.284 132.069 41.492C132.173 41.7 132.346 41.8647 132.589 41.986C132.84 42.1073 133.187 42.168 133.629 42.168C134.071 42.168 134.413 42.1073 134.656 41.986C134.907 41.8647 135.085 41.6913 135.189 41.466C135.293 41.232 135.345 40.9547 135.345 40.634V35.876H136.502V40.556C136.502 41.466 136.268 42.1203 135.8 42.519C135.34 42.9177 134.617 43.117 133.629 43.117ZM130.971 34.745V34.238L131.92 33.822H136.496V34.745H130.971ZM135.417 34.238V32.769H136.509V34.238H135.417ZM142.777 43V38.255C142.777 37.6917 142.647 37.293 142.387 37.059C142.136 36.8163 141.711 36.695 141.113 36.695C140.68 36.695 140.264 36.7557 139.865 36.877C139.475 36.9897 139.103 37.15 138.747 37.358V36.279C138.999 36.149 139.337 36.0277 139.761 35.915C140.195 35.8023 140.68 35.746 141.217 35.746C141.677 35.746 142.067 35.798 142.387 35.902C142.717 36.006 142.959 36.1967 143.115 36.474C143.419 36.6127 143.627 36.8293 143.739 37.124C143.861 37.4187 143.921 37.774 143.921 38.19V43H142.777ZM140.541 43.13C139.779 43.13 139.194 42.9567 138.786 42.61C138.388 42.2547 138.188 41.7477 138.188 41.089C138.188 40.3697 138.448 39.815 138.968 39.425C139.497 39.035 140.351 38.8053 141.529 38.736L143.011 38.645V39.607L141.685 39.698C140.801 39.7587 140.19 39.8973 139.852 40.114C139.523 40.3307 139.358 40.647 139.358 41.063C139.358 41.453 139.48 41.739 139.722 41.921C139.974 42.103 140.32 42.194 140.762 42.194C140.91 42.194 141.044 42.1853 141.165 42.168C141.287 42.142 141.404 42.1117 141.516 42.077L141.698 42.948C141.534 43.0087 141.352 43.052 141.152 43.078C140.962 43.1127 140.758 43.13 140.541 43.13ZM143.076 36.877L142.426 36.266C142.652 36.2313 142.864 36.1447 143.063 36.006C143.263 35.8673 143.362 35.668 143.362 35.408H144.493C144.493 35.6767 144.428 35.915 144.298 36.123C144.177 36.3223 144.008 36.487 143.791 36.617C143.575 36.7383 143.336 36.825 143.076 36.877ZM141.791 35.122C141.73 35.0267 141.682 34.9053 141.648 34.758C141.604 34.602 141.583 34.4503 141.583 34.303C141.583 34.121 141.622 33.952 141.7 33.796C141.778 33.6313 141.916 33.497 142.116 33.393C142.315 33.289 142.592 33.237 142.948 33.237H144.729V34.134H143.247C143.073 34.134 142.935 34.1687 142.831 34.238C142.727 34.2987 142.675 34.407 142.675 34.563C142.675 34.6237 142.688 34.6887 142.714 34.758C142.731 34.8273 142.757 34.8967 142.792 34.966L141.791 35.122ZM30.6901 60.13C29.8754 60.13 29.2514 59.9307 28.8181 59.532C28.3847 59.1333 28.1681 58.5397 28.1681 57.751V56.932C28.1681 56.4207 28.2547 56.0263 28.4281 55.749C28.6014 55.463 28.7964 55.1943 29.0131 54.943C29.1431 54.7957 29.2601 54.6613 29.3641 54.54C29.4681 54.41 29.5244 54.28 29.5331 54.15L29.4941 54.124C29.3987 54.1933 29.2861 54.254 29.1561 54.306C29.0347 54.3493 28.8961 54.371 28.7401 54.371C28.4281 54.371 28.1724 54.267 27.9731 54.059C27.7737 53.8423 27.6741 53.539 27.6741 53.149V52.876H28.6881C28.6881 53.136 28.7184 53.3267 28.7791 53.448C28.8484 53.5607 28.9567 53.617 29.1041 53.617C29.1994 53.617 29.2991 53.5997 29.4031 53.565C29.5071 53.5303 29.6024 53.4783 29.6891 53.409L29.9361 52.876H30.5731V53.461C30.5731 53.7123 30.5644 53.9333 30.5471 54.124C30.5297 54.3147 30.4821 54.501 30.4041 54.683C30.3261 54.8563 30.1961 55.06 30.0141 55.294C29.8841 55.4587 29.7671 55.6103 29.6631 55.749C29.5591 55.879 29.4767 56.0263 29.4161 56.191C29.3554 56.3557 29.3251 56.5723 29.3251 56.841V57.686C29.3251 58.0933 29.3901 58.4053 29.5201 58.622C29.6501 58.8387 29.8191 58.986 30.0271 59.064C30.2351 59.142 30.4561 59.181 30.6901 59.181C31.1407 59.181 31.4874 59.0813 31.7301 58.882C31.9727 58.674 32.0941 58.3577 32.0941 57.933V56.113C32.0941 55.7923 32.0161 55.5497 31.8601 55.385C31.7127 55.2117 31.4744 55.125 31.1451 55.125H31.0931V54.384H31.1581C31.5134 54.384 31.7647 54.3017 31.9121 54.137C32.0594 53.9723 32.1461 53.773 32.1721 53.539C32.2067 53.2963 32.2241 53.0753 32.2241 52.876H33.3811C33.3811 53.3353 33.3204 53.721 33.1991 54.033C33.0777 54.345 32.8264 54.5747 32.4451 54.722V54.774C32.7744 54.8693 32.9911 55.0427 33.0951 55.294C33.1991 55.5453 33.2511 55.8573 33.2511 56.23V57.998C33.2511 58.6653 33.0301 59.1897 32.5881 59.571C32.1461 59.9437 31.5134 60.13 30.6901 60.13ZM27.9865 51.745V51.238L28.9355 50.822H31.5225L31.3535 51.147C31.3101 51.0517 31.2841 50.965 31.2755 50.887C31.2581 50.8003 31.2495 50.731 31.2495 50.679C31.2495 50.3583 31.3578 50.0983 31.5745 49.899C31.7825 49.6997 32.0728 49.6 32.4455 49.6C32.8268 49.6 33.1301 49.704 33.3555 49.912C33.5721 50.1113 33.6805 50.3713 33.6805 50.692C33.6805 50.9867 33.5808 51.238 33.3815 51.446C33.1821 51.6453 32.8918 51.745 32.5105 51.745H27.9865ZM32.4715 51.186C32.6448 51.186 32.7791 51.1383 32.8745 51.043C32.9698 50.939 33.0175 50.8177 33.0175 50.679C33.0175 50.5317 32.9698 50.4103 32.8745 50.315C32.7705 50.2197 32.6318 50.172 32.4585 50.172C32.2851 50.172 32.1508 50.2197 32.0555 50.315C31.9601 50.4017 31.9125 50.5187 31.9125 50.666C31.9125 50.8047 31.9601 50.926 32.0555 51.03C32.1421 51.134 32.2808 51.186 32.4715 51.186ZM32.0386 49.002V46.883H33.1436V49.002H32.0386ZM36.5487 60L34.3257 52.876H35.4957L37.4197 58.999H37.5757C37.7837 58.999 37.9874 58.9513 38.1867 58.856C38.386 58.752 38.555 58.622 38.6937 58.466C38.9537 58.18 39.1444 57.8203 39.2657 57.387C39.387 56.945 39.4477 56.5117 39.4477 56.087C39.4477 55.3677 39.283 54.8043 38.9537 54.397C38.633 53.981 38.1867 53.773 37.6147 53.773C37.502 53.773 37.3894 53.7817 37.2767 53.799C37.1727 53.8163 37.086 53.838 37.0167 53.864L36.7307 52.941C36.9127 52.889 37.0817 52.8543 37.2377 52.837C37.4024 52.8197 37.5497 52.811 37.6797 52.811C38.113 52.811 38.4987 52.876 38.8367 53.006C39.1834 53.1273 39.478 53.3093 39.7207 53.552C40.024 53.8467 40.245 54.215 40.3837 54.657C40.531 55.099 40.6047 55.5887 40.6047 56.126C40.6047 56.802 40.5007 57.4043 40.2927 57.933C40.0847 58.453 39.8247 58.869 39.5127 59.181C39.2614 59.4323 38.9537 59.6317 38.5897 59.779C38.2257 59.9263 37.762 60 37.1987 60H36.5487ZM43.9731 60.13C43.7391 60.13 43.5138 60.091 43.2971 60.013C43.0804 59.935 42.9028 59.7963 42.7641 59.597C42.6254 59.3977 42.5561 59.1203 42.5561 58.765V52.876H43.7131V58.622C43.7131 58.8213 43.7564 58.9643 43.8431 59.051C43.9298 59.1377 44.0684 59.181 44.2591 59.181C44.3371 59.181 44.4194 59.1723 44.5061 59.155C44.5928 59.1377 44.6751 59.116 44.7531 59.09L44.9091 59.935C44.7444 60.013 44.5841 60.065 44.4281 60.091C44.2721 60.117 44.1204 60.13 43.9731 60.13ZM48.9154 60.13C47.8928 60.13 47.1604 59.896 46.7184 59.428C46.2764 58.96 46.0554 58.2927 46.0554 57.426V52.876H47.2124V57.439C47.2124 58.0197 47.3511 58.453 47.6284 58.739C47.9058 59.025 48.3348 59.168 48.9154 59.168C49.5048 59.168 49.9381 59.025 50.2154 58.739C50.5014 58.453 50.6444 58.0197 50.6444 57.439V50.315H51.8014V57.426C51.8014 58.2927 51.5761 58.96 51.1254 59.428C50.6834 59.896 49.9468 60.13 48.9154 60.13ZM48.7525 51.94C48.5185 51.94 48.3192 51.8923 48.1545 51.797C47.9812 51.693 47.8425 51.5413 47.7385 51.342L47.2965 51.901C46.7939 51.901 46.3995 51.7797 46.1135 51.537C45.8275 51.2857 45.6845 50.926 45.6845 50.458C45.6845 49.964 45.8319 49.6 46.1265 49.366C46.4125 49.1233 46.7462 49.002 47.1275 49.002H49.9095V49.782H47.2965C47.0972 49.782 46.9325 49.8383 46.8025 49.951C46.6639 50.0637 46.5945 50.2457 46.5945 50.497C46.5945 50.679 46.6422 50.8307 46.7375 50.952C46.8329 51.0733 46.9932 51.134 47.2185 51.134L47.7385 50.484H48.0635C48.0722 50.7093 48.1242 50.8827 48.2195 51.004C48.3062 51.1167 48.4319 51.173 48.5965 51.173C48.7439 51.173 48.8652 51.1253 48.9605 51.03C49.0472 50.926 49.0905 50.796 49.0905 50.64V50.484H49.9225V50.666C49.9225 51.0907 49.8185 51.4113 49.6105 51.628C49.3939 51.836 49.1079 51.94 48.7525 51.94ZM56.3835 60.13C55.8722 60.13 55.4302 60.0433 55.0575 59.87C54.6935 59.688 54.4119 59.415 54.2125 59.051C54.0219 58.687 53.9265 58.2147 53.9265 57.634V52.876H55.0835V57.569C55.0835 58.089 55.2135 58.4833 55.4735 58.752C55.7422 59.0207 56.1279 59.155 56.6305 59.155C57.2372 59.155 57.7052 58.96 58.0345 58.57C58.3725 58.18 58.5415 57.6557 58.5415 56.997V52.876H59.6985V60H58.7365L58.6845 58.947H58.6195C58.4635 59.2937 58.1905 59.5797 57.8005 59.805C57.4192 60.0217 56.9469 60.13 56.3835 60.13ZM66.0722 60V55.255C66.0722 54.6917 65.9422 54.293 65.6822 54.059C65.4309 53.8163 65.0062 53.695 64.4082 53.695C63.9749 53.695 63.5589 53.7557 63.1602 53.877C62.7702 53.9897 62.3975 54.15 62.0422 54.358V53.279C62.2935 53.149 62.6315 53.0277 63.0562 52.915C63.4895 52.8023 63.9749 52.746 64.5122 52.746C64.9715 52.746 65.3615 52.798 65.6822 52.902C66.0115 53.006 66.2542 53.1967 66.4102 53.474C66.7135 53.6127 66.9215 53.8293 67.0342 54.124C67.1555 54.4187 67.2162 54.774 67.2162 55.19V60H66.0722ZM63.8362 60.13C63.0735 60.13 62.4885 59.9567 62.0812 59.61C61.6825 59.2547 61.4832 58.7477 61.4832 58.089C61.4832 57.3697 61.7432 56.815 62.2632 56.425C62.7919 56.035 63.6455 55.8053 64.8242 55.736L66.3062 55.645V56.607L64.9802 56.698C64.0962 56.7587 63.4852 56.8973 63.1472 57.114C62.8179 57.3307 62.6532 57.647 62.6532 58.063C62.6532 58.453 62.7745 58.739 63.0172 58.921C63.2685 59.103 63.6152 59.194 64.0572 59.194C64.2045 59.194 64.3389 59.1853 64.4602 59.168C64.5815 59.142 64.6985 59.1117 64.8112 59.077L64.9932 59.948C64.8285 60.0087 64.6465 60.052 64.4472 60.078C64.2565 60.1127 64.0529 60.13 63.8362 60.13ZM66.3712 53.877L65.7212 53.266C65.9465 53.2313 66.1589 53.1447 66.3582 53.006C66.5575 52.8673 66.6572 52.668 66.6572 52.408H67.7882C67.7882 52.6767 67.7232 52.915 67.5932 53.123C67.4719 53.3223 67.3029 53.487 67.0862 53.617C66.8695 53.7383 66.6312 53.825 66.3712 53.877ZM71.3536 60V54.943C71.3536 54.5183 71.254 54.2063 71.0546 54.007C70.864 53.8077 70.539 53.708 70.0796 53.708C69.7676 53.708 69.473 53.7513 69.1956 53.838C68.927 53.916 68.667 54.0287 68.4156 54.176V53.136C68.589 53.0493 68.836 52.9627 69.1566 52.876C69.4773 52.7893 69.8586 52.746 70.3006 52.746C70.7513 52.746 71.1413 52.811 71.4706 52.941C71.8 53.071 72.0556 53.2877 72.2376 53.591C72.4196 53.8857 72.5106 54.28 72.5106 54.774V60H71.3536ZM76.2319 60.13C75.9979 60.13 75.7726 60.091 75.5559 60.013C75.3392 59.935 75.1616 59.7963 75.0229 59.597C74.8842 59.3977 74.8149 59.1203 74.8149 58.765V52.876H75.9719V58.622C75.9719 58.8213 76.0152 58.9643 76.1019 59.051C76.1886 59.1377 76.3272 59.181 76.5179 59.181C76.5959 59.181 76.6782 59.1723 76.7649 59.155C76.8516 59.1377 76.9339 59.116 77.0119 59.09L77.1679 59.935C77.0032 60.013 76.8429 60.065 76.6869 60.091C76.5309 60.117 76.3792 60.13 76.2319 60.13ZM78.5579 60V52.876H79.7149V55.957H79.7539L82.7179 52.876H84.0699V52.915L79.7149 57.322V60H78.5579ZM82.9779 60V57.491C82.9779 56.9797 82.8219 56.581 82.5099 56.295C82.1979 56.009 81.6822 55.866 80.9629 55.866L81.6389 55.021C82.1849 55.021 82.6399 55.1207 83.0039 55.32C83.3765 55.5107 83.6582 55.788 83.8489 56.152C84.0395 56.516 84.1349 56.9537 84.1349 57.465V60H82.9779ZM88.6058 60.13C87.8778 60.13 87.3144 59.9653 86.9158 59.636C86.5171 59.298 86.2398 58.843 86.0838 58.271C85.9278 57.6903 85.8498 57.0317 85.8498 56.295C85.8498 55.4457 85.9278 54.761 86.0838 54.241C86.2484 53.721 86.4868 53.344 86.7988 53.11C87.1108 52.8673 87.4921 52.746 87.9428 52.746C88.2461 52.746 88.5018 52.798 88.7098 52.902C88.9264 53.006 89.0781 53.1793 89.1648 53.422H89.2168C89.3034 53.1707 89.4594 52.9973 89.6848 52.902C89.9101 52.798 90.1744 52.746 90.4778 52.746C91.0411 52.746 91.4744 52.8977 91.7778 53.201C92.0898 53.4957 92.2458 53.9507 92.2458 54.566V60H91.0888V54.579C91.0888 54.241 91.0151 54.0113 90.8678 53.89C90.7204 53.7687 90.5341 53.708 90.3088 53.708C90.0574 53.708 89.8711 53.7687 89.7498 53.89C89.6371 54.0113 89.5678 54.2107 89.5418 54.488H88.8138C88.7791 54.1847 88.6881 53.981 88.5408 53.877C88.3934 53.7643 88.2288 53.708 88.0468 53.708C87.7001 53.708 87.4401 53.9117 87.2668 54.319C87.0934 54.7177 87.0068 55.3807 87.0068 56.308C87.0068 56.906 87.0501 57.4173 87.1368 57.842C87.2321 58.2667 87.4054 58.596 87.6568 58.83C87.9081 59.0553 88.2721 59.168 88.7488 59.168C88.9221 59.168 89.0651 59.1593 89.1778 59.142C89.2904 59.1247 89.3988 59.103 89.5028 59.077L89.6198 59.961C89.4898 60.0217 89.3338 60.065 89.1518 60.091C88.9698 60.117 88.7878 60.13 88.6058 60.13ZM91.2 63.393V62.015C91.2 61.7983 91.1046 61.69 90.914 61.69C90.8706 61.69 90.8273 61.6943 90.784 61.703C90.732 61.7117 90.6843 61.7247 90.641 61.742L90.55 60.962C90.68 60.9187 90.823 60.884 90.979 60.858C91.1263 60.8407 91.2476 60.832 91.343 60.832C91.6463 60.832 91.8716 60.9013 92.019 61.04C92.1576 61.1873 92.227 61.3867 92.227 61.638V63.393H91.2ZM94.4524 60V52.876H95.6094V55.957H95.6484L98.6124 52.876H99.9644V52.915L95.6094 57.322V60H94.4524ZM98.8724 60V57.491C98.8724 56.9797 98.7164 56.581 98.4044 56.295C98.0924 56.009 97.5767 55.866 96.8574 55.866L97.5334 55.021C98.0794 55.021 98.5344 55.1207 98.8984 55.32C99.2711 55.5107 99.5527 55.788 99.7434 56.152C99.9341 56.516 100.029 56.9537 100.029 57.465V60H98.8724ZM106.151 60V55.255C106.151 54.6917 106.021 54.293 105.761 54.059C105.51 53.8163 105.085 53.695 104.487 53.695C104.054 53.695 103.638 53.7557 103.239 53.877C102.849 53.9897 102.477 54.15 102.121 54.358V53.279C102.373 53.149 102.711 53.0277 103.135 52.915C103.569 52.8023 104.054 52.746 104.591 52.746C105.051 52.746 105.449 52.798 105.787 52.902C106.125 52.9973 106.403 53.1447 106.619 53.344C106.845 53.5433 107.014 53.799 107.126 54.111C107.239 54.4143 107.295 54.774 107.295 55.19V60H106.151ZM103.915 60.13C103.153 60.13 102.568 59.9567 102.16 59.61C101.762 59.2547 101.562 58.7477 101.562 58.089C101.562 57.3697 101.822 56.815 102.342 56.425C102.871 56.035 103.725 55.8053 104.903 55.736L106.385 55.645V56.607L105.059 56.698C104.175 56.7587 103.564 56.8973 103.226 57.114C102.897 57.3307 102.732 57.647 102.732 58.063C102.732 58.453 102.854 58.739 103.096 58.921C103.348 59.103 103.694 59.194 104.136 59.194C104.284 59.194 104.418 59.1853 104.539 59.168C104.661 59.142 104.778 59.1117 104.89 59.077L105.072 59.948C104.908 60.0087 104.726 60.052 104.526 60.078C104.336 60.1127 104.132 60.13 103.915 60.13ZM105.455 51.745C105.091 51.745 104.801 51.693 104.584 51.589C104.368 51.485 104.212 51.3507 104.116 51.186C104.012 51.0213 103.96 50.848 103.96 50.666C103.96 50.536 103.982 50.3973 104.025 50.25C104.06 50.094 104.108 49.9683 104.168 49.873L105.143 50.042C105.126 50.0767 105.109 50.1373 105.091 50.224C105.074 50.302 105.065 50.3757 105.065 50.445C105.065 50.5577 105.1 50.6573 105.169 50.744C105.239 50.822 105.356 50.861 105.52 50.861H108.809V51.745H105.455ZM109.34 60V57.53C109.34 56.984 109.461 56.5897 109.704 56.347C109.947 56.0957 110.254 55.9223 110.627 55.827L110.64 55.788L109.21 55.242V54.813C109.21 54.4577 109.327 54.124 109.561 53.812C109.795 53.4913 110.129 53.2357 110.562 53.045C111.004 52.8457 111.528 52.746 112.135 52.746C112.664 52.746 113.153 52.8327 113.604 53.006C114.055 53.1707 114.414 53.435 114.683 53.799C114.96 54.1543 115.099 54.6223 115.099 55.203V60H113.942V55.32C113.942 54.7393 113.764 54.3277 113.409 54.085C113.062 53.8337 112.633 53.708 112.122 53.708C111.593 53.708 111.173 53.8207 110.861 54.046C110.549 54.2627 110.393 54.54 110.393 54.878L111.797 55.58L111.693 56.204C111.372 56.204 111.091 56.3123 110.848 56.529C110.614 56.737 110.497 57.0707 110.497 57.53V60H109.34ZM119.709 60.13C118.894 60.13 118.262 59.935 117.811 59.545C117.369 59.1463 117.148 58.5527 117.148 57.764V56.971C117.148 56.5377 117.209 56.1953 117.33 55.944C117.451 55.6927 117.581 55.476 117.72 55.294C117.867 55.0947 117.993 54.9213 118.097 54.774C118.21 54.6267 118.266 54.449 118.266 54.241C118.266 54.059 118.218 53.929 118.123 53.851C118.036 53.773 117.924 53.734 117.785 53.734C117.681 53.734 117.568 53.7513 117.447 53.786C117.334 53.8207 117.222 53.864 117.109 53.916L116.849 53.084C117.005 52.98 117.196 52.9063 117.421 52.863C117.655 52.8197 117.859 52.798 118.032 52.798C118.353 52.798 118.608 52.8543 118.799 52.967C118.998 53.0797 119.141 53.2357 119.228 53.435C119.315 53.6257 119.358 53.851 119.358 54.111C119.358 54.4317 119.302 54.696 119.189 54.904C119.085 55.112 118.959 55.3157 118.812 55.515C118.665 55.7317 118.543 55.9397 118.448 56.139C118.353 56.3383 118.305 56.5983 118.305 56.919V57.686C118.305 58.0847 118.37 58.3923 118.5 58.609C118.63 58.8257 118.803 58.9773 119.02 59.064C119.237 59.142 119.466 59.181 119.709 59.181C120.142 59.181 120.472 59.0813 120.697 58.882C120.931 58.674 121.048 58.3577 121.048 57.933V52.876H122.205V57.998C122.205 58.6653 121.993 59.1897 121.568 59.571C121.152 59.9437 120.532 60.13 119.709 60.13ZM126.831 60.13C125.895 60.13 125.193 59.8873 124.725 59.402C124.266 58.908 124.036 58.1367 124.036 57.088C124.036 56.9147 124.041 56.7283 124.049 56.529C124.067 56.321 124.084 56.1173 124.101 55.918H126.831V56.828H125.193V57.088C125.193 57.634 125.254 58.063 125.375 58.375C125.497 58.6783 125.674 58.8907 125.908 59.012C126.151 59.1333 126.45 59.194 126.805 59.194C127.195 59.194 127.533 59.1203 127.819 58.973C128.105 58.8257 128.326 58.557 128.482 58.167C128.638 57.777 128.716 57.218 128.716 56.49C128.716 55.8487 128.647 55.3243 128.508 54.917C128.37 54.5097 128.14 54.2063 127.819 54.007C127.507 53.8077 127.083 53.708 126.545 53.708C126.268 53.708 125.999 53.734 125.739 53.786C125.479 53.8293 125.228 53.8987 124.985 53.994C124.743 54.0807 124.504 54.1933 124.27 54.332V53.253C124.444 53.1577 124.656 53.0753 124.907 53.006C125.159 52.928 125.436 52.8673 125.739 52.824C126.043 52.772 126.359 52.746 126.688 52.746C127.451 52.746 128.066 52.902 128.534 53.214C129.011 53.5173 129.358 53.9507 129.574 54.514C129.791 55.0687 129.899 55.7273 129.899 56.49C129.899 57.2527 129.8 57.907 129.6 58.453C129.401 58.999 129.076 59.415 128.625 59.701C128.183 59.987 127.585 60.13 126.831 60.13ZM132.944 60L130.721 52.876H131.891L133.815 58.999H133.971C134.179 58.999 134.383 58.9513 134.582 58.856C134.782 58.752 134.951 58.622 135.089 58.466C135.349 58.18 135.54 57.8203 135.661 57.387C135.783 56.945 135.843 56.5117 135.843 56.087C135.843 55.3677 135.679 54.8043 135.349 54.397C135.029 53.981 134.582 53.773 134.01 53.773C133.898 53.773 133.785 53.7817 133.672 53.799C133.568 53.8163 133.482 53.838 133.412 53.864L133.126 52.941C133.308 52.889 133.477 52.8543 133.633 52.837C133.798 52.8197 133.945 52.811 134.075 52.811C134.509 52.811 134.894 52.876 135.232 53.006C135.579 53.1273 135.874 53.3093 136.116 53.552C136.42 53.8467 136.641 54.215 136.779 54.657C136.927 55.099 137 55.5887 137 56.126C137 56.802 136.896 57.4043 136.688 57.933C136.48 58.453 136.22 58.869 135.908 59.181C135.657 59.4323 135.349 59.6317 134.985 59.779C134.621 59.9263 134.158 60 133.594 60H132.944ZM138.692 60V57.53C138.692 56.984 138.813 56.5897 139.056 56.347C139.298 56.0957 139.606 55.9223 139.979 55.827L139.992 55.788L138.562 55.242V54.813C138.562 54.4577 138.679 54.124 138.913 53.812C139.147 53.4913 139.48 53.2357 139.914 53.045C140.356 52.8457 140.88 52.746 141.487 52.746C142.015 52.746 142.505 52.8327 142.956 53.006C143.406 53.1707 143.766 53.435 144.035 53.799C144.312 54.1543 144.451 54.6223 144.451 55.203V60H143.294V55.32C143.294 54.7393 143.116 54.3277 142.761 54.085C142.414 53.8337 141.985 53.708 141.474 53.708C140.945 53.708 140.525 53.8207 140.213 54.046C139.901 54.2627 139.745 54.54 139.745 54.878L141.149 55.58L141.045 56.204C140.724 56.204 140.442 56.3123 140.2 56.529C139.966 56.737 139.849 57.0707 139.849 57.53V60H138.692ZM150.725 60V55.255C150.725 54.6917 150.595 54.293 150.335 54.059C150.083 53.8163 149.659 53.695 149.061 53.695C148.627 53.695 148.211 53.7557 147.813 53.877C147.423 53.9897 147.05 54.15 146.695 54.358V53.279C146.946 53.149 147.284 53.0277 147.709 52.915C148.142 52.8023 148.627 52.746 149.165 52.746C149.624 52.746 150.023 52.798 150.361 52.902C150.699 52.9973 150.976 53.1447 151.193 53.344C151.418 53.5433 151.587 53.799 151.7 54.111C151.812 54.4143 151.869 54.774 151.869 55.19V60H150.725ZM148.489 60.13C147.726 60.13 147.141 59.9567 146.734 59.61C146.335 59.2547 146.136 58.7477 146.136 58.089C146.136 57.3697 146.396 56.815 146.916 56.425C147.444 56.035 148.298 55.8053 149.477 55.736L150.959 55.645V56.607L149.633 56.698C148.749 56.7587 148.138 56.8973 147.8 57.114C147.47 57.3307 147.306 57.647 147.306 58.063C147.306 58.453 147.427 58.739 147.67 58.921C147.921 59.103 148.268 59.194 148.71 59.194C148.857 59.194 148.991 59.1853 149.113 59.168C149.234 59.142 149.351 59.1117 149.464 59.077L149.646 59.948C149.481 60.0087 149.299 60.052 149.1 60.078C148.909 60.1127 148.705 60.13 148.489 60.13ZM146.154 51.745V51.238L147.103 50.822H151.679V51.745H146.154ZM150.587 49.002V46.883H151.692V49.002H150.587ZM156.435 60.13C155.924 60.13 155.482 60.0433 155.109 59.87C154.745 59.688 154.464 59.415 154.264 59.051C154.074 58.687 153.978 58.2147 153.978 57.634V52.876H155.135V57.569C155.135 58.089 155.265 58.4833 155.525 58.752C155.794 59.0207 156.18 59.155 156.682 59.155C157.289 59.155 157.757 58.96 158.086 58.57C158.424 58.18 158.593 57.6557 158.593 56.997V52.876H159.75V60H158.788L158.736 58.947H158.671C158.515 59.2937 158.242 59.5797 157.852 59.805C157.471 60.0217 156.999 60.13 156.435 60.13ZM60.9432 71.176V68.849C60.9432 68.5197 60.9735 68.2553 61.0342 68.056C61.0949 67.848 61.1772 67.679 61.2812 67.549C61.3852 67.419 61.4979 67.3107 61.6192 67.224L61.6062 67.172H59.3442L59.6432 66.262H63.3092V67.172C62.9885 67.172 62.7069 67.276 62.4642 67.484C62.2215 67.692 62.1002 68.0733 62.1002 68.628V71.176H60.9432ZM62.3602 77.13C62.1262 77.13 61.9009 77.091 61.6842 77.013C61.4675 76.935 61.2899 76.7963 61.1512 76.597C61.0125 76.3977 60.9432 76.1203 60.9432 75.765V69.876H62.1002V75.622C62.1002 75.8213 62.1435 75.9643 62.2302 76.051C62.3169 76.1377 62.4555 76.181 62.6462 76.181C62.7242 76.181 62.8065 76.1723 62.8932 76.155C62.9799 76.1377 63.0622 76.116 63.1402 76.09L63.2962 76.935C63.1315 77.013 62.9712 77.065 62.8152 77.091C62.6592 77.117 62.5075 77.13 62.3602 77.13ZM67.9464 77.13C67.3918 77.13 66.9108 77.0217 66.5034 76.805C66.1048 76.5797 65.8318 76.2677 65.6844 75.869H65.6324L65.5674 77H64.6184V69.876H65.7754V73.997C65.7754 74.4303 65.8491 74.8117 65.9964 75.141C66.1524 75.4617 66.3734 75.713 66.6594 75.895C66.9541 76.0683 67.3051 76.155 67.7124 76.155C68.2238 76.155 68.6051 76.0207 68.8564 75.752C69.1078 75.4833 69.2334 75.089 69.2334 74.569V69.876H70.3904V74.647C70.3904 75.219 70.2908 75.687 70.0914 76.051C69.9008 76.415 69.6234 76.688 69.2594 76.87C68.8954 77.0433 68.4578 77.13 67.9464 77.13ZM69.2343 68.745V66.002H70.3783V68.745H69.2343ZM73.2668 77L71.9798 69.876H73.1628L73.6698 72.97C73.7131 73.2213 73.7564 73.5463 73.7998 73.945C73.8431 74.3437 73.8951 74.816 73.9558 75.362H73.9948C74.0728 74.9893 74.1464 74.6557 74.2158 74.361C74.2938 74.0663 74.3631 73.802 74.4238 73.568C74.4931 73.3253 74.5538 73.113 74.6058 72.931L75.4768 69.876H76.4258L77.3098 72.931C77.3618 73.113 77.4181 73.3253 77.4788 73.568C77.5481 73.802 77.6174 74.0663 77.6868 74.361C77.7648 74.6557 77.8428 74.9893 77.9208 75.362H77.9728C78.0248 74.816 78.0724 74.3437 78.1158 73.945C78.1591 73.5463 78.2024 73.2213 78.2458 72.97L78.7658 69.876H79.9488L78.6618 77H77.5308L76.3348 73.126C76.2741 72.9093 76.2134 72.684 76.1528 72.45C76.1008 72.216 76.0488 71.9083 75.9968 71.527H75.9448C75.9101 71.7783 75.8711 71.9993 75.8278 72.19C75.7844 72.3807 75.7411 72.5497 75.6978 72.697C75.6544 72.8443 75.6111 72.9873 75.5678 73.126L74.3978 77H73.2668ZM73.88 68.745V68.238L74.829 67.822H77.416L77.247 68.147C77.2037 68.0517 77.1777 67.965 77.169 67.887C77.1517 67.8003 77.143 67.731 77.143 67.679C77.143 67.3583 77.2513 67.0983 77.468 66.899C77.676 66.6997 77.9663 66.6 78.339 66.6C78.7203 66.6 79.0237 66.704 79.249 66.912C79.4657 67.1113 79.574 67.3713 79.574 67.692C79.574 67.9867 79.4743 68.238 79.275 68.446C79.0757 68.6453 78.7853 68.745 78.404 68.745H73.88ZM78.365 68.186C78.5383 68.186 78.6727 68.1383 78.768 68.043C78.8633 67.939 78.911 67.8177 78.911 67.679C78.911 67.5317 78.8633 67.4103 78.768 67.315C78.664 67.2197 78.5253 67.172 78.352 67.172C78.1787 67.172 78.0443 67.2197 77.949 67.315C77.8537 67.4017 77.806 67.5187 77.806 67.666C77.806 67.8047 77.8537 67.926 77.949 68.03C78.0357 68.134 78.1743 68.186 78.365 68.186ZM82.7088 77L80.4858 69.876H81.6558L83.5798 75.999H83.7358C83.9438 75.999 84.1475 75.9513 84.3468 75.856C84.5462 75.752 84.7152 75.622 84.8538 75.466C85.1138 75.18 85.3045 74.8203 85.4258 74.387C85.5472 73.945 85.6078 73.5117 85.6078 73.087C85.6078 72.3677 85.4432 71.8043 85.1138 71.397C84.7932 70.981 84.3468 70.773 83.7748 70.773C83.6622 70.773 83.5495 70.7817 83.4368 70.799C83.3328 70.8163 83.2462 70.838 83.1768 70.864L82.8908 69.941C83.0728 69.889 83.2418 69.8543 83.3978 69.837C83.5625 69.8197 83.7098 69.811 83.8398 69.811C84.2732 69.811 84.6588 69.876 84.9968 70.006C85.3435 70.1273 85.6382 70.3093 85.8808 70.552C86.1842 70.8467 86.4052 71.215 86.5438 71.657C86.6912 72.099 86.7648 72.5887 86.7648 73.126C86.7648 73.802 86.6608 74.4043 86.4528 74.933C86.2448 75.453 85.9848 75.869 85.6728 76.181C85.4215 76.4323 85.1138 76.6317 84.7498 76.779C84.3858 76.9263 83.9222 77 83.3588 77H82.7088ZM91.3813 77.13C90.3586 77.13 89.6263 76.896 89.1843 76.428C88.7423 75.96 88.5213 75.2927 88.5213 74.426V69.876H89.6783V74.439C89.6783 75.0197 89.8169 75.453 90.0943 75.739C90.3716 76.025 90.8006 76.168 91.3813 76.168C91.9706 76.168 92.4039 76.025 92.6813 75.739C92.9673 75.453 93.1103 75.0197 93.1103 74.439V67.315H94.2673V74.426C94.2673 75.2927 94.0419 75.96 93.5913 76.428C93.1493 76.896 92.4126 77.13 91.3813 77.13ZM98.3944 77.13C97.883 77.13 97.4064 77.0823 96.9644 76.987C96.531 76.883 96.1627 76.7617 95.8594 76.623L96.1974 75.687C96.3794 75.7563 96.5874 75.83 96.8214 75.908C97.0554 75.986 97.3067 76.051 97.5754 76.103C97.8527 76.1463 98.1344 76.168 98.4204 76.168C98.8797 76.168 99.261 76.0813 99.5644 75.908C99.8677 75.7347 100.019 75.4833 100.019 75.154C100.019 74.9547 99.963 74.7857 99.8504 74.647C99.7464 74.4997 99.5817 74.3653 99.3564 74.244C99.131 74.1227 98.8407 74.0057 98.4854 73.893C97.9394 73.7197 97.4757 73.5377 97.0944 73.347C96.7217 73.1477 96.4357 72.9137 96.2364 72.645C96.0457 72.3677 95.9504 72.0253 95.9504 71.618C95.9504 71.254 96.0457 70.9333 96.2364 70.656C96.4357 70.37 96.739 70.149 97.1464 69.993C97.5624 69.8283 98.091 69.746 98.7324 69.746C99.1484 69.746 99.5384 69.785 99.9024 69.863C100.275 69.9323 100.565 70.032 100.773 70.162V71.137C100.626 71.0677 100.44 70.9983 100.214 70.929C99.9977 70.8597 99.7594 70.8033 99.4994 70.76C99.2394 70.7167 98.9707 70.695 98.6934 70.695C98.1127 70.695 97.701 70.786 97.4584 70.968C97.2244 71.1413 97.1074 71.3407 97.1074 71.566C97.1074 71.7567 97.1594 71.917 97.2634 72.047C97.376 72.177 97.5624 72.3027 97.8224 72.424C98.091 72.5453 98.4507 72.684 98.9014 72.84C99.3174 72.9787 99.6987 73.139 100.045 73.321C100.392 73.503 100.665 73.7327 100.864 74.01C101.072 74.2787 101.176 74.6253 101.176 75.05C101.176 75.414 101.085 75.7563 100.903 76.077C100.73 76.389 100.44 76.6447 100.032 76.844C99.625 77.0347 99.079 77.13 98.3944 77.13ZM103.676 72.528C103.321 72.528 103.03 72.476 102.805 72.372C102.588 72.2593 102.432 72.1207 102.337 71.956C102.242 71.7827 102.194 71.6007 102.194 71.41C102.194 71.28 102.211 71.1457 102.246 71.007C102.289 70.8683 102.341 70.7513 102.402 70.656L103.377 70.812C103.36 70.8553 103.338 70.916 103.312 70.994C103.295 71.072 103.286 71.15 103.286 71.228C103.286 71.3407 103.316 71.436 103.377 71.514C103.438 71.5833 103.55 71.618 103.715 71.618H105.574V72.528H103.676ZM103.676 76.168C103.321 76.168 103.03 76.116 102.805 76.012C102.588 75.8993 102.432 75.7607 102.337 75.596C102.242 75.4227 102.194 75.2407 102.194 75.05C102.194 74.92 102.211 74.7857 102.246 74.647C102.289 74.5083 102.341 74.3913 102.402 74.296L103.377 74.452C103.36 74.4953 103.338 74.556 103.312 74.634C103.295 74.712 103.286 74.79 103.286 74.868C103.286 74.9807 103.316 75.076 103.377 75.154C103.438 75.2233 103.55 75.258 103.715 75.258H105.574V76.168H103.676ZM111.306 77V72.255C111.306 71.6917 111.176 71.293 110.916 71.059C110.664 70.8163 110.24 70.695 109.642 70.695C109.208 70.695 108.792 70.7557 108.394 70.877C108.004 70.9897 107.631 71.15 107.276 71.358V70.279C107.527 70.149 107.865 70.0277 108.29 69.915C108.723 69.8023 109.208 69.746 109.746 69.746C110.205 69.746 110.595 69.798 110.916 69.902C111.245 70.006 111.488 70.1967 111.644 70.474C111.947 70.6127 112.155 70.8293 112.268 71.124C112.389 71.4187 112.45 71.774 112.45 72.19V77H111.306ZM109.07 77.13C108.307 77.13 107.722 76.9567 107.315 76.61C106.916 76.2547 106.717 75.7477 106.717 75.089C106.717 74.3697 106.977 73.815 107.497 73.425C108.025 73.035 108.879 72.8053 110.058 72.736L111.54 72.645V73.607L110.214 73.698C109.33 73.7587 108.719 73.8973 108.381 74.114C108.051 74.3307 107.887 74.647 107.887 75.063C107.887 75.453 108.008 75.739 108.251 75.921C108.502 76.103 108.849 76.194 109.291 76.194C109.438 76.194 109.572 76.1853 109.694 76.168C109.815 76.142 109.932 76.1117 110.045 76.077L110.227 76.948C110.062 77.0087 109.88 77.052 109.681 77.078C109.49 77.1127 109.286 77.13 109.07 77.13ZM111.605 70.877L110.955 70.266C111.18 70.2313 111.392 70.1447 111.592 70.006C111.791 69.8673 111.891 69.668 111.891 69.408H113.022C113.022 69.6767 112.957 69.915 112.827 70.123C112.705 70.3223 112.536 70.487 112.32 70.617C112.103 70.7383 111.865 70.825 111.605 70.877ZM115.742 77L113.519 69.876H114.689L116.613 75.999H116.769C116.977 75.999 117.181 75.9513 117.38 75.856C117.579 75.752 117.748 75.622 117.887 75.466C118.147 75.18 118.338 74.8203 118.459 74.387C118.58 73.945 118.641 73.5117 118.641 73.087C118.641 72.3677 118.476 71.8043 118.147 71.397C117.826 70.981 117.38 70.773 116.808 70.773C116.695 70.773 116.583 70.7817 116.47 70.799C116.366 70.8163 116.279 70.838 116.21 70.864L115.924 69.941C116.106 69.889 116.275 69.8543 116.431 69.837C116.596 69.8197 116.743 69.811 116.873 69.811C117.306 69.811 117.692 69.876 118.03 70.006C118.377 70.1273 118.671 70.3093 118.914 70.552C119.217 70.8467 119.438 71.215 119.577 71.657C119.724 72.099 119.798 72.5887 119.798 73.126C119.798 73.802 119.694 74.4043 119.486 74.933C119.278 75.453 119.018 75.869 118.706 76.181C118.455 76.4323 118.147 76.6317 117.783 76.779C117.419 76.9263 116.955 77 116.392 77H115.742ZM121.554 77V72.45C121.554 71.5747 121.788 70.9073 122.256 70.448C122.724 69.98 123.47 69.746 124.492 69.746C125.524 69.746 126.269 69.98 126.728 70.448C127.196 70.9073 127.43 71.5747 127.43 72.45V77H126.273V72.45C126.273 71.8693 126.122 71.436 125.818 71.15C125.515 70.8553 125.069 70.708 124.479 70.708C123.899 70.708 123.457 70.8553 123.153 71.15C122.859 71.436 122.711 71.8693 122.711 72.45V73.893L122.75 73.906C122.941 73.568 123.175 73.347 123.452 73.243C123.73 73.1303 124.12 73.074 124.622 73.074H125.051V74.023H124.622C124.094 74.023 123.691 74.0967 123.413 74.244C123.145 74.3913 122.958 74.5863 122.854 74.829C122.759 75.063 122.711 75.3273 122.711 75.622V77H121.554ZM125.16 69.122C125.099 69.0267 125.051 68.9053 125.017 68.758C124.973 68.602 124.952 68.4503 124.952 68.303C124.952 68.121 124.991 67.952 125.069 67.796C125.147 67.6313 125.285 67.497 125.485 67.393C125.684 67.289 125.961 67.237 126.317 67.237H128.098V68.134H126.616C126.442 68.134 126.304 68.1687 126.2 68.238C126.096 68.2987 126.044 68.407 126.044 68.563C126.044 68.6237 126.057 68.6887 126.083 68.758C126.1 68.8273 126.126 68.8967 126.161 68.966L125.16 69.122Z" fill="#1A2A40"/>
</g>
<defs>
<filter id="filter0_d_89_15" x="0" y="0.210205" width="204.632" height="124.79" filterUnits="userSpaceOnUse" color-interpolation-filters="sRGB">
<feFlood flood-opacity="0" result="BackgroundImageFix"/>
<feColorMatrix in="SourceAlpha" type="matrix" values="0 0 0 0 0 0 0 0 0 0 0 0 0 0 0 0 0 0 127 0" result="hardAlpha"/>
<feOffset dx="8" dy="8"/>
<feGaussianBlur stdDeviation="11.5"/>
<feComposite in2="hardAlpha" operator="out"/>
<feColorMatrix type="matrix" values="0 0 0 0 0 0 0 0 0 0 0 0 0 0 0 0 0 0 0.25 0"/>
<feBlend mode="normal" in2="BackgroundImageFix" result="effect1_dropShadow_89_15"/>
<feBlend mode="normal" in="SourceGraphic" in2="effect1_dropShadow_89_15" result="shape"/>
</filter>
<filter id="filter1_d_89_15" x="27.6738" y="32.769" width="143.977" height="56.2608" filterUnits="userSpaceOnUse" color-interpolation-filters="sRGB">
<feFlood flood-opacity="0" result="BackgroundImageFix"/>
<feColorMatrix in="SourceAlpha" type="matrix" values="0 0 0 0 0 0 0 0 0 0 0 0 0 0 0 0 0 0 127 0" result="hardAlpha"/>
<feOffset dx="6" dy="6"/>
<feGaussianBlur stdDeviation="2.95"/>
<feComposite in2="hardAlpha" operator="out"/>
<feColorMatrix type="matrix" values="0 0 0 0 0 0 0 0 0 0 0 0 0 0 0 0 0 0 0.25 0"/>
<feBlend mode="normal" in2="BackgroundImageFix" result="effect1_dropShadow_89_15"/>
<feBlend mode="normal" in="SourceGraphic" in2="effect1_dropShadow_89_15" result="shape"/>
</filter>
</defs>
</svg>
