<svg width="149" height="116" viewBox="0 0 149 116" fill="none" xmlns="http://www.w3.org/2000/svg">
<g filter="url(#filter0_d_96_53)">
<rect width="101.895" height="69.1533" rx="19" transform="matrix(1 0 0 -1 15.8652 84.7368)" fill="white"/>
</g>
<path d="M9.96459 13.9835L18.5942 31.8943L28.8102 20.6647L9.96459 13.9835Z" fill="white"/>
<g filter="url(#filter1_d_96_53)">
<path d="M46.7844 55.433C45.7618 55.433 45.0294 55.199 44.5874 54.731C44.1454 54.263 43.9244 53.5956 43.9244 52.729V48.179H45.0814V52.742C45.0814 53.3226 45.2201 53.756 45.4974 54.042C45.7748 54.328 46.2038 54.471 46.7844 54.471C47.3738 54.471 47.8071 54.328 48.0844 54.042C48.3704 53.756 48.5134 53.3226 48.5134 52.742V45.618H49.6704V52.729C49.6704 53.5956 49.4451 54.263 48.9944 54.731C48.5524 55.199 47.8158 55.433 46.7844 55.433ZM55.9685 55.303V50.558C55.9685 49.9946 55.8385 49.596 55.5785 49.362C55.3272 49.1193 54.9025 48.998 54.3045 48.998C53.8712 48.998 53.4552 49.0586 53.0565 49.18C52.6665 49.2926 52.2939 49.453 51.9385 49.661V48.582C52.1899 48.452 52.5279 48.3306 52.9525 48.218C53.3859 48.1053 53.8712 48.049 54.4085 48.049C54.8679 48.049 55.2665 48.101 55.6045 48.205C55.9425 48.3003 56.2199 48.4476 56.4365 48.647C56.6619 48.8463 56.8309 49.102 56.9435 49.414C57.0562 49.7173 57.1125 50.077 57.1125 50.493V55.303H55.9685ZM53.7325 55.433C52.9699 55.433 52.3849 55.2596 51.9775 54.913C51.5789 54.5576 51.3795 54.0506 51.3795 53.392C51.3795 52.6726 51.6395 52.118 52.1595 51.728C52.6882 51.338 53.5419 51.1083 54.7205 51.039L56.2025 50.948V51.91L54.8765 52.001C53.9925 52.0616 53.3815 52.2003 53.0435 52.417C52.7142 52.6336 52.5495 52.95 52.5495 53.366C52.5495 53.756 52.6709 54.042 52.9135 54.224C53.1649 54.406 53.5115 54.497 53.9535 54.497C54.1009 54.497 54.2352 54.4883 54.3565 54.471C54.4779 54.445 54.5949 54.4146 54.7075 54.38L54.8895 55.251C54.7249 55.3116 54.5429 55.355 54.3435 55.381C54.1529 55.4156 53.9492 55.433 53.7325 55.433ZM61.7443 55.433C60.8083 55.433 60.1063 55.1903 59.6383 54.705C59.1789 54.211 58.9493 53.4396 58.9493 52.391C58.9493 52.2176 58.9536 52.0313 58.9623 51.832C58.9796 51.624 58.9969 51.4203 59.0143 51.221H61.7443V52.131H60.1063V52.391C60.1063 52.937 60.1669 53.366 60.2883 53.678C60.4096 53.9813 60.5873 54.1936 60.8213 54.315C61.0639 54.4363 61.3629 54.497 61.7183 54.497C62.1083 54.497 62.4463 54.4233 62.7323 54.276C63.0183 54.1286 63.2393 53.86 63.3953 53.47C63.5513 53.08 63.6293 52.521 63.6293 51.793C63.6293 51.1516 63.5599 50.6273 63.4213 50.22C63.2826 49.8126 63.0529 49.5093 62.7323 49.31C62.4203 49.1106 61.9956 49.011 61.4583 49.011C61.1809 49.011 60.9123 49.037 60.6523 49.089C60.3923 49.1323 60.1409 49.2016 59.8983 49.297C59.6556 49.3836 59.4173 49.4963 59.1833 49.635V48.556C59.3566 48.4606 59.5689 48.3783 59.8203 48.309C60.0716 48.231 60.3489 48.1703 60.6523 48.127C60.9556 48.075 61.2719 48.049 61.6013 48.049C62.3639 48.049 62.9793 48.205 63.4473 48.517C63.9239 48.8203 64.2706 49.2536 64.4873 49.817C64.7039 50.3716 64.8123 51.0303 64.8123 51.793C64.8123 52.5556 64.7126 53.21 64.5133 53.756C64.3139 54.302 63.9889 54.718 63.5383 55.004C63.0963 55.29 62.4983 55.433 61.7443 55.433ZM69.1181 55.433C68.4248 55.433 67.8788 55.2726 67.4801 54.952C67.0901 54.6226 66.8128 54.1806 66.6481 53.626C66.4921 53.0713 66.4141 52.4603 66.4141 51.793C66.4141 51.0563 66.4878 50.4496 66.6351 49.973C66.7911 49.4876 67.0078 49.1063 67.2851 48.829C67.5711 48.543 67.9091 48.3436 68.2991 48.231C68.6978 48.1096 69.1355 48.049 69.6121 48.049C70.3055 48.049 70.8688 48.153 71.3021 48.361C71.7441 48.5603 72.0691 48.8463 72.2771 49.219C72.4851 49.5916 72.5891 50.038 72.5891 50.558V55.303H71.4451V50.662C71.4451 50.1246 71.3108 49.7173 71.0421 49.44C70.7735 49.154 70.3098 49.011 69.6511 49.011C69.2525 49.011 68.8928 49.0846 68.5721 49.232C68.2601 49.3793 68.0131 49.6523 67.8311 50.051C67.6578 50.4496 67.5711 51.0346 67.5711 51.806C67.5711 52.3086 67.6188 52.7636 67.7141 53.171C67.8181 53.5696 67.9958 53.886 68.2471 54.12C68.4985 54.354 68.8495 54.471 69.3001 54.471C69.4301 54.471 69.5515 54.4623 69.6641 54.445C69.7768 54.4276 69.8851 54.4016 69.9891 54.367L70.1061 55.264C69.9675 55.3246 69.8071 55.368 69.6251 55.394C69.4518 55.42 69.2828 55.433 69.1181 55.433ZM74.7889 55.433C74.6329 55.433 74.4812 55.4156 74.3339 55.381C74.1865 55.355 74.0392 55.3073 73.8919 55.238L74.0219 54.432C74.0825 54.4493 74.1519 54.4666 74.2299 54.484C74.3079 54.5013 74.3815 54.51 74.4509 54.51C74.5895 54.51 74.6892 54.471 74.7499 54.393C74.8105 54.3063 74.8409 54.172 74.8409 53.99V52.781C74.8409 52.2436 74.9405 51.858 75.1399 51.624C75.3392 51.3813 75.6252 51.2166 75.9979 51.13L76.0109 51.091L74.5159 50.545V50.116C74.5159 49.7606 74.6285 49.427 74.8539 49.115C75.0879 48.7943 75.4259 48.5386 75.8679 48.348C76.3099 48.1486 76.8385 48.049 77.4539 48.049C77.9912 48.049 78.4852 48.1356 78.9359 48.309C79.3865 48.4736 79.7462 48.738 80.0149 49.102C80.2922 49.4573 80.4309 49.9253 80.4309 50.506V55.303H79.2739V50.623C79.2739 50.0423 79.0962 49.6306 78.7409 49.388C78.3855 49.1366 77.9522 49.011 77.4409 49.011C76.9035 49.011 76.4789 49.1236 76.1669 49.349C75.8549 49.5656 75.6989 49.843 75.6989 50.181L77.1809 50.883L77.0769 51.507C76.7562 51.507 76.4962 51.611 76.2969 51.819C76.0975 52.027 75.9979 52.3606 75.9979 52.82V54.081C75.9979 54.6096 75.8809 54.9693 75.6469 55.16C75.4129 55.342 75.1269 55.433 74.7889 55.433ZM78.6318 47.048C78.2678 47.048 77.9775 46.996 77.7608 46.892C77.5441 46.788 77.3881 46.6536 77.2928 46.489C77.1888 46.3243 77.1368 46.151 77.1368 45.969C77.1368 45.839 77.1585 45.7003 77.2018 45.553C77.2365 45.397 77.2841 45.2713 77.3448 45.176L78.3198 45.345C78.3025 45.3796 78.2851 45.4403 78.2678 45.527C78.2505 45.605 78.2418 45.6786 78.2418 45.748C78.2418 45.8606 78.2765 45.9603 78.3458 46.047C78.4151 46.125 78.5321 46.164 78.6968 46.164H81.9858V47.048H78.6318ZM85.2739 55.42C84.5719 55.42 84.0085 55.329 83.5839 55.147C83.1679 54.965 82.8645 54.7093 82.6739 54.38C82.4919 54.0506 82.4009 53.6606 82.4009 53.21C82.4009 52.8113 82.4572 52.495 82.5699 52.261C82.6912 52.0183 82.8385 51.8406 83.0119 51.728C83.1939 51.6153 83.3802 51.5416 83.5709 51.507V51.455C83.3975 51.403 83.2155 51.3163 83.0249 51.195C82.8342 51.0736 82.6739 50.9046 82.5439 50.688C82.4225 50.4713 82.3619 50.1983 82.3619 49.869C82.3619 49.5656 82.4312 49.2796 82.5699 49.011C82.7085 48.7423 82.9339 48.5213 83.2459 48.348C83.5579 48.1746 83.9695 48.088 84.4809 48.088C84.6889 48.088 84.9055 48.1053 85.1309 48.14C85.3562 48.166 85.5295 48.2136 85.6509 48.283L85.4429 49.18C85.3475 49.1453 85.2219 49.115 85.0659 49.089C84.9185 49.0543 84.7625 49.037 84.5979 49.037C84.2339 49.037 83.9652 49.1236 83.7919 49.297C83.6185 49.4616 83.5319 49.6826 83.5319 49.96C83.5319 50.2633 83.6055 50.493 83.7529 50.649C83.9089 50.805 84.1039 50.9133 84.3379 50.974C84.5805 51.026 84.8319 51.052 85.0919 51.052H85.3389V51.897H85.0919C84.5719 51.897 84.1862 51.9923 83.9349 52.183C83.6922 52.365 83.5709 52.6726 83.5709 53.106C83.5709 53.3573 83.6185 53.587 83.7139 53.795C83.8179 54.003 83.9912 54.1676 84.2339 54.289C84.4852 54.4103 84.8319 54.471 85.2739 54.471C85.7159 54.471 86.0582 54.4103 86.3009 54.289C86.5522 54.1676 86.7299 53.9943 86.8339 53.769C86.9379 53.535 86.9899 53.2576 86.9899 52.937V48.179H88.1469V52.859C88.1469 53.769 87.9129 54.4233 87.4449 54.822C86.9855 55.2206 86.2619 55.42 85.2739 55.42Z" fill="#1A2A40"/>
</g>
<defs>
<filter id="filter0_d_96_53" x="0.865234" y="0.583496" width="147.895" height="115.153" filterUnits="userSpaceOnUse" color-interpolation-filters="sRGB">
<feFlood flood-opacity="0" result="BackgroundImageFix"/>
<feColorMatrix in="SourceAlpha" type="matrix" values="0 0 0 0 0 0 0 0 0 0 0 0 0 0 0 0 0 0 127 0" result="hardAlpha"/>
<feOffset dx="8" dy="8"/>
<feGaussianBlur stdDeviation="11.5"/>
<feComposite in2="hardAlpha" operator="out"/>
<feColorMatrix type="matrix" values="0 0 0 0 0 0 0 0 0 0 0 0 0 0 0 0 0 0 0.25 0"/>
<feBlend mode="normal" in2="BackgroundImageFix" result="effect1_dropShadow_96_53"/>
<feBlend mode="normal" in="SourceGraphic" in2="effect1_dropShadow_96_53" result="shape"/>
</filter>
<filter id="filter1_d_96_53" x="43.9243" y="45.176" width="56.1227" height="22.1568" filterUnits="userSpaceOnUse" color-interpolation-filters="sRGB">
<feFlood flood-opacity="0" result="BackgroundImageFix"/>
<feColorMatrix in="SourceAlpha" type="matrix" values="0 0 0 0 0 0 0 0 0 0 0 0 0 0 0 0 0 0 127 0" result="hardAlpha"/>
<feOffset dx="6" dy="6"/>
<feGaussianBlur stdDeviation="2.95"/>
<feComposite in2="hardAlpha" operator="out"/>
<feColorMatrix type="matrix" values="0 0 0 0 0 0 0 0 0 0 0 0 0 0 0 0 0 0 0.25 0"/>
<feBlend mode="normal" in2="BackgroundImageFix" result="effect1_dropShadow_96_53"/>
<feBlend mode="normal" in="SourceGraphic" in2="effect1_dropShadow_96_53" result="shape"/>
</filter>
</defs>
</svg>
