<svg width="169" height="113" viewBox="0 0 169 113" fill="none" xmlns="http://www.w3.org/2000/svg">
<g filter="url(#filter0_d_96_63)">
<rect width="122.09" height="66.5819" rx="19" transform="matrix(-1 0 0 1 137.091 15.3408)" fill="white"/>
</g>
<path d="M144.16 83.4634L133.821 66.2185L121.58 77.0306L144.16 83.4634Z" fill="white"/>
<g filter="url(#filter1_d_96_63)">
<path d="M32.9819 52.0062C32.1586 52.0062 31.5216 51.8112 31.0709 51.4212C30.6289 51.0226 30.4079 50.4289 30.4079 49.6402V48.8472C30.4079 48.4139 30.4686 48.0716 30.5899 47.8202C30.7112 47.5689 30.8412 47.3522 30.9799 47.1702C31.1272 46.9709 31.2529 46.7976 31.3569 46.6502C31.4696 46.5029 31.5259 46.3252 31.5259 46.1172C31.5259 45.9352 31.4782 45.8052 31.3829 45.7272C31.2962 45.6492 31.1836 45.6102 31.0449 45.6102C30.9409 45.6102 30.8282 45.6276 30.7069 45.6622C30.5942 45.6969 30.4816 45.7402 30.3689 45.7922L30.1089 44.9602C30.2649 44.8562 30.4556 44.7826 30.6809 44.7392C30.9149 44.6959 31.1186 44.6742 31.2919 44.6742C31.6126 44.6742 31.8682 44.7306 32.0589 44.8432C32.2582 44.9559 32.4012 45.1119 32.4879 45.3112C32.5746 45.5019 32.6179 45.7272 32.6179 45.9872C32.6179 46.3079 32.5616 46.5722 32.4489 46.7802C32.3449 46.9882 32.2192 47.1919 32.0719 47.3912C31.9246 47.6079 31.8032 47.8159 31.7079 48.0152C31.6126 48.2146 31.5649 48.4746 31.5649 48.7952V49.5622C31.5649 49.9609 31.6299 50.2686 31.7599 50.4852C31.8899 50.7019 32.0632 50.8536 32.2799 50.9402C32.4966 51.0182 32.7306 51.0572 32.9819 51.0572C33.4152 51.0572 33.7446 50.9576 33.9699 50.7582C34.1952 50.5502 34.3079 50.2339 34.3079 49.8092V47.9892C34.3079 47.6686 34.2342 47.4259 34.0869 47.2612C33.9396 47.0879 33.7012 47.0012 33.3719 47.0012H33.3199V46.2602H33.3849C33.7402 46.2602 33.9916 46.1779 34.1389 46.0132C34.2862 45.8486 34.3729 45.6492 34.3989 45.4152C34.4336 45.1726 34.4509 44.9516 34.4509 44.7522H35.6079C35.6079 45.2116 35.5516 45.6016 35.4389 45.9222C35.3262 46.2429 35.0706 46.4769 34.6719 46.6242V46.6762C34.9146 46.7369 35.0879 46.8409 35.1919 46.9882C35.3046 47.1269 35.3782 47.2872 35.4129 47.4692C35.4476 47.6426 35.4649 47.8116 35.4649 47.9762V49.8742C35.4649 50.5416 35.2569 51.0659 34.8409 51.4472C34.4249 51.8199 33.8052 52.0062 32.9819 52.0062ZM34.4562 43.6212V40.8782H35.6002V43.6212H34.4562ZM39.0374 52.0062C38.6994 52.0062 38.37 51.9716 38.0494 51.9022C37.7374 51.8329 37.4037 51.7029 37.0484 51.5122L37.4124 50.6282C37.603 50.7409 37.8197 50.8406 38.0624 50.9272C38.305 51.0052 38.5867 51.0442 38.9074 51.0442C39.5487 51.0442 40.047 50.8102 40.4024 50.3422C40.7664 49.8656 40.9484 49.1809 40.9484 48.2882C40.9484 47.4129 40.762 46.7456 40.3894 46.2862C40.0254 45.8182 39.462 45.5842 38.6994 45.5842C38.422 45.5842 38.1404 45.6146 37.8544 45.6752C37.5684 45.7359 37.317 45.8269 37.1004 45.9482V44.9732C37.3517 44.8432 37.6247 44.7522 37.9194 44.7002C38.2227 44.6482 38.526 44.6222 38.8294 44.6222C39.6094 44.6222 40.242 44.7782 40.7274 45.0902C41.2127 45.3936 41.568 45.8182 41.7934 46.3642C42.0187 46.9102 42.1314 47.5516 42.1314 48.2882C42.1314 49.4322 41.8714 50.3379 41.3514 51.0052C40.84 51.6726 40.0687 52.0062 39.0374 52.0062ZM46.7488 51.9932C46.0468 51.9932 45.4835 51.9022 45.0588 51.7202C44.6428 51.5382 44.3395 51.2826 44.1488 50.9532C43.9668 50.6239 43.8758 50.2339 43.8758 49.7832C43.8758 49.3846 43.9321 49.0682 44.0448 48.8342C44.1661 48.5916 44.3135 48.4139 44.4868 48.3012C44.6688 48.1886 44.8551 48.1149 45.0458 48.0802V48.0282C44.8725 47.9762 44.6905 47.8896 44.4998 47.7682C44.3091 47.6469 44.1488 47.4779 44.0188 47.2612C43.8975 47.0446 43.8368 46.7716 43.8368 46.4422C43.8368 46.1389 43.9061 45.8529 44.0448 45.5842C44.1835 45.3156 44.4088 45.0946 44.7208 44.9212C45.0328 44.7479 45.4445 44.6612 45.9558 44.6612C46.1638 44.6612 46.3805 44.6786 46.6058 44.7132C46.8311 44.7392 47.0045 44.7869 47.1258 44.8562L46.9178 45.7532C46.8225 45.7186 46.6968 45.6882 46.5408 45.6622C46.3935 45.6276 46.2375 45.6102 46.0728 45.6102C45.7088 45.6102 45.4401 45.6969 45.2668 45.8702C45.0935 46.0349 45.0068 46.2559 45.0068 46.5332C45.0068 46.8366 45.0805 47.0662 45.2278 47.2222C45.3838 47.3782 45.5788 47.4866 45.8128 47.5472C46.0555 47.5992 46.3068 47.6252 46.5668 47.6252H46.8138V48.4702H46.5668C46.0468 48.4702 45.6611 48.5656 45.4098 48.7562C45.1671 48.9382 45.0458 49.2459 45.0458 49.6792C45.0458 49.9306 45.0935 50.1602 45.1888 50.3682C45.2928 50.5762 45.4661 50.7409 45.7088 50.8622C45.9601 50.9836 46.3068 51.0442 46.7488 51.0442C47.1908 51.0442 47.5331 50.9836 47.7758 50.8622C48.0271 50.7409 48.2048 50.5676 48.3088 50.3422C48.4128 50.1082 48.4648 49.8309 48.4648 49.5102V44.7522H49.6218V49.4322C49.6218 50.3422 49.3878 50.9966 48.9198 51.3952C48.4605 51.7939 47.7368 51.9932 46.7488 51.9932ZM53.2195 52.0062C52.9769 52.0062 52.7472 51.9672 52.5305 51.8892C52.3139 51.8112 52.1362 51.6726 51.9975 51.4732C51.8589 51.2739 51.7895 50.9966 51.7895 50.6412V45.5582C51.7895 45.3156 51.8112 45.1206 51.8545 44.9732C51.8979 44.8172 51.9672 44.6656 52.0625 44.5182C52.1665 44.3709 52.3095 44.1846 52.4915 43.9592C52.7082 43.6906 52.8685 43.4696 52.9725 43.2962C53.0765 43.1229 53.1285 42.9322 53.1285 42.7242C53.1285 42.4729 53.0505 42.2866 52.8945 42.1652C52.7472 42.0352 52.5175 41.9702 52.2055 41.9702C51.9369 41.9702 51.6899 42.0092 51.4645 42.0872C51.2479 42.1652 51.0659 42.2432 50.9185 42.3212V41.3332C51.0399 41.2639 51.2219 41.1989 51.4645 41.1382C51.7159 41.0689 52.0105 41.0342 52.3485 41.0342C52.9205 41.0342 53.3799 41.1642 53.7265 41.4242C54.0819 41.6756 54.2595 42.0656 54.2595 42.5942C54.2595 42.9409 54.1945 43.2442 54.0645 43.5042C53.9345 43.7642 53.7829 43.9982 53.6095 44.2062C53.4622 44.3969 53.3365 44.5572 53.2325 44.6872C53.1372 44.8086 53.0635 44.9342 53.0115 45.0642C52.9682 45.1942 52.9465 45.3676 52.9465 45.5842V50.4982C52.9465 50.6976 52.9899 50.8406 53.0765 50.9272C53.1632 51.0139 53.2975 51.0572 53.4795 51.0572C53.5749 51.0572 53.6659 51.0486 53.7525 51.0312C53.8392 51.0139 53.9172 50.9922 53.9865 50.9662L54.1425 51.8112C53.9779 51.8892 53.8175 51.9412 53.6615 51.9672C53.5142 51.9932 53.3669 52.0062 53.2195 52.0062ZM55.5864 51.8762V44.7522H56.7434V47.8332H56.7824L59.7464 44.7522H61.0984V44.7912L56.7434 49.1982V51.8762H55.5864ZM60.0064 51.8762V49.3672C60.0064 48.8559 59.8504 48.4572 59.5384 48.1712C59.2264 47.8852 58.7107 47.7422 57.9914 47.7422L58.6674 46.8972C59.2134 46.8972 59.6684 46.9969 60.0324 47.1962C60.405 47.3869 60.6867 47.6642 60.8774 48.0282C61.068 48.3922 61.1634 48.8299 61.1634 49.3412V51.8762H60.0064ZM57.5799 43.6212V43.0492C57.7533 43.0146 57.9309 42.9669 58.1129 42.9062C58.2949 42.8369 58.4466 42.7502 58.5679 42.6462C58.6893 42.5336 58.7499 42.3992 58.7499 42.2432C58.7499 42.1392 58.7196 42.0526 58.6589 41.9832C58.5896 41.9052 58.4856 41.8662 58.3469 41.8662C58.2603 41.8662 58.1736 41.8836 58.0869 41.9182C57.9916 41.9529 57.9093 41.9832 57.8399 42.0092L57.5799 41.2942C57.7533 41.1556 57.9483 41.0646 58.1649 41.0212C58.3729 40.9779 58.5419 40.9562 58.6719 40.9562C59.0186 40.9562 59.2916 41.0516 59.4909 41.2422C59.6816 41.4329 59.7769 41.6756 59.7769 41.9702C59.7769 42.2129 59.7163 42.4252 59.5949 42.6072C59.4649 42.7806 59.3176 42.9192 59.1529 43.0232L59.0229 42.7112H61.6099V43.6212H57.5799ZM65.6212 52.0062C64.8066 52.0062 64.1739 51.8112 63.7232 51.4212C63.2812 51.0226 63.0602 50.4289 63.0602 49.6402V48.8472C63.0602 48.4139 63.1209 48.0716 63.2422 47.8202C63.3636 47.5689 63.4936 47.3522 63.6322 47.1702C63.7796 46.9709 63.9052 46.7976 64.0092 46.6502C64.1219 46.5029 64.1782 46.3252 64.1782 46.1172C64.1782 45.9352 64.1306 45.8052 64.0352 45.7272C63.9486 45.6492 63.8359 45.6102 63.6972 45.6102C63.5932 45.6102 63.4806 45.6276 63.3592 45.6622C63.2466 45.6969 63.1339 45.7402 63.0212 45.7922L62.7612 44.9602C62.9172 44.8562 63.1079 44.7826 63.3332 44.7392C63.5672 44.6959 63.7709 44.6742 63.9442 44.6742C64.2649 44.6742 64.5206 44.7306 64.7112 44.8432C64.9106 44.9559 65.0536 45.1119 65.1402 45.3112C65.2269 45.5019 65.2702 45.7272 65.2702 45.9872C65.2702 46.3079 65.2139 46.5722 65.1012 46.7802C64.9972 46.9882 64.8716 47.1919 64.7242 47.3912C64.5769 47.6079 64.4556 47.8159 64.3602 48.0152C64.2649 48.2146 64.2172 48.4746 64.2172 48.7952V49.5622C64.2172 49.9609 64.2822 50.2686 64.4122 50.4852C64.5422 50.7019 64.7156 50.8536 64.9322 50.9402C65.1489 51.0182 65.3786 51.0572 65.6212 51.0572C66.0546 51.0572 66.3839 50.9576 66.6092 50.7582C66.8432 50.5502 66.9602 50.2339 66.9602 49.8092V44.7522H68.1172V49.8742C68.1172 50.5416 67.9049 51.0659 67.4802 51.4472C67.0642 51.8199 66.4446 52.0062 65.6212 52.0062ZM72.6786 52.0062C72.1673 52.0062 71.7253 51.9196 71.3526 51.7462C70.9886 51.5642 70.7069 51.2912 70.5076 50.9272C70.3169 50.5632 70.2216 50.0909 70.2216 49.5102V44.7522H71.3786V49.4452C71.3786 49.9652 71.5086 50.3596 71.7686 50.6282C72.0373 50.8969 72.4229 51.0312 72.9256 51.0312C73.5323 51.0312 74.0003 50.8362 74.3296 50.4462C74.6676 50.0562 74.8366 49.5319 74.8366 48.8732V44.7522H75.9936V51.8762H75.0316L74.9796 50.8232H74.9146C74.7586 51.1699 74.4856 51.4559 74.0956 51.6812C73.7143 51.8979 73.2419 52.0062 72.6786 52.0062ZM78.9093 51.8762L77.6743 44.7522H78.8573L79.3123 47.8462C79.3296 47.9242 79.3513 48.0932 79.3773 48.3532C79.4033 48.6132 79.4336 48.9122 79.4683 49.2502C79.5116 49.5882 79.5506 49.9176 79.5853 50.2382H79.6503C79.6936 49.9956 79.7456 49.7486 79.8063 49.4972C79.8669 49.2372 79.9319 48.9686 80.0013 48.6912C80.0793 48.4052 80.1616 48.1106 80.2483 47.8072L81.1323 44.7522H82.0683L82.9523 47.8072C83.0389 48.1106 83.1169 48.4052 83.1863 48.6912C83.2643 48.9686 83.3336 49.2372 83.3943 49.4972C83.4549 49.7486 83.5069 49.9956 83.5503 50.2382H83.6023C83.6369 49.8829 83.6673 49.5579 83.6933 49.2632C83.7279 48.9686 83.7583 48.6999 83.7843 48.4572C83.8103 48.2146 83.8319 48.0109 83.8493 47.8462L84.5903 42.1912H85.7343L84.3043 51.8762H83.1603L81.9773 48.0022C81.9166 47.8202 81.8603 47.6036 81.8083 47.3522C81.7563 47.1009 81.6999 46.7846 81.6393 46.4032H81.5873C81.5439 46.6546 81.5006 46.8756 81.4573 47.0662C81.4226 47.2569 81.3836 47.4259 81.3403 47.5732C81.3056 47.7206 81.2666 47.8636 81.2233 48.0022L80.0403 51.8762H78.9093ZM82.6097 55.3212C82.055 55.3212 81.6347 55.2086 81.3487 54.9832C81.054 54.7666 80.9067 54.4546 80.9067 54.0472V53.8262C80.9067 53.6789 80.872 53.5879 80.8027 53.5532C80.7247 53.5272 80.6207 53.5316 80.4907 53.5662L80.4127 52.7862C80.534 52.7516 80.6554 52.7299 80.7767 52.7212C80.8894 52.7126 80.976 52.7082 81.0367 52.7082C81.3487 52.7082 81.574 52.7776 81.7127 52.9162C81.8427 53.0549 81.9077 53.2499 81.9077 53.5012V53.9432C81.9077 54.1079 81.9597 54.2466 82.0637 54.3592C82.1677 54.4719 82.3454 54.5282 82.5967 54.5282C82.8567 54.5282 83.0387 54.4719 83.1427 54.3592C83.238 54.2466 83.2857 54.1079 83.2857 53.9432V52.7472H84.2997V54.0082C84.2997 54.4329 84.1567 54.7579 83.8707 54.9832C83.5847 55.2086 83.1644 55.3212 82.6097 55.3212ZM89.5126 52.0062C89.0013 52.0062 88.5593 51.9196 88.1866 51.7462C87.8226 51.5642 87.5409 51.2912 87.3416 50.9272C87.1509 50.5632 87.0556 50.0909 87.0556 49.5102V44.7522H88.2126V49.4452C88.2126 49.9652 88.3426 50.3596 88.6026 50.6282C88.8713 50.8969 89.2569 51.0312 89.7596 51.0312C90.3663 51.0312 90.8343 50.8362 91.1636 50.4462C91.5016 50.0562 91.6706 49.5319 91.6706 48.8732V44.7522H92.8276V51.8762H91.8656L91.8136 50.8232H91.7486C91.5926 51.1699 91.3196 51.4559 90.9296 51.6812C90.5483 51.8979 90.0759 52.0062 89.5126 52.0062ZM91.7783 55.2692V53.8912C91.7783 53.6746 91.6829 53.5662 91.4923 53.5662C91.4489 53.5662 91.4056 53.5706 91.3623 53.5792C91.3103 53.5879 91.2626 53.6009 91.2193 53.6182L91.1283 52.8382C91.2583 52.7949 91.4013 52.7602 91.5573 52.7342C91.7046 52.7169 91.8259 52.7082 91.9213 52.7082C92.2246 52.7082 92.4499 52.7776 92.5973 52.9162C92.7359 53.0636 92.8053 53.2629 92.8053 53.5142V55.2692H91.7783ZM91.6613 43.6212V40.8782H92.8053V43.6212H91.6613ZM98.4603 52.0062C97.9056 52.0062 97.4246 51.8979 97.0173 51.6812C96.6186 51.4559 96.3456 51.1439 96.1983 50.7452H96.1463L96.0813 51.8762H95.1323V44.7522H96.2893V48.8732C96.2893 49.3066 96.3629 49.6879 96.5103 50.0172C96.6663 50.3379 96.8873 50.5892 97.1733 50.7712C97.4679 50.9446 97.8189 51.0312 98.2263 51.0312C98.7376 51.0312 99.1189 50.8969 99.3703 50.6282C99.6216 50.3596 99.7473 49.9652 99.7473 49.4452V44.7522H100.904V49.5232C100.904 50.0952 100.805 50.5632 100.605 50.9272C100.415 51.2912 100.137 51.5642 99.7733 51.7462C99.4093 51.9196 98.9716 52.0062 98.4603 52.0062ZM107.187 51.8762V47.1312C107.187 46.5679 107.057 46.1692 106.797 45.9352C106.545 45.6926 106.121 45.5712 105.523 45.5712C105.089 45.5712 104.673 45.6319 104.275 45.7532C103.885 45.8659 103.512 46.0262 103.157 46.2342V45.1552C103.408 45.0252 103.746 44.9039 104.171 44.7912C104.604 44.6786 105.089 44.6222 105.627 44.6222C106.086 44.6222 106.485 44.6742 106.823 44.7782C107.161 44.8736 107.438 45.0209 107.655 45.2202C107.88 45.4196 108.049 45.6752 108.162 45.9872C108.274 46.2906 108.331 46.6502 108.331 47.0662V51.8762H107.187ZM104.951 52.0062C104.188 52.0062 103.603 51.8329 103.196 51.4862C102.797 51.1309 102.598 50.6239 102.598 49.9652C102.598 49.2459 102.858 48.6912 103.378 48.3012C103.906 47.9112 104.76 47.6816 105.939 47.6122L107.421 47.5212V48.4832L106.095 48.5742C105.211 48.6349 104.6 48.7736 104.262 48.9902C103.932 49.2069 103.768 49.5232 103.768 49.9392C103.768 50.3292 103.889 50.6152 104.132 50.7972C104.383 50.9792 104.73 51.0702 105.172 51.0702C105.319 51.0702 105.453 51.0616 105.575 51.0442C105.696 51.0182 105.813 50.9879 105.926 50.9532L106.108 51.8242C105.943 51.8849 105.761 51.9282 105.562 51.9542C105.371 51.9889 105.167 52.0062 104.951 52.0062ZM102.616 43.6212V43.1142L103.565 42.6982H108.141V43.6212H102.616ZM105.294 43.1142V41.6452H106.256V43.1142H105.294ZM107.192 43.1142V41.6452H108.141V43.1142H107.192ZM106.199 40.8782V38.7592H107.304V40.8782H106.199ZM112.897 52.0062C112.386 52.0062 111.944 51.9196 111.571 51.7462C111.207 51.5642 110.926 51.2912 110.726 50.9272C110.536 50.5632 110.44 50.0909 110.44 49.5102V44.7522H111.597V49.4452C111.597 49.9652 111.727 50.3596 111.987 50.6282C112.256 50.8969 112.642 51.0312 113.144 51.0312C113.751 51.0312 114.219 50.8362 114.548 50.4462C114.886 50.0562 115.055 49.5319 115.055 48.8732V44.7522H116.212V51.8762H115.25L115.198 50.8232H115.133C114.977 51.1699 114.704 51.4559 114.314 51.6812C113.933 51.8979 113.461 52.0062 112.897 52.0062Z" fill="#1A2A40"/>
</g>
<defs>
<filter id="filter0_d_96_63" x="0.000976562" y="0.34082" width="168.09" height="112.582" filterUnits="userSpaceOnUse" color-interpolation-filters="sRGB">
<feFlood flood-opacity="0" result="BackgroundImageFix"/>
<feColorMatrix in="SourceAlpha" type="matrix" values="0 0 0 0 0 0 0 0 0 0 0 0 0 0 0 0 0 0 127 0" result="hardAlpha"/>
<feOffset dx="8" dy="8"/>
<feGaussianBlur stdDeviation="11.5"/>
<feComposite in2="hardAlpha" operator="out"/>
<feColorMatrix type="matrix" values="0 0 0 0 0 0 0 0 0 0 0 0 0 0 0 0 0 0 0.25 0"/>
<feBlend mode="normal" in2="BackgroundImageFix" result="effect1_dropShadow_96_63"/>
<feBlend mode="normal" in="SourceGraphic" in2="effect1_dropShadow_96_63" result="shape"/>
</filter>
<filter id="filter1_d_96_63" x="30.1089" y="38.7593" width="98.0035" height="28.462" filterUnits="userSpaceOnUse" color-interpolation-filters="sRGB">
<feFlood flood-opacity="0" result="BackgroundImageFix"/>
<feColorMatrix in="SourceAlpha" type="matrix" values="0 0 0 0 0 0 0 0 0 0 0 0 0 0 0 0 0 0 127 0" result="hardAlpha"/>
<feOffset dx="6" dy="6"/>
<feGaussianBlur stdDeviation="2.95"/>
<feComposite in2="hardAlpha" operator="out"/>
<feColorMatrix type="matrix" values="0 0 0 0 0 0 0 0 0 0 0 0 0 0 0 0 0 0 0.25 0"/>
<feBlend mode="normal" in2="BackgroundImageFix" result="effect1_dropShadow_96_63"/>
<feBlend mode="normal" in="SourceGraphic" in2="effect1_dropShadow_96_63" result="shape"/>
</filter>
</defs>
</svg>
