<svg width="188" height="111" viewBox="0 0 188 111" fill="none" xmlns="http://www.w3.org/2000/svg">
<g filter="url(#filter0_d_89_11)">
<rect x="15.627" y="15" width="152.373" height="65" rx="23" fill="white"/>
</g>
<path d="M8.81269 81.5041L18.7797 64.6689L30.579 75.2241L8.81269 81.5041Z" fill="white"/>
<g filter="url(#filter1_d_89_11)">
<path d="M36.3669 48V45.53C36.3669 44.984 36.4882 44.5897 36.7309 44.347C36.9736 44.0957 37.2812 43.9223 37.6539 43.827L37.6669 43.788L36.2369 43.242V42.813C36.2369 42.4577 36.3539 42.124 36.5879 41.812C36.8219 41.4913 37.1556 41.2357 37.5889 41.045C38.0309 40.8457 38.5552 40.746 39.1619 40.746C39.6906 40.746 40.1802 40.8327 40.6309 41.006C41.0816 41.1707 41.4412 41.435 41.7099 41.799C41.9872 42.1543 42.1259 42.6223 42.1259 43.203V48H40.9689V43.32C40.9689 42.7393 40.7912 42.3277 40.4359 42.085C40.0892 41.8337 39.6602 41.708 39.1489 41.708C38.6202 41.708 38.1999 41.8207 37.8879 42.046C37.5759 42.2627 37.4199 42.54 37.4199 42.878L38.8239 43.58L38.7199 44.204C38.3992 44.204 38.1176 44.3123 37.8749 44.529C37.6409 44.737 37.5239 45.0707 37.5239 45.53V48H36.3669ZM48.3998 48V43.255C48.3998 42.6917 48.2698 42.293 48.0098 42.059C47.7585 41.8163 47.3338 41.695 46.7358 41.695C46.3025 41.695 45.8865 41.7557 45.4878 41.877C45.0978 41.9897 44.7252 42.15 44.3698 42.358V41.279C44.6212 41.149 44.9592 41.0277 45.3838 40.915C45.8172 40.8023 46.3025 40.746 46.8398 40.746C47.2992 40.746 47.6978 40.798 48.0358 40.902C48.3738 40.9973 48.6512 41.1447 48.8678 41.344C49.0932 41.5433 49.2622 41.799 49.3748 42.111C49.4875 42.4143 49.5438 42.774 49.5438 43.19V48H48.3998ZM46.1638 48.13C45.4012 48.13 44.8162 47.9567 44.4088 47.61C44.0102 47.2547 43.8108 46.7477 43.8108 46.089C43.8108 45.3697 44.0708 44.815 44.5908 44.425C45.1195 44.035 45.9732 43.8053 47.1518 43.736L48.6338 43.645V44.607L47.3078 44.698C46.4238 44.7587 45.8128 44.8973 45.4748 45.114C45.1455 45.3307 44.9808 45.647 44.9808 46.063C44.9808 46.453 45.1022 46.739 45.3448 46.921C45.5962 47.103 45.9428 47.194 46.3848 47.194C46.5322 47.194 46.6665 47.1853 46.7878 47.168C46.9092 47.142 47.0262 47.1117 47.1388 47.077L47.3208 47.948C47.1562 48.0087 46.9742 48.052 46.7748 48.078C46.5842 48.1127 46.3805 48.13 46.1638 48.13ZM43.8297 39.745V39.238L44.7787 38.822H49.3547V39.745H43.8297ZM48.2627 37.002V34.883H49.3677V37.002H48.2627ZM54.1106 48.13C53.5993 48.13 53.1573 48.0433 52.7846 47.87C52.4206 47.688 52.1389 47.415 51.9396 47.051C51.7489 46.687 51.6536 46.2147 51.6536 45.634V40.876H52.8106V45.569C52.8106 46.089 52.9406 46.4833 53.2006 46.752C53.4693 47.0207 53.8549 47.155 54.3576 47.155C54.9643 47.155 55.4323 46.96 55.7616 46.57C56.0996 46.18 56.2686 45.6557 56.2686 44.997V40.876H57.4256V48H56.4636L56.4116 46.947H56.3466C56.1906 47.2937 55.9176 47.5797 55.5276 47.805C55.1463 48.0217 54.6739 48.13 54.1106 48.13ZM66.2603 48.1523C65.5705 48.1523 64.9484 47.9937 64.394 47.6763C63.8397 47.3589 63.3996 46.8553 63.0737 46.1655C62.7479 45.4715 62.585 44.5575 62.585 43.4233C62.585 42.5093 62.695 41.7476 62.915 41.1382C63.1351 40.5288 63.4334 40.0464 63.8101 39.6909C64.1867 39.3354 64.6141 39.0837 65.0923 38.9355C65.5705 38.7832 66.0698 38.707 66.5903 38.707C67.1235 38.707 67.5869 38.7493 67.9805 38.834C68.3783 38.9186 68.7126 39.0138 68.9834 39.1196L69.0723 40.1289C68.8014 40.0231 68.4671 39.9194 68.0693 39.8179C67.6715 39.7121 67.1891 39.6592 66.6221 39.6592C65.7207 39.6592 65.0309 39.9491 64.5527 40.5288C64.0788 41.1086 63.8418 42.0142 63.8418 43.2456C63.8418 44.5701 64.0365 45.5604 64.4258 46.2163C64.8193 46.868 65.4689 47.1938 66.3745 47.1938C66.9289 47.1938 67.3774 47.1029 67.7202 46.9209C68.0672 46.7389 68.3296 46.5633 68.5073 46.394V44.1343H66.7871L66.6665 43.2837H69.5166V47.9746H68.8564L68.6152 47.2065C68.5094 47.342 68.3571 47.4837 68.1582 47.6318C67.9635 47.7757 67.7118 47.8984 67.4028 48C67.0939 48.1016 66.7131 48.1523 66.2603 48.1523ZM71.2178 43.417C71.2178 41.8258 71.5309 40.6431 72.1572 39.8687C72.7835 39.0942 73.6934 38.707 74.8867 38.707C76.0885 38.707 77.0026 39.0942 77.6289 39.8687C78.2594 40.6431 78.5747 41.8258 78.5747 43.417C78.5747 45.0251 78.2594 46.2163 77.6289 46.9907C77.0026 47.7651 76.0885 48.1523 74.8867 48.1523C73.6934 48.1523 72.7835 47.7651 72.1572 46.9907C71.5309 46.2121 71.2178 45.0208 71.2178 43.417ZM72.4302 43.417C72.4302 44.0137 72.4746 44.5448 72.5635 45.0103C72.6566 45.4757 72.8026 45.8714 73.0015 46.1973C73.2004 46.5189 73.4543 46.7664 73.7632 46.9399C74.0721 47.1092 74.4466 47.1938 74.8867 47.1938C75.3311 47.1938 75.7077 47.1092 76.0166 46.9399C76.3298 46.7664 76.5858 46.5189 76.7847 46.1973C76.9836 45.8714 77.1274 45.4757 77.2163 45.0103C77.3094 44.5448 77.356 44.0137 77.356 43.417C77.356 42.8245 77.3094 42.2956 77.2163 41.8301C77.1274 41.3646 76.9836 40.971 76.7847 40.6494C76.5858 40.3278 76.3298 40.0824 76.0166 39.9131C75.7077 39.7438 75.3311 39.6592 74.8867 39.6592C74.4508 39.6592 74.0785 39.7438 73.7695 39.9131C73.4606 40.0824 73.2067 40.3278 73.0078 40.6494C72.8132 40.971 72.6672 41.3646 72.5698 41.8301C72.4767 42.2956 72.4302 42.8245 72.4302 43.417ZM80.4917 48V38.8784H81.666V47.0986H85.3984L85.2905 48H80.4917ZM86.7251 48V38.8784H89.3403C89.6958 38.8784 90.0449 38.8975 90.3877 38.9355C90.7347 38.9694 91.0648 39.0413 91.3779 39.1514C91.6995 39.2699 91.9894 39.4243 92.2476 39.6147C92.5099 39.8094 92.7384 40.0675 92.9331 40.3892C93.1278 40.7108 93.2801 41.1022 93.3901 41.5635C93.5002 42.0374 93.5552 42.6003 93.5552 43.252C93.5552 43.9756 93.4959 44.6294 93.3774 45.2134C93.2632 45.7974 93.0622 46.2967 92.7744 46.7114C92.4867 47.1261 92.0868 47.4456 91.5747 47.6699C91.0669 47.89 90.4173 48 89.626 48H86.7251ZM89.2261 47.0859C90.4321 47.0859 91.2637 46.8151 91.7207 46.2734C91.9577 45.9899 92.1227 45.6069 92.2158 45.1245C92.3132 44.6421 92.3618 44.0348 92.3618 43.3027C92.3618 42.7061 92.3195 42.1919 92.2349 41.7603C92.1545 41.3286 92.0127 40.9668 91.8096 40.6748C91.6022 40.387 91.325 40.1691 90.978 40.021C90.631 39.8729 90.1951 39.7988 89.6704 39.7988H87.9438V47.0859H89.2261ZM95.4722 48V38.8784H100.652L100.5 39.7988H96.6719V42.8647H99.7949V43.7471H96.6719V47.0796H100.639L100.493 48H95.4722ZM102.366 48V38.8784H103.572L108.339 46.1655V38.8784H109.456V47.9937H108.301L103.483 40.7129V48H102.366ZM117.245 48.1523C116.618 48.1523 116.108 48.0994 115.715 47.9937C115.321 47.8836 115.006 47.7694 114.769 47.6509L114.604 46.6479C114.879 46.7834 115.226 46.9082 115.645 47.0225C116.068 47.1367 116.563 47.1938 117.13 47.1938C117.778 47.1938 118.281 47.0838 118.641 46.8638C119.001 46.6437 119.181 46.2184 119.181 45.5879C119.181 45.224 119.117 44.9341 118.99 44.7183C118.863 44.5024 118.639 44.3162 118.317 44.1597C118 43.9989 117.551 43.8275 116.972 43.6455C116.371 43.4678 115.886 43.2731 115.518 43.0615C115.15 42.8457 114.881 42.5791 114.712 42.2617C114.547 41.9401 114.466 41.5317 114.471 41.0366C114.488 40.4526 114.634 39.9914 114.909 39.6528C115.188 39.3101 115.558 39.0667 116.02 38.9229C116.485 38.7747 117.006 38.7007 117.581 38.7007C117.958 38.7007 118.336 38.7345 118.717 38.8022C119.098 38.8657 119.46 38.9525 119.803 39.0625L119.936 40.1035C119.695 40.0062 119.354 39.9089 118.914 39.8115C118.474 39.7142 118.025 39.6655 117.568 39.6655C116.984 39.6655 116.513 39.7629 116.153 39.9575C115.793 40.1479 115.613 40.5203 115.613 41.0747C115.622 41.3413 115.681 41.5677 115.791 41.7539C115.905 41.9359 116.102 42.0988 116.381 42.2427C116.665 42.3866 117.065 42.5389 117.581 42.6997C118.055 42.8563 118.465 43.0107 118.812 43.1631C119.164 43.3112 119.454 43.4868 119.682 43.6899C119.911 43.8888 120.08 44.1427 120.19 44.4517C120.304 44.7563 120.361 45.1436 120.361 45.6133C120.361 46.3919 120.118 47.0098 119.631 47.4668C119.145 47.9238 118.349 48.1523 117.245 48.1523ZM122.158 48V38.8784H123.319V48H122.158ZM125.674 48V38.8784H128.404C129.072 38.8784 129.644 38.9461 130.118 39.0815C130.596 39.217 130.962 39.4709 131.216 39.8433C131.47 40.2157 131.597 40.7594 131.597 41.4746C131.597 42.1094 131.487 42.6087 131.267 42.9727C131.047 43.3324 130.763 43.5947 130.416 43.7598C130.069 43.9248 129.705 44.0306 129.324 44.0771L131.889 47.6382V48H130.74L128.137 44.1914H126.868V48H125.674ZM126.868 43.3027H128.29C128.713 43.3027 129.066 43.2752 129.35 43.2202C129.633 43.161 129.86 43.0636 130.029 42.9282C130.202 42.7928 130.323 42.6172 130.391 42.4014C130.463 42.1813 130.499 41.9084 130.499 41.5825C130.499 41.189 130.46 40.8737 130.384 40.6367C130.312 40.3997 130.183 40.2157 129.997 40.0845C129.815 39.9575 129.568 39.8708 129.254 39.8242C128.941 39.7777 128.552 39.7544 128.086 39.7544H126.868V43.3027ZM133.482 48V38.8784H138.662L138.509 39.7988H134.682V42.8647H137.805V43.7471H134.682V47.0796H138.649L138.503 48H133.482ZM140.375 48V38.8784H141.582L146.349 46.1655V38.8784H147.466V47.9937H146.311L141.493 40.7129V48H140.375ZM65.3225 65V57.876H66.4795V60.957H66.5185L69.4825 57.876H70.8345V57.915L66.4795 62.322V65H65.3225ZM69.7425 65V62.491C69.7425 61.9797 69.5865 61.581 69.2745 61.295C68.9625 61.009 68.4469 60.866 67.7275 60.866L68.4035 60.021C68.9495 60.021 69.4045 60.1207 69.7685 60.32C70.1412 60.5107 70.4229 60.788 70.6135 61.152C70.8042 61.516 70.8995 61.9537 70.8995 62.465V65H69.7425ZM75.3704 65.13C74.4344 65.13 73.7324 64.8873 73.2644 64.402C72.8051 63.908 72.5754 63.1367 72.5754 62.088C72.5754 61.9147 72.5797 61.7283 72.5884 61.529C72.6057 61.321 72.6231 61.1173 72.6404 60.918H75.3704V61.828H73.7324V62.088C73.7324 62.634 73.7931 63.063 73.9144 63.375C74.0357 63.6783 74.2134 63.8907 74.4474 64.012C74.6901 64.1333 74.9891 64.194 75.3444 64.194C75.7344 64.194 76.0724 64.1203 76.3584 63.973C76.6444 63.8257 76.8654 63.557 77.0214 63.167C77.1774 62.777 77.2554 62.218 77.2554 61.49C77.2554 60.8487 77.1861 60.3243 77.0474 59.917C76.9087 59.5097 76.6791 59.2063 76.3584 59.007C76.0464 58.8077 75.6217 58.708 75.0844 58.708C74.8071 58.708 74.5384 58.734 74.2784 58.786C74.0184 58.8293 73.7671 58.8987 73.5244 58.994C73.2817 59.0807 73.0434 59.1933 72.8094 59.332V58.253C72.9827 58.1577 73.1951 58.0753 73.4464 58.006C73.6977 57.928 73.9751 57.8673 74.2784 57.824C74.5817 57.772 74.8981 57.746 75.2274 57.746C75.9901 57.746 76.6054 57.902 77.0734 58.214C77.5501 58.5173 77.8967 58.9507 78.1134 59.514C78.3301 60.0687 78.4384 60.7273 78.4384 61.49C78.4384 62.2527 78.3387 62.907 78.1394 63.453C77.9401 63.999 77.6151 64.415 77.1644 64.701C76.7224 64.987 76.1244 65.13 75.3704 65.13ZM83.7453 65.13C83.1906 65.13 82.7096 65.0217 82.3023 64.805C81.9036 64.5797 81.6306 64.2677 81.4833 63.869H81.4313L81.3663 65H80.4173V57.876H81.5743V61.997C81.5743 62.4303 81.6479 62.8117 81.7953 63.141C81.9513 63.4617 82.1723 63.713 82.4583 63.895C82.7529 64.0683 83.1039 64.155 83.5113 64.155C84.0226 64.155 84.4039 64.0207 84.6553 63.752C84.9066 63.4833 85.0323 63.089 85.0323 62.569V57.876H86.1893V62.647C86.1893 63.219 86.0896 63.687 85.8903 64.051C85.6996 64.415 85.4223 64.688 85.0583 64.87C84.6943 65.0433 84.2566 65.13 83.7453 65.13ZM92.4716 65V60.255C92.4716 59.6917 92.3416 59.293 92.0816 59.059C91.8303 58.8163 91.4056 58.695 90.8076 58.695C90.3743 58.695 89.9583 58.7557 89.5596 58.877C89.1696 58.9897 88.7969 59.15 88.4416 59.358V58.279C88.6929 58.149 89.0309 58.0277 89.4556 57.915C89.8889 57.8023 90.3743 57.746 90.9116 57.746C91.3709 57.746 91.7609 57.798 92.0816 57.902C92.4109 58.006 92.6536 58.1967 92.8096 58.474C93.1129 58.6127 93.3209 58.8293 93.4336 59.124C93.5549 59.4187 93.6156 59.774 93.6156 60.19V65H92.4716ZM90.2356 65.13C89.4729 65.13 88.8879 64.9567 88.4806 64.61C88.0819 64.2547 87.8826 63.7477 87.8826 63.089C87.8826 62.3697 88.1426 61.815 88.6626 61.425C89.1913 61.035 90.0449 60.8053 91.2236 60.736L92.7056 60.645V61.607L91.3796 61.698C90.4956 61.7587 89.8846 61.8973 89.5466 62.114C89.2173 62.3307 89.0526 62.647 89.0526 63.063C89.0526 63.453 89.1739 63.739 89.4166 63.921C89.6679 64.103 90.0146 64.194 90.4566 64.194C90.6039 64.194 90.7383 64.1853 90.8596 64.168C90.9809 64.142 91.0979 64.1117 91.2106 64.077L91.3926 64.948C91.2279 65.0087 91.0459 65.052 90.8466 65.078C90.6559 65.1127 90.4523 65.13 90.2356 65.13ZM92.7706 58.877L92.1206 58.266C92.3459 58.2313 92.5583 58.1447 92.7576 58.006C92.9569 57.8673 93.0566 57.668 93.0566 57.408H94.1876C94.1876 57.6767 94.1226 57.915 93.9926 58.123C93.8713 58.3223 93.7023 58.487 93.4856 58.617C93.2689 58.7383 93.0306 58.825 92.7706 58.877ZM96.6741 60.528C96.3187 60.528 96.0284 60.476 95.8031 60.372C95.5864 60.2593 95.4304 60.1207 95.3351 59.956C95.2397 59.7827 95.1921 59.6007 95.1921 59.41C95.1921 59.28 95.2094 59.1457 95.2441 59.007C95.2874 58.8683 95.3394 58.7513 95.4001 58.656L96.3751 58.812C96.3577 58.8553 96.3361 58.916 96.3101 58.994C96.2927 59.072 96.2841 59.15 96.2841 59.228C96.2841 59.3407 96.3144 59.436 96.3751 59.514C96.4357 59.5833 96.5484 59.618 96.7131 59.618H98.5721V60.528H96.6741ZM96.6741 64.168C96.3187 64.168 96.0284 64.116 95.8031 64.012C95.5864 63.8993 95.4304 63.7607 95.3351 63.596C95.2397 63.4227 95.1921 63.2407 95.1921 63.05C95.1921 62.92 95.2094 62.7857 95.2441 62.647C95.2874 62.5083 95.3394 62.3913 95.4001 62.296L96.3751 62.452C96.3577 62.4953 96.3361 62.556 96.3101 62.634C96.2927 62.712 96.2841 62.79 96.2841 62.868C96.2841 62.9807 96.3144 63.076 96.3751 63.154C96.4357 63.2233 96.5484 63.258 96.7131 63.258H98.5721V64.168H96.6741ZM102.653 65.13C101.717 65.13 101.015 64.8873 100.547 64.402C100.087 63.908 99.8576 63.1367 99.8576 62.088C99.8576 61.9147 99.862 61.7283 99.8706 61.529C99.888 61.321 99.9053 61.1173 99.9226 60.918H102.653V61.828H101.015V62.088C101.015 62.634 101.075 63.063 101.197 63.375C101.318 63.6783 101.496 63.8907 101.73 64.012C101.972 64.1333 102.271 64.194 102.627 64.194C103.017 64.194 103.355 64.1203 103.641 63.973C103.927 63.8257 104.148 63.557 104.304 63.167C104.46 62.777 104.538 62.218 104.538 61.49C104.538 60.8487 104.468 60.3243 104.33 59.917C104.191 59.5097 103.961 59.2063 103.641 59.007C103.329 58.8077 102.904 58.708 102.367 58.708C102.089 58.708 101.821 58.734 101.561 58.786C101.301 58.8293 101.049 58.8987 100.807 58.994C100.564 59.0807 100.326 59.1933 100.092 59.332V58.253C100.265 58.1577 100.477 58.0753 100.729 58.006C100.98 57.928 101.257 57.8673 101.561 57.824C101.864 57.772 102.18 57.746 102.51 57.746C103.272 57.746 103.888 57.902 104.356 58.214C104.832 58.5173 105.179 58.9507 105.396 59.514C105.612 60.0687 105.721 60.7273 105.721 61.49C105.721 62.2527 105.621 62.907 105.422 63.453C105.222 63.999 104.897 64.415 104.447 64.701C104.005 64.987 103.407 65.13 102.653 65.13ZM109.61 65V59.943C109.61 59.5183 109.511 59.2063 109.311 59.007C109.121 58.8077 108.796 58.708 108.336 58.708C108.024 58.708 107.73 58.7513 107.452 58.838C107.184 58.916 106.924 59.0287 106.672 59.176V58.136C106.846 58.0493 107.093 57.9627 107.413 57.876C107.734 57.7893 108.115 57.746 108.557 57.746C109.008 57.746 109.398 57.811 109.727 57.941C110.057 58.071 110.312 58.2877 110.494 58.591C110.676 58.8857 110.767 59.28 110.767 59.774V65H109.61ZM115.308 65.13C114.614 65.13 114.068 64.9697 113.67 64.649C113.28 64.3197 113.002 63.8777 112.838 63.323C112.682 62.7683 112.604 62.1573 112.604 61.49C112.604 60.7533 112.677 60.1467 112.825 59.67C112.981 59.1847 113.197 58.8033 113.475 58.526C113.761 58.24 114.099 58.0407 114.489 57.928C114.887 57.8067 115.325 57.746 115.802 57.746C116.495 57.746 117.058 57.85 117.492 58.058C117.934 58.2573 118.259 58.5433 118.467 58.916C118.675 59.2887 118.779 59.735 118.779 60.255V65H117.635V60.359C117.635 59.8217 117.5 59.4143 117.232 59.137C116.963 58.851 116.499 58.708 115.841 58.708C115.442 58.708 115.082 58.7817 114.762 58.929C114.45 59.0763 114.203 59.3493 114.021 59.748C113.847 60.1467 113.761 60.7317 113.761 61.503C113.761 62.0057 113.808 62.4607 113.904 62.868C114.008 63.2667 114.185 63.583 114.437 63.817C114.688 64.051 115.039 64.168 115.49 64.168C115.62 64.168 115.741 64.1593 115.854 64.142C115.966 64.1247 116.075 64.0987 116.179 64.064L116.296 64.961C116.157 65.0217 115.997 65.065 115.815 65.091C115.641 65.117 115.472 65.13 115.308 65.13Z" fill="#1A2A40"/>
</g>
<defs>
<filter id="filter0_d_89_11" x="0.626953" y="0" width="198.373" height="111" filterUnits="userSpaceOnUse" color-interpolation-filters="sRGB">
<feFlood flood-opacity="0" result="BackgroundImageFix"/>
<feColorMatrix in="SourceAlpha" type="matrix" values="0 0 0 0 0 0 0 0 0 0 0 0 0 0 0 0 0 0 127 0" result="hardAlpha"/>
<feOffset dx="8" dy="8"/>
<feGaussianBlur stdDeviation="11.5"/>
<feComposite in2="hardAlpha" operator="out"/>
<feColorMatrix type="matrix" values="0 0 0 0 0 0 0 0 0 0 0 0 0 0 0 0 0 0 0.25 0"/>
<feBlend mode="normal" in2="BackgroundImageFix" result="effect1_dropShadow_89_11"/>
<feBlend mode="normal" in="SourceGraphic" in2="effect1_dropShadow_89_11" result="shape"/>
</filter>
<filter id="filter1_d_89_11" x="36.2368" y="34.8831" width="123.129" height="42.1468" filterUnits="userSpaceOnUse" color-interpolation-filters="sRGB">
<feFlood flood-opacity="0" result="BackgroundImageFix"/>
<feColorMatrix in="SourceAlpha" type="matrix" values="0 0 0 0 0 0 0 0 0 0 0 0 0 0 0 0 0 0 127 0" result="hardAlpha"/>
<feOffset dx="6" dy="6"/>
<feGaussianBlur stdDeviation="2.95"/>
<feComposite in2="hardAlpha" operator="out"/>
<feColorMatrix type="matrix" values="0 0 0 0 0 0 0 0 0 0 0 0 0 0 0 0 0 0 0.25 0"/>
<feBlend mode="normal" in2="BackgroundImageFix" result="effect1_dropShadow_89_11"/>
<feBlend mode="normal" in="SourceGraphic" in2="effect1_dropShadow_89_11" result="shape"/>
</filter>
</defs>
</svg>
