<svg width="146" height="111" viewBox="0 0 146 111" fill="none" xmlns="http://www.w3.org/2000/svg">
<g filter="url(#filter0_d_89_12)">
<rect x="15.5186" y="15" width="99.4811" height="65" rx="19" fill="white"/>
</g>
<path d="M9.75812 81.5041L18.1833 64.6689L28.1573 75.2241L9.75812 81.5041Z" fill="white"/>
<g filter="url(#filter1_d_89_12)">
<path d="M32.0019 43.5455L34.8087 51.5043H34.9195L37.7263 43.5455H38.9266L35.455 53H34.2732L30.8016 43.5455H32.0019ZM41.5442 43.5455V53H40.3993V43.5455H41.5442ZM43.3227 44.5611V43.5455H50.4136V44.5611H47.4406V53H46.2957V44.5611H43.3227ZM51.4638 53H50.2635L53.7351 43.5455H54.9169L58.3885 53H57.1883L54.363 45.0412H54.2891L51.4638 53ZM51.907 49.3068H56.7451V50.3224H51.907V49.3068ZM59.8612 43.5455H61.2277L64.4407 51.3935H64.5515L67.7646 43.5455H69.1311V53H68.0601V45.8168H67.9677L65.0132 53H63.9791L61.0245 45.8168H60.9322V53H59.8612V43.5455ZM72.5715 43.5455V53H71.4266V43.5455H72.5715ZM82.3642 43.5455V53H81.2563L76.1043 45.5767H76.0119V53H74.8671V43.5455H75.975L81.1455 50.9872H81.2378V43.5455H82.3642ZM88.3114 53V43.5455H91.6168C92.2754 43.5455 92.8186 43.6593 93.2464 43.8871C93.6742 44.1117 93.9927 44.4149 94.202 44.7965C94.4113 45.1751 94.5159 45.5952 94.5159 46.0568C94.5159 46.4631 94.4436 46.7985 94.299 47.0632C94.1574 47.3279 93.9697 47.5372 93.7358 47.6911C93.5049 47.8449 93.2541 47.9588 92.9833 48.0327V48.125C93.2726 48.1435 93.5634 48.245 93.8558 48.4297C94.1482 48.6143 94.3928 48.879 94.5898 49.2237C94.7868 49.5684 94.8853 49.9901 94.8853 50.4886C94.8853 50.9626 94.7775 51.3888 94.5621 51.7674C94.3467 52.146 94.0066 52.446 93.5419 52.6676C93.0771 52.8892 92.4724 53 91.7276 53H88.3114ZM89.4563 51.9844H91.7276C92.4755 51.9844 93.0063 51.8397 93.3203 51.5504C93.6373 51.258 93.7958 50.9041 93.7958 50.4886C93.7958 50.1686 93.7142 49.8731 93.5511 49.6023C93.388 49.3284 93.1556 49.1098 92.854 48.9467C92.5524 48.7805 92.1954 48.6974 91.783 48.6974H89.4563V51.9844ZM89.4563 47.7003H91.5799C91.9246 47.7003 92.2354 47.6326 92.5124 47.4972C92.7925 47.3617 93.014 47.1709 93.1772 46.9247C93.3434 46.6785 93.4264 46.3892 93.4264 46.0568C93.4264 45.6413 93.2818 45.2889 92.9925 44.9996C92.7032 44.7073 92.2446 44.5611 91.6168 44.5611H89.4563V47.7003ZM99.5548 53.1293C99.0132 53.1293 98.5253 53.0215 98.0914 52.8061C97.6574 52.5907 97.3097 52.2952 97.0481 51.9197C96.7865 51.5443 96.6434 51.1165 96.6187 50.6364H97.7267C97.7698 51.0642 97.9637 51.4181 98.3084 51.6982C98.6561 51.9751 99.0716 52.1136 99.5548 52.1136C99.9426 52.1136 100.287 52.0228 100.589 51.8413C100.894 51.6597 101.132 51.4104 101.304 51.0934C101.48 50.7733 101.568 50.4117 101.568 50.0085C101.568 49.5961 101.477 49.2283 101.295 48.9052C101.117 48.579 100.871 48.322 100.557 48.1342C100.243 47.9465 99.8841 47.8511 99.481 47.848C99.1917 47.8449 98.8947 47.8896 98.59 47.9819C98.2853 48.0711 98.0345 48.1866 97.8375 48.3281L96.7665 48.1989L97.3389 43.5455H102.251V44.5611H98.2991L97.9668 47.3494H98.0222C98.216 47.1955 98.4592 47.0678 98.7516 46.9663C99.0439 46.8647 99.3486 46.8139 99.6656 46.8139C100.244 46.8139 100.76 46.9524 101.212 47.2294C101.668 47.5033 102.025 47.8788 102.283 48.3558C102.545 48.8329 102.676 49.3776 102.676 49.9901C102.676 50.5933 102.54 51.1319 102.269 51.6058C102.002 52.0767 101.632 52.4491 101.161 52.723C100.69 52.9938 100.155 53.1293 99.5548 53.1293Z" fill="#1A2A40"/>
</g>
<defs>
<filter id="filter0_d_89_12" x="0.518555" y="0" width="145.481" height="111" filterUnits="userSpaceOnUse" color-interpolation-filters="sRGB">
<feFlood flood-opacity="0" result="BackgroundImageFix"/>
<feColorMatrix in="SourceAlpha" type="matrix" values="0 0 0 0 0 0 0 0 0 0 0 0 0 0 0 0 0 0 127 0" result="hardAlpha"/>
<feOffset dx="8" dy="8"/>
<feGaussianBlur stdDeviation="11.5"/>
<feComposite in2="hardAlpha" operator="out"/>
<feColorMatrix type="matrix" values="0 0 0 0 0 0 0 0 0 0 0 0 0 0 0 0 0 0 0.25 0"/>
<feBlend mode="normal" in2="BackgroundImageFix" result="effect1_dropShadow_89_12"/>
<feBlend mode="normal" in="SourceGraphic" in2="effect1_dropShadow_89_12" result="shape"/>
</filter>
<filter id="filter1_d_89_12" x="30.8018" y="43.5454" width="83.774" height="21.4837" filterUnits="userSpaceOnUse" color-interpolation-filters="sRGB">
<feFlood flood-opacity="0" result="BackgroundImageFix"/>
<feColorMatrix in="SourceAlpha" type="matrix" values="0 0 0 0 0 0 0 0 0 0 0 0 0 0 0 0 0 0 127 0" result="hardAlpha"/>
<feOffset dx="6" dy="6"/>
<feGaussianBlur stdDeviation="2.95"/>
<feComposite in2="hardAlpha" operator="out"/>
<feColorMatrix type="matrix" values="0 0 0 0 0 0 0 0 0 0 0 0 0 0 0 0 0 0 0.25 0"/>
<feBlend mode="normal" in2="BackgroundImageFix" result="effect1_dropShadow_89_12"/>
<feBlend mode="normal" in="SourceGraphic" in2="effect1_dropShadow_89_12" result="shape"/>
</filter>
</defs>
</svg>
