<svg width="177" height="113" viewBox="0 0 177 113" fill="none" xmlns="http://www.w3.org/2000/svg">
<g filter="url(#filter0_d_96_37)">
<rect width="130.352" height="66.5819" rx="19" transform="matrix(-1 0 0 1 145.353 15.3828)" fill="white"/>
</g>
<path d="M152.9 83.5054L141.861 66.2605L128.792 77.0726L152.9 83.5054Z" fill="white"/>
<g filter="url(#filter1_d_96_37)">
<path d="M46.0853 48.1672V45.8402C46.0853 45.5109 46.1157 45.2465 46.1763 45.0472C46.237 44.8392 46.3193 44.6702 46.4233 44.5402C46.5273 44.4102 46.64 44.3019 46.7613 44.2152L46.7483 44.1632H44.4863L44.7853 43.2532H48.4513V44.1632C48.1307 44.1632 47.849 44.2672 47.6063 44.4752C47.3637 44.6832 47.2423 45.0645 47.2423 45.6192V48.1672H46.0853ZM47.5023 54.1212C47.2683 54.1212 47.043 54.0822 46.8263 54.0042C46.6097 53.9262 46.432 53.7875 46.2933 53.5882C46.1547 53.3889 46.0853 53.1115 46.0853 52.7562V46.8672H47.2423V52.6132C47.2423 52.8125 47.2857 52.9555 47.3723 53.0422C47.459 53.1289 47.5977 53.1722 47.7883 53.1722C47.8663 53.1722 47.9487 53.1635 48.0353 53.1462C48.122 53.1289 48.2043 53.1072 48.2823 53.0812L48.4383 53.9262C48.2737 54.0042 48.1133 54.0562 47.9573 54.0822C47.8013 54.1082 47.6497 54.1212 47.5023 54.1212ZM51.5316 54.1212C51.0203 54.1212 50.5436 54.0735 50.1016 53.9782C49.6683 53.8742 49.2999 53.7529 48.9966 53.6142L49.3346 52.6782C49.5166 52.7475 49.7246 52.8212 49.9586 52.8992C50.1926 52.9772 50.4439 53.0422 50.7126 53.0942C50.9899 53.1375 51.2716 53.1592 51.5576 53.1592C52.0169 53.1592 52.3983 53.0725 52.7016 52.8992C53.0049 52.7259 53.1566 52.4745 53.1566 52.1452C53.1566 51.9459 53.1003 51.7769 52.9876 51.6382C52.8836 51.4909 52.7189 51.3565 52.4936 51.2352C52.2683 51.1139 51.9779 50.9969 51.6226 50.8842C51.0766 50.7109 50.6129 50.5289 50.2316 50.3382C49.8589 50.1389 49.5729 49.9049 49.3736 49.6362C49.1829 49.3589 49.0876 49.0165 49.0876 48.6092C49.0876 48.2452 49.1829 47.9245 49.3736 47.6472C49.5729 47.3612 49.8763 47.1402 50.2836 46.9842C50.6996 46.8195 51.2283 46.7372 51.8696 46.7372C52.2856 46.7372 52.6756 46.7762 53.0396 46.8542C53.4123 46.9235 53.7026 47.0232 53.9106 47.1532V48.1282C53.7633 48.0589 53.5769 47.9895 53.3516 47.9202C53.1349 47.8509 52.8966 47.7945 52.6366 47.7512C52.3766 47.7079 52.1079 47.6862 51.8306 47.6862C51.2499 47.6862 50.8383 47.7772 50.5956 47.9592C50.3616 48.1325 50.2446 48.3319 50.2446 48.5572C50.2446 48.7479 50.2966 48.9082 50.4006 49.0382C50.5133 49.1682 50.6996 49.2939 50.9596 49.4152C51.2283 49.5365 51.5879 49.6752 52.0386 49.8312C52.4546 49.9699 52.8359 50.1302 53.1826 50.3122C53.5293 50.4942 53.8023 50.7239 54.0016 51.0012C54.2096 51.2699 54.3136 51.6165 54.3136 52.0412C54.3136 52.4052 54.2226 52.7475 54.0406 53.0682C53.8673 53.3802 53.5769 53.6359 53.1696 53.8352C52.7623 54.0259 52.2163 54.1212 51.5316 54.1212ZM50.675 45.7362V45.1642C50.8484 45.1295 51.026 45.0819 51.208 45.0212C51.39 44.9519 51.5417 44.8652 51.663 44.7612C51.7844 44.6485 51.845 44.5142 51.845 44.3582C51.845 44.2542 51.8147 44.1675 51.754 44.0982C51.6847 44.0202 51.5807 43.9812 51.442 43.9812C51.3554 43.9812 51.2687 43.9985 51.182 44.0332C51.0867 44.0679 51.0044 44.0982 50.935 44.1242L50.675 43.4092C50.8484 43.2705 51.0434 43.1795 51.26 43.1362C51.468 43.0929 51.637 43.0712 51.767 43.0712C52.1137 43.0712 52.3867 43.1665 52.586 43.3572C52.7767 43.5479 52.872 43.7905 52.872 44.0852C52.872 44.3279 52.8114 44.5402 52.69 44.7222C52.56 44.8955 52.4127 45.0342 52.248 45.1382L52.118 44.8262H54.705V45.7362H50.675ZM57.4893 54.1212C57.2553 54.1212 57.0299 54.0822 56.8133 54.0042C56.5966 53.9262 56.4189 53.7875 56.2803 53.5882C56.1416 53.3889 56.0723 53.1115 56.0723 52.7562V46.8672H57.2293V52.6132C57.2293 52.8125 57.2726 52.9555 57.3593 53.0422C57.4459 53.1289 57.5846 53.1722 57.7753 53.1722C57.8533 53.1722 57.9356 53.1635 58.0223 53.1462C58.1089 53.1289 58.1913 53.1072 58.2693 53.0812L58.4253 53.9262C58.2606 54.0042 58.1003 54.0562 57.9443 54.0822C57.7883 54.1082 57.6366 54.1212 57.4893 54.1212ZM61.0383 54.1212C60.8043 54.1212 60.5789 54.0822 60.3623 54.0042C60.1456 53.9262 59.9679 53.7875 59.8293 53.5882C59.6906 53.3889 59.6213 53.1115 59.6213 52.7562V46.8672H60.7783V52.6132C60.7783 52.8125 60.8216 52.9555 60.9083 53.0422C60.9949 53.1289 61.1336 53.1722 61.3243 53.1722C61.4023 53.1722 61.4846 53.1635 61.5713 53.1462C61.6579 53.1289 61.7403 53.1072 61.8183 53.0812L61.9743 53.9262C61.8096 54.0042 61.6493 54.0562 61.4933 54.0822C61.3373 54.1082 61.1856 54.1212 61.0383 54.1212ZM65.661 54.1212C64.725 54.1212 64.023 53.8785 63.555 53.3932C63.0957 52.8992 62.866 52.1279 62.866 51.0792C62.866 50.9059 62.8703 50.7195 62.879 50.5202C62.8963 50.3122 62.9137 50.1085 62.931 49.9092H65.661V50.8192H64.023V51.0792C64.023 51.6252 64.0837 52.0542 64.205 52.3662C64.3263 52.6695 64.504 52.8819 64.738 53.0032C64.9807 53.1245 65.2797 53.1852 65.635 53.1852C66.025 53.1852 66.363 53.1115 66.649 52.9642C66.935 52.8169 67.156 52.5482 67.312 52.1582C67.468 51.7682 67.546 51.2092 67.546 50.4812C67.546 49.8399 67.4767 49.3155 67.338 48.9082C67.1993 48.5009 66.9697 48.1975 66.649 47.9982C66.337 47.7989 65.9123 47.6992 65.375 47.6992C65.0977 47.6992 64.829 47.7252 64.569 47.7772C64.309 47.8205 64.0577 47.8899 63.815 47.9852C63.5723 48.0719 63.334 48.1845 63.1 48.3232V47.2442C63.2733 47.1489 63.4857 47.0665 63.737 46.9972C63.9883 46.9192 64.2657 46.8585 64.569 46.8152C64.8723 46.7632 65.1887 46.7372 65.518 46.7372C66.2807 46.7372 66.896 46.8932 67.364 47.2052C67.8407 47.5085 68.1873 47.9419 68.404 48.5052C68.6207 49.0599 68.729 49.7185 68.729 50.4812C68.729 51.2439 68.6293 51.8982 68.43 52.4442C68.2307 52.9902 67.9057 53.4062 67.455 53.6922C67.013 53.9782 66.415 54.1212 65.661 54.1212ZM74.7768 53.9912V49.2462C74.7768 48.6829 74.6468 48.2842 74.3868 48.0502C74.1355 47.8075 73.7108 47.6862 73.1128 47.6862C72.6795 47.6862 72.2635 47.7469 71.8648 47.8682C71.4748 47.9809 71.1022 48.1412 70.7468 48.3492V47.2702C70.9982 47.1402 71.3362 47.0189 71.7608 46.9062C72.1942 46.7935 72.6795 46.7372 73.2168 46.7372C73.6762 46.7372 74.0748 46.7892 74.4128 46.8932C74.7508 46.9885 75.0282 47.1359 75.2448 47.3352C75.4702 47.5345 75.6392 47.7902 75.7518 48.1022C75.8645 48.4055 75.9208 48.7652 75.9208 49.1812V53.9912H74.7768ZM72.5408 54.1212C71.7782 54.1212 71.1932 53.9479 70.7858 53.6012C70.3872 53.2459 70.1878 52.7389 70.1878 52.0802C70.1878 51.3609 70.4478 50.8062 70.9678 50.4162C71.4965 50.0262 72.3502 49.7965 73.5288 49.7272L75.0108 49.6362V50.5982L73.6848 50.6892C72.8008 50.7499 72.1898 50.8885 71.8518 51.1052C71.5225 51.3219 71.3578 51.6382 71.3578 52.0542C71.3578 52.4442 71.4792 52.7302 71.7218 52.9122C71.9732 53.0942 72.3198 53.1852 72.7618 53.1852C72.9092 53.1852 73.0435 53.1765 73.1648 53.1592C73.2862 53.1332 73.4032 53.1029 73.5158 53.0682L73.6978 53.9392C73.5332 53.9999 73.3512 54.0432 73.1518 54.0692C72.9612 54.1039 72.7575 54.1212 72.5408 54.1212ZM77.9656 53.9912V51.5212C77.9656 50.9752 78.0869 50.5809 78.3296 50.3382C78.5723 50.0869 78.8799 49.9135 79.2526 49.8182L79.2656 49.7792L77.8356 49.2332V48.8042C77.8356 48.4489 77.9526 48.1152 78.1866 47.8032C78.4206 47.4825 78.7543 47.2269 79.1876 47.0362C79.6296 46.8369 80.1539 46.7372 80.7606 46.7372C81.2893 46.7372 81.7789 46.8239 82.2296 46.9972C82.6803 47.1619 83.0399 47.4262 83.3086 47.7902C83.5859 48.1455 83.7246 48.6135 83.7246 49.1942V53.9912H82.5676V49.3112C82.5676 48.7305 82.3899 48.3189 82.0346 48.0762C81.6879 47.8249 81.2589 47.6992 80.7476 47.6992C80.2189 47.6992 79.7986 47.8119 79.4866 48.0372C79.1746 48.2539 79.0186 48.5312 79.0186 48.8692L80.4226 49.5712L80.3186 50.1952C79.9979 50.1952 79.7163 50.3035 79.4736 50.5202C79.2396 50.7282 79.1226 51.0619 79.1226 51.5212V53.9912H77.9656ZM88.3475 54.1212C87.4115 54.1212 86.7095 53.8785 86.2415 53.3932C85.7822 52.8992 85.5525 52.1279 85.5525 51.0792C85.5525 50.9059 85.5568 50.7195 85.5655 50.5202C85.5828 50.3122 85.6002 50.1085 85.6175 49.9092H88.3475V50.8192H86.7095V51.0792C86.7095 51.6252 86.7702 52.0542 86.8915 52.3662C87.0128 52.6695 87.1905 52.8819 87.4245 53.0032C87.6672 53.1245 87.9662 53.1852 88.3215 53.1852C88.7115 53.1852 89.0495 53.1115 89.3355 52.9642C89.6215 52.8169 89.8425 52.5482 89.9985 52.1582C90.1545 51.7682 90.2325 51.2092 90.2325 50.4812C90.2325 49.8399 90.1632 49.3155 90.0245 48.9082C89.8858 48.5009 89.6562 48.1975 89.3355 47.9982C89.0235 47.7989 88.5988 47.6992 88.0615 47.6992C87.7842 47.6992 87.5155 47.7252 87.2555 47.7772C86.9955 47.8205 86.7442 47.8899 86.5015 47.9852C86.2588 48.0719 86.0205 48.1845 85.7865 48.3232V47.2442C85.9598 47.1489 86.1722 47.0665 86.4235 46.9972C86.6748 46.9192 86.9522 46.8585 87.2555 46.8152C87.5588 46.7632 87.8752 46.7372 88.2045 46.7372C88.9672 46.7372 89.5825 46.8932 90.0505 47.2052C90.5272 47.5085 90.8738 47.9419 91.0905 48.5052C91.3072 49.0599 91.4155 49.7185 91.4155 50.4812C91.4155 51.2439 91.3158 51.8982 91.1165 52.4442C90.9172 52.9902 90.5922 53.4062 90.1415 53.6922C89.6995 53.9782 89.1015 54.1212 88.3475 54.1212ZM95.8124 54.1212C94.8764 54.1212 94.1744 53.8785 93.7064 53.3932C93.247 52.8992 93.0174 52.1279 93.0174 51.0792C93.0174 50.9059 93.0217 50.7195 93.0304 50.5202C93.0477 50.3122 93.065 50.1085 93.0824 49.9092H95.8124V50.8192H94.1744V51.0792C94.1744 51.6252 94.235 52.0542 94.3564 52.3662C94.4777 52.6695 94.6554 52.8819 94.8894 53.0032C95.132 53.1245 95.431 53.1852 95.7864 53.1852C96.1764 53.1852 96.5144 53.1115 96.8004 52.9642C97.0864 52.8169 97.3074 52.5482 97.4634 52.1582C97.6194 51.7682 97.6974 51.2092 97.6974 50.4812C97.6974 49.8399 97.6237 49.3155 97.4764 48.9082C97.3377 48.5009 97.108 48.1975 96.7874 47.9982C96.4754 47.7989 96.055 47.6992 95.5264 47.6992C95.1104 47.6992 94.7117 47.7512 94.3304 47.8552C93.9577 47.9592 93.598 48.1152 93.2514 48.3232V47.2442C93.4247 47.1489 93.637 47.0665 93.8884 46.9972C94.1397 46.9192 94.417 46.8585 94.7204 46.8152C95.0237 46.7632 95.34 46.7372 95.6694 46.7372C96.1287 46.7372 96.536 46.8022 96.8914 46.9322C97.2554 47.0535 97.5587 47.2615 97.8014 47.5562C98.1914 47.8075 98.4687 48.1889 98.6334 48.7002C98.798 49.2115 98.8804 49.8095 98.8804 50.4942C98.8804 51.2569 98.7807 51.9112 98.5814 52.4572C98.382 52.9945 98.057 53.4062 97.6064 53.6922C97.1644 53.9782 96.5664 54.1212 95.8124 54.1212ZM97.7754 47.8682L97.1254 47.2572C97.3507 47.2225 97.563 47.1359 97.7624 46.9972C97.9617 46.8585 98.0614 46.6592 98.0614 46.3992H99.1924C99.1924 46.6679 99.1274 46.9062 98.9974 47.1142C98.876 47.3135 98.707 47.4782 98.4904 47.6082C98.2737 47.7295 98.0354 47.8162 97.7754 47.8682ZM103.087 54.1212C102.151 54.1212 101.449 53.8785 100.981 53.3932C100.521 52.8992 100.292 52.1279 100.292 51.0792C100.292 50.9059 100.296 50.7195 100.305 50.5202C100.322 50.3122 100.339 50.1085 100.357 49.9092H103.087V50.8192H101.449V51.0792C101.449 51.6252 101.509 52.0542 101.631 52.3662C101.752 52.6695 101.93 52.8819 102.164 53.0032C102.406 53.1245 102.705 53.1852 103.061 53.1852C103.451 53.1852 103.789 53.1115 104.075 52.9642C104.361 52.8169 104.582 52.5482 104.738 52.1582C104.894 51.7682 104.972 51.2092 104.972 50.4812C104.972 49.8399 104.902 49.3155 104.764 48.9082C104.625 48.5009 104.395 48.1975 104.075 47.9982C103.763 47.7989 103.338 47.6992 102.801 47.6992C102.523 47.6992 102.255 47.7252 101.995 47.7772C101.735 47.8205 101.483 47.8899 101.241 47.9852C100.998 48.0719 100.76 48.1845 100.526 48.3232V47.2442C100.699 47.1489 100.911 47.0665 101.163 46.9972C101.414 46.9192 101.691 46.8585 101.995 46.8152C102.298 46.7632 102.614 46.7372 102.944 46.7372C103.706 46.7372 104.322 46.8932 104.79 47.2052C105.266 47.5085 105.613 47.9419 105.83 48.5052C106.046 49.0599 106.155 49.7185 106.155 50.4812C106.155 51.2439 106.055 51.8982 105.856 52.4442C105.656 52.9902 105.331 53.4062 104.881 53.6922C104.439 53.9782 103.841 54.1212 103.087 54.1212ZM112.203 53.9912V49.2462C112.203 48.6829 112.073 48.2842 111.813 48.0502C111.561 47.8075 111.137 47.6862 110.539 47.6862C110.105 47.6862 109.689 47.7469 109.291 47.8682C108.901 47.9809 108.528 48.1412 108.173 48.3492V47.2702C108.424 47.1402 108.762 47.0189 109.187 46.9062C109.62 46.7935 110.105 46.7372 110.643 46.7372C111.102 46.7372 111.501 46.7892 111.839 46.8932C112.177 46.9885 112.454 47.1359 112.671 47.3352C112.896 47.5345 113.065 47.7902 113.178 48.1022C113.29 48.4055 113.347 48.7652 113.347 49.1812V53.9912H112.203ZM109.967 54.1212C109.204 54.1212 108.619 53.9479 108.212 53.6012C107.813 53.2459 107.614 52.7389 107.614 52.0802C107.614 51.3609 107.874 50.8062 108.394 50.4162C108.922 50.0262 109.776 49.7965 110.955 49.7272L112.437 49.6362V50.5982L111.111 50.6892C110.227 50.7499 109.616 50.8885 109.278 51.1052C108.948 51.3219 108.784 51.6382 108.784 52.0542C108.784 52.4442 108.905 52.7302 109.148 52.9122C109.399 53.0942 109.746 53.1852 110.188 53.1852C110.335 53.1852 110.469 53.1765 110.591 53.1592C110.712 53.1332 110.829 53.1029 110.942 53.0682L111.124 53.9392C110.959 53.9999 110.777 54.0432 110.578 54.0692C110.387 54.1039 110.183 54.1212 109.967 54.1212ZM111.026 46.1132C110.965 46.0179 110.917 45.8965 110.883 45.7492C110.839 45.5932 110.818 45.4415 110.818 45.2942C110.818 45.1122 110.857 44.9432 110.935 44.7872C111.013 44.6225 111.151 44.4882 111.351 44.3842C111.55 44.2802 111.827 44.2282 112.183 44.2282H113.964V45.1252H112.482C112.308 45.1252 112.17 45.1599 112.066 45.2292C111.962 45.2899 111.91 45.3982 111.91 45.5542C111.91 45.6149 111.923 45.6799 111.949 45.7492C111.966 45.8185 111.992 45.8879 112.027 45.9572L111.026 46.1132Z" fill="#1A2A40"/>
</g>
<defs>
<filter id="filter0_d_96_37" x="0.000976562" y="0.382812" width="176.352" height="112.582" filterUnits="userSpaceOnUse" color-interpolation-filters="sRGB">
<feFlood flood-opacity="0" result="BackgroundImageFix"/>
<feColorMatrix in="SourceAlpha" type="matrix" values="0 0 0 0 0 0 0 0 0 0 0 0 0 0 0 0 0 0 127 0" result="hardAlpha"/>
<feOffset dx="8" dy="8"/>
<feGaussianBlur stdDeviation="11.5"/>
<feComposite in2="hardAlpha" operator="out"/>
<feColorMatrix type="matrix" values="0 0 0 0 0 0 0 0 0 0 0 0 0 0 0 0 0 0 0.25 0"/>
<feBlend mode="normal" in2="BackgroundImageFix" result="effect1_dropShadow_96_37"/>
<feBlend mode="normal" in="SourceGraphic" in2="effect1_dropShadow_96_37" result="shape"/>
</filter>
<filter id="filter1_d_96_37" x="44.4863" y="43.0713" width="81.3771" height="22.9498" filterUnits="userSpaceOnUse" color-interpolation-filters="sRGB">
<feFlood flood-opacity="0" result="BackgroundImageFix"/>
<feColorMatrix in="SourceAlpha" type="matrix" values="0 0 0 0 0 0 0 0 0 0 0 0 0 0 0 0 0 0 127 0" result="hardAlpha"/>
<feOffset dx="6" dy="6"/>
<feGaussianBlur stdDeviation="2.95"/>
<feComposite in2="hardAlpha" operator="out"/>
<feColorMatrix type="matrix" values="0 0 0 0 0 0 0 0 0 0 0 0 0 0 0 0 0 0 0.25 0"/>
<feBlend mode="normal" in2="BackgroundImageFix" result="effect1_dropShadow_96_37"/>
<feBlend mode="normal" in="SourceGraphic" in2="effect1_dropShadow_96_37" result="shape"/>
</filter>
</defs>
</svg>
