<svg width="146" height="115" viewBox="0 0 146 115" fill="none" xmlns="http://www.w3.org/2000/svg">
<g filter="url(#filter0_d_89_14)">
<rect width="99.4811" height="67.5103" rx="19" transform="matrix(1 0 0 -1 15.5195 83.4019)" fill="white"/>
</g>
<path d="M9.75861 14.3294L18.1838 31.8148L28.1578 20.8519L9.75861 14.3294Z" fill="white"/>
<g filter="url(#filter1_d_89_14)">
<path d="M45.2504 55.13C44.2277 55.13 43.4954 54.896 43.0534 54.428C42.6114 53.96 42.3904 53.2927 42.3904 52.426V47.876H43.5474V52.439C43.5474 53.0197 43.6861 53.453 43.9634 53.739C44.2407 54.025 44.6697 54.168 45.2504 54.168C45.8397 54.168 46.2731 54.025 46.5504 53.739C46.8364 53.453 46.9794 53.0197 46.9794 52.439V45.315H48.1364V52.426C48.1364 53.2927 47.9111 53.96 47.4604 54.428C47.0184 54.896 46.2817 55.13 45.2504 55.13ZM54.4345 55V50.255C54.4345 49.6917 54.3045 49.293 54.0445 49.059C53.7932 48.8163 53.3685 48.695 52.7705 48.695C52.3372 48.695 51.9212 48.7557 51.5225 48.877C51.1325 48.9897 50.7598 49.15 50.4045 49.358V48.279C50.6558 48.149 50.9938 48.0277 51.4185 47.915C51.8518 47.8023 52.3372 47.746 52.8745 47.746C53.3338 47.746 53.7325 47.798 54.0705 47.902C54.4085 47.9973 54.6858 48.1447 54.9025 48.344C55.1278 48.5433 55.2968 48.799 55.4095 49.111C55.5222 49.4143 55.5785 49.774 55.5785 50.19V55H54.4345ZM52.1985 55.13C51.4358 55.13 50.8508 54.9567 50.4435 54.61C50.0448 54.2547 49.8455 53.7477 49.8455 53.089C49.8455 52.3697 50.1055 51.815 50.6255 51.425C51.1542 51.035 52.0078 50.8053 53.1865 50.736L54.6685 50.645V51.607L53.3425 51.698C52.4585 51.7587 51.8475 51.8973 51.5095 52.114C51.1802 52.3307 51.0155 52.647 51.0155 53.063C51.0155 53.453 51.1368 53.739 51.3795 53.921C51.6308 54.103 51.9775 54.194 52.4195 54.194C52.5668 54.194 52.7012 54.1853 52.8225 54.168C52.9438 54.142 53.0608 54.1117 53.1735 54.077L53.3555 54.948C53.1908 55.0087 53.0088 55.052 52.8095 55.078C52.6188 55.1127 52.4152 55.13 52.1985 55.13ZM60.2103 55.13C59.2743 55.13 58.5723 54.8873 58.1043 54.402C57.6449 53.908 57.4153 53.1367 57.4153 52.088C57.4153 51.9147 57.4196 51.7283 57.4283 51.529C57.4456 51.321 57.4629 51.1173 57.4803 50.918H60.2103V51.828H58.5723V52.088C58.5723 52.634 58.6329 53.063 58.7543 53.375C58.8756 53.6783 59.0533 53.8907 59.2873 54.012C59.5299 54.1333 59.8289 54.194 60.1843 54.194C60.5743 54.194 60.9123 54.1203 61.1983 53.973C61.4843 53.8257 61.7053 53.557 61.8613 53.167C62.0173 52.777 62.0953 52.218 62.0953 51.49C62.0953 50.8487 62.0259 50.3243 61.8873 49.917C61.7486 49.5097 61.5189 49.2063 61.1983 49.007C60.8863 48.8077 60.4616 48.708 59.9243 48.708C59.6469 48.708 59.3783 48.734 59.1183 48.786C58.8583 48.8293 58.6069 48.8987 58.3643 48.994C58.1216 49.0807 57.8833 49.1933 57.6493 49.332V48.253C57.8226 48.1577 58.0349 48.0753 58.2863 48.006C58.5376 47.928 58.8149 47.8673 59.1183 47.824C59.4216 47.772 59.7379 47.746 60.0673 47.746C60.8299 47.746 61.4453 47.902 61.9133 48.214C62.3899 48.5173 62.7366 48.9507 62.9533 49.514C63.1699 50.0687 63.2783 50.7273 63.2783 51.49C63.2783 52.2527 63.1786 52.907 62.9793 53.453C62.7799 53.999 62.4549 54.415 62.0043 54.701C61.5623 54.987 60.9643 55.13 60.2103 55.13ZM67.5841 55.13C66.8908 55.13 66.3448 54.9697 65.9461 54.649C65.5561 54.3197 65.2788 53.8777 65.1141 53.323C64.9581 52.7683 64.8801 52.1573 64.8801 51.49C64.8801 50.7533 64.9538 50.1467 65.1011 49.67C65.2571 49.1847 65.4738 48.8033 65.7511 48.526C66.0371 48.24 66.3751 48.0407 66.7651 47.928C67.1638 47.8067 67.6014 47.746 68.0781 47.746C68.7714 47.746 69.3348 47.85 69.7681 48.058C70.2101 48.2573 70.5351 48.5433 70.7431 48.916C70.9511 49.2887 71.0551 49.735 71.0551 50.255V55H69.9111V50.359C69.9111 49.8217 69.7768 49.4143 69.5081 49.137C69.2394 48.851 68.7758 48.708 68.1171 48.708C67.7184 48.708 67.3588 48.7817 67.0381 48.929C66.7261 49.0763 66.4791 49.3493 66.2971 49.748C66.1238 50.1467 66.0371 50.7317 66.0371 51.503C66.0371 52.0057 66.0848 52.4607 66.1801 52.868C66.2841 53.2667 66.4618 53.583 66.7131 53.817C66.9644 54.051 67.3154 54.168 67.7661 54.168C67.8961 54.168 68.0174 54.1593 68.1301 54.142C68.2428 54.1247 68.3511 54.0987 68.4551 54.064L68.5721 54.961C68.4334 55.0217 68.2731 55.065 68.0911 55.091C67.9178 55.117 67.7488 55.13 67.5841 55.13ZM73.2548 55.13C73.0988 55.13 72.9472 55.1127 72.7998 55.078C72.6525 55.052 72.5052 55.0043 72.3578 54.935L72.4878 54.129C72.5485 54.1463 72.6178 54.1637 72.6958 54.181C72.7738 54.1983 72.8475 54.207 72.9168 54.207C73.0555 54.207 73.1552 54.168 73.2158 54.09C73.2765 54.0033 73.3068 53.869 73.3068 53.687V52.478C73.3068 51.9407 73.4065 51.555 73.6058 51.321C73.8052 51.0783 74.0912 50.9137 74.4638 50.827L74.4768 50.788L72.9818 50.242V49.813C72.9818 49.4577 73.0945 49.124 73.3198 48.812C73.5538 48.4913 73.8918 48.2357 74.3338 48.045C74.7758 47.8457 75.3045 47.746 75.9198 47.746C76.4572 47.746 76.9512 47.8327 77.4018 48.006C77.8525 48.1707 78.2122 48.435 78.4808 48.799C78.7582 49.1543 78.8968 49.6223 78.8968 50.203V55H77.7398V50.32C77.7398 49.7393 77.5622 49.3277 77.2068 49.085C76.8515 48.8337 76.4182 48.708 75.9068 48.708C75.3695 48.708 74.9448 48.8207 74.6328 49.046C74.3208 49.2627 74.1648 49.54 74.1648 49.878L75.6468 50.58L75.5428 51.204C75.2222 51.204 74.9622 51.308 74.7628 51.516C74.5635 51.724 74.4638 52.0577 74.4638 52.517V53.778C74.4638 54.3067 74.3468 54.6663 74.1128 54.857C73.8788 55.039 73.5928 55.13 73.2548 55.13ZM77.0978 46.745C76.7338 46.745 76.4434 46.693 76.2268 46.589C76.0101 46.485 75.8541 46.3507 75.7588 46.186C75.6548 46.0213 75.6028 45.848 75.6028 45.666C75.6028 45.536 75.6244 45.3973 75.6678 45.25C75.7024 45.094 75.7501 44.9683 75.8108 44.873L76.7858 45.042C76.7684 45.0767 76.7511 45.1373 76.7338 45.224C76.7164 45.302 76.7078 45.3757 76.7078 45.445C76.7078 45.5577 76.7424 45.6573 76.8118 45.744C76.8811 45.822 76.9981 45.861 77.1628 45.861H80.4518V46.745H77.0978ZM83.7398 55.117C83.0378 55.117 82.4745 55.026 82.0498 54.844C81.6338 54.662 81.3305 54.4063 81.1398 54.077C80.9578 53.7477 80.8668 53.3577 80.8668 52.907C80.8668 52.5083 80.9232 52.192 81.0358 51.958C81.1572 51.7153 81.3045 51.5377 81.4778 51.425C81.6598 51.3123 81.8462 51.2387 82.0368 51.204V51.152C81.8635 51.1 81.6815 51.0133 81.4908 50.892C81.3002 50.7707 81.1398 50.6017 81.0098 50.385C80.8885 50.1683 80.8278 49.8953 80.8278 49.566C80.8278 49.2627 80.8972 48.9767 81.0358 48.708C81.1745 48.4393 81.3998 48.2183 81.7118 48.045C82.0238 47.8717 82.4355 47.785 82.9468 47.785C83.1548 47.785 83.3715 47.8023 83.5968 47.837C83.8222 47.863 83.9955 47.9107 84.1168 47.98L83.9088 48.877C83.8135 48.8423 83.6878 48.812 83.5318 48.786C83.3845 48.7513 83.2285 48.734 83.0638 48.734C82.6998 48.734 82.4312 48.8207 82.2578 48.994C82.0845 49.1587 81.9978 49.3797 81.9978 49.657C81.9978 49.9603 82.0715 50.19 82.2188 50.346C82.3748 50.502 82.5698 50.6103 82.8038 50.671C83.0465 50.723 83.2978 50.749 83.5578 50.749H83.8048V51.594H83.5578C83.0378 51.594 82.6522 51.6893 82.4008 51.88C82.1582 52.062 82.0368 52.3697 82.0368 52.803C82.0368 53.0543 82.0845 53.284 82.1798 53.492C82.2838 53.7 82.4572 53.8647 82.6998 53.986C82.9512 54.1073 83.2978 54.168 83.7398 54.168C84.1818 54.168 84.5242 54.1073 84.7668 53.986C85.0182 53.8647 85.1958 53.6913 85.2998 53.466C85.4038 53.232 85.4558 52.9547 85.4558 52.634V47.876H86.6128V52.556C86.6128 53.466 86.3788 54.1203 85.9108 54.519C85.4515 54.9177 84.7278 55.117 83.7398 55.117Z" fill="#1A2A40"/>
</g>
<defs>
<filter id="filter0_d_89_14" x="0.519531" y="0.891602" width="145.481" height="113.51" filterUnits="userSpaceOnUse" color-interpolation-filters="sRGB">
<feFlood flood-opacity="0" result="BackgroundImageFix"/>
<feColorMatrix in="SourceAlpha" type="matrix" values="0 0 0 0 0 0 0 0 0 0 0 0 0 0 0 0 0 0 127 0" result="hardAlpha"/>
<feOffset dx="8" dy="8"/>
<feGaussianBlur stdDeviation="11.5"/>
<feComposite in2="hardAlpha" operator="out"/>
<feColorMatrix type="matrix" values="0 0 0 0 0 0 0 0 0 0 0 0 0 0 0 0 0 0 0.25 0"/>
<feBlend mode="normal" in2="BackgroundImageFix" result="effect1_dropShadow_89_14"/>
<feBlend mode="normal" in="SourceGraphic" in2="effect1_dropShadow_89_14" result="shape"/>
</filter>
<filter id="filter1_d_89_14" x="42.3906" y="44.873" width="56.1222" height="22.1568" filterUnits="userSpaceOnUse" color-interpolation-filters="sRGB">
<feFlood flood-opacity="0" result="BackgroundImageFix"/>
<feColorMatrix in="SourceAlpha" type="matrix" values="0 0 0 0 0 0 0 0 0 0 0 0 0 0 0 0 0 0 127 0" result="hardAlpha"/>
<feOffset dx="6" dy="6"/>
<feGaussianBlur stdDeviation="2.95"/>
<feComposite in2="hardAlpha" operator="out"/>
<feColorMatrix type="matrix" values="0 0 0 0 0 0 0 0 0 0 0 0 0 0 0 0 0 0 0.25 0"/>
<feBlend mode="normal" in2="BackgroundImageFix" result="effect1_dropShadow_89_14"/>
<feBlend mode="normal" in="SourceGraphic" in2="effect1_dropShadow_89_14" result="shape"/>
</filter>
</defs>
</svg>
