<svg width="209" height="127" viewBox="0 0 209 127" fill="none" xmlns="http://www.w3.org/2000/svg">
<g filter="url(#filter0_d_96_58)">
<rect x="177.481" y="95.9827" width="162.481" height="80.7074" rx="19" transform="rotate(180 177.481 95.9827)" fill="white"/>
</g>
<path d="M186.89 13.4075L173.129 34.311L156.839 21.2051L186.89 13.4075Z" fill="white"/>
<g filter="url(#filter1_d_96_58)">
<path d="M50.1523 43.4006V38.6556C50.1523 38.0923 50.0223 37.6936 49.7623 37.4596C49.511 37.217 49.0863 37.0956 48.4883 37.0956C48.055 37.0956 47.639 37.1563 47.2403 37.2776C46.8503 37.3903 46.4777 37.5506 46.1223 37.7586V36.6796C46.3737 36.5496 46.7117 36.4283 47.1363 36.3156C47.5697 36.203 48.055 36.1466 48.5923 36.1466C49.0517 36.1466 49.4503 36.1986 49.7883 36.3026C50.1263 36.398 50.4037 36.5453 50.6203 36.7446C50.8457 36.944 51.0147 37.1996 51.1273 37.5116C51.24 37.815 51.2963 38.1746 51.2963 38.5906V43.4006H50.1523ZM47.9163 43.5306C47.1537 43.5306 46.5687 43.3573 46.1613 43.0106C45.7627 42.6553 45.5633 42.1483 45.5633 41.4896C45.5633 40.7703 45.8233 40.2156 46.3433 39.8256C46.872 39.4356 47.7257 39.206 48.9043 39.1366L50.3863 39.0456V40.0076L49.0603 40.0986C48.1763 40.1593 47.5653 40.298 47.2273 40.5146C46.898 40.7313 46.7333 41.0476 46.7333 41.4636C46.7333 41.8536 46.8547 42.1396 47.0973 42.3216C47.3487 42.5036 47.6953 42.5946 48.1373 42.5946C48.2847 42.5946 48.419 42.586 48.5403 42.5686C48.6617 42.5426 48.7787 42.5123 48.8913 42.4776L49.0733 43.3486C48.9087 43.4093 48.7267 43.4526 48.5273 43.4786C48.3367 43.5133 48.133 43.5306 47.9163 43.5306ZM55.8371 43.5306C55.1438 43.5306 54.5978 43.3703 54.1991 43.0496C53.8091 42.7203 53.5318 42.2783 53.3671 41.7236C53.2111 41.169 53.1331 40.558 53.1331 39.8906C53.1331 39.154 53.2068 38.5473 53.3541 38.0706C53.5101 37.5853 53.7268 37.204 54.0041 36.9266C54.2901 36.6406 54.6281 36.4413 55.0181 36.3286C55.4168 36.2073 55.8544 36.1466 56.3311 36.1466C57.0244 36.1466 57.5878 36.2506 58.0211 36.4586C58.4631 36.658 58.7881 36.944 58.9961 37.3166C59.2041 37.6893 59.3081 38.1356 59.3081 38.6556V43.4006H58.1641V38.7596C58.1641 38.2223 58.0298 37.815 57.7611 37.5376C57.4924 37.2516 57.0288 37.1086 56.3701 37.1086C55.9714 37.1086 55.6118 37.1823 55.2911 37.3296C54.9791 37.477 54.7321 37.75 54.5501 38.1486C54.3768 38.5473 54.2901 39.1323 54.2901 39.9036C54.2901 40.4063 54.3378 40.8613 54.4331 41.2686C54.5371 41.6673 54.7148 41.9836 54.9661 42.2176C55.2174 42.4516 55.5684 42.5686 56.0191 42.5686C56.1491 42.5686 56.2704 42.56 56.3831 42.5426C56.4958 42.5253 56.6041 42.4993 56.7081 42.4646L56.8251 43.3616C56.6864 43.4223 56.5261 43.4656 56.3441 43.4916C56.1708 43.5176 56.0018 43.5306 55.8371 43.5306ZM63.0288 43.5306C62.7948 43.5306 62.5695 43.4916 62.3528 43.4136C62.1362 43.3356 61.9585 43.197 61.8198 42.9976C61.6812 42.7983 61.6118 42.521 61.6118 42.1656V36.2766H62.7688V42.0226C62.7688 42.222 62.8122 42.365 62.8988 42.4516C62.9855 42.5383 63.1242 42.5816 63.3148 42.5816C63.3928 42.5816 63.4752 42.573 63.5618 42.5556C63.6485 42.5383 63.7308 42.5166 63.8088 42.4906L63.9648 43.3356C63.8002 43.4136 63.6398 43.4656 63.4838 43.4916C63.3278 43.5176 63.1762 43.5306 63.0288 43.5306ZM66.5778 43.5306C66.3438 43.5306 66.1185 43.4916 65.9018 43.4136C65.6852 43.3356 65.5075 43.197 65.3688 42.9976C65.2302 42.7983 65.1608 42.521 65.1608 42.1656V36.2766H66.3178V42.0226C66.3178 42.222 66.3612 42.365 66.4478 42.4516C66.5345 42.5383 66.6732 42.5816 66.8638 42.5816C66.9418 42.5816 67.0242 42.573 67.1108 42.5556C67.1975 42.5383 67.2798 42.5166 67.3578 42.4906L67.5138 43.3356C67.3492 43.4136 67.1888 43.4656 67.0328 43.4916C66.8768 43.5176 66.7252 43.5306 66.5778 43.5306ZM71.5259 43.5306C70.5032 43.5306 69.7709 43.2966 69.3289 42.8286C68.8869 42.3606 68.6659 41.6933 68.6659 40.8266V36.2766H69.8229V40.8396C69.8229 41.4203 69.9615 41.8536 70.2389 42.1396C70.5162 42.4256 70.9452 42.5686 71.5259 42.5686C72.1152 42.5686 72.5485 42.4256 72.8259 42.1396C73.1119 41.8536 73.2549 41.4203 73.2549 40.8396V36.2766H74.4119V40.8266C74.4119 41.6933 74.1865 42.3606 73.7359 42.8286C73.2939 43.2966 72.5572 43.5306 71.5259 43.5306ZM76.5116 43.4006V38.8506C76.5116 37.9753 76.7456 37.308 77.2136 36.8486C77.6816 36.3806 78.4269 36.1466 79.4496 36.1466C80.4809 36.1466 81.2262 36.3806 81.6856 36.8486C82.1536 37.308 82.3876 37.9753 82.3876 38.8506V43.4006H81.2306V38.8506C81.2306 38.27 81.0789 37.8366 80.7756 37.5506C80.4722 37.256 80.0259 37.1086 79.4366 37.1086C78.8559 37.1086 78.4139 37.256 78.1106 37.5506C77.8159 37.8366 77.6686 38.27 77.6686 38.8506V40.2936L77.7076 40.3066C77.8982 39.9686 78.1322 39.7476 78.4096 39.6436C78.6869 39.531 79.0769 39.4746 79.5796 39.4746H80.0086V40.4236H79.5796C79.0509 40.4236 78.6479 40.4973 78.3706 40.6446C78.1019 40.792 77.9156 40.987 77.8116 41.2296C77.7162 41.4636 77.6686 41.728 77.6686 42.0226V43.4006H76.5116ZM84.5359 43.4006V36.2766H85.3419L85.5499 37.4076H85.6019C85.7493 37.0176 86.0179 36.71 86.4079 36.4846C86.7979 36.2593 87.2703 36.1466 87.8249 36.1466C88.3449 36.1466 88.7869 36.2376 89.1509 36.4196C89.5236 36.593 89.8096 36.8616 90.0089 37.2256C90.2083 37.5896 90.3079 38.062 90.3079 38.6426V43.4006H89.1509V38.7076C89.1509 38.1876 89.0209 37.7933 88.7609 37.5246C88.5009 37.256 88.1153 37.1216 87.6039 37.1216C87.1966 37.1216 86.8499 37.217 86.5639 37.4076C86.2779 37.5983 86.0613 37.8583 85.9139 38.1876C85.7666 38.5083 85.6929 38.8723 85.6929 39.2796V43.4006H84.5359ZM84.6457 35.1456V34.6386L85.5947 34.2226H90.1707V35.1456H84.6457ZM89.0917 34.6386V33.1696H90.1837V34.6386H89.0917ZM94.0308 43.5306C93.7968 43.5306 93.5715 43.4916 93.3548 43.4136C93.1381 43.3356 92.9605 43.197 92.8218 42.9976C92.6831 42.7983 92.6138 42.521 92.6138 42.1656V36.2766H93.7708V42.0226C93.7708 42.222 93.8141 42.365 93.9008 42.4516C93.9875 42.5383 94.1261 42.5816 94.3168 42.5816C94.3948 42.5816 94.4771 42.573 94.5638 42.5556C94.6505 42.5383 94.7328 42.5166 94.8108 42.4906L94.9668 43.3356C94.8021 43.4136 94.6418 43.4656 94.4858 43.4916C94.3298 43.5176 94.1781 43.5306 94.0308 43.5306ZM98.1278 43.5306C97.6165 43.5306 97.1398 43.483 96.6978 43.3876C96.2645 43.2836 95.8962 43.1623 95.5928 43.0236L95.9308 42.0876C96.1128 42.157 96.3208 42.2306 96.5548 42.3086C96.7888 42.3866 97.0402 42.4516 97.3088 42.5036C97.5862 42.547 97.8678 42.5686 98.1538 42.5686C98.6132 42.5686 98.9945 42.482 99.2978 42.3086C99.6012 42.1353 99.7528 41.884 99.7528 41.5546C99.7528 41.3553 99.6965 41.1863 99.5838 41.0476C99.4798 40.9003 99.3152 40.766 99.0898 40.6446C98.8645 40.5233 98.5742 40.4063 98.2188 40.2936C97.6728 40.1203 97.2092 39.9383 96.8278 39.7476C96.4552 39.5483 96.1692 39.3143 95.9698 39.0456C95.7792 38.7683 95.6838 38.426 95.6838 38.0186C95.6838 37.6546 95.7792 37.334 95.9698 37.0566C96.1692 36.7706 96.4725 36.5496 96.8798 36.3936C97.2958 36.229 97.8245 36.1466 98.4658 36.1466C98.8818 36.1466 99.2718 36.1856 99.6358 36.2636C100.008 36.333 100.299 36.4326 100.507 36.5626V37.5376C100.359 37.4683 100.173 37.399 99.9478 37.3296C99.7312 37.2603 99.4928 37.204 99.2328 37.1606C98.9728 37.1173 98.7042 37.0956 98.4268 37.0956C97.8462 37.0956 97.4345 37.1866 97.1918 37.3686C96.9578 37.542 96.8408 37.7413 96.8408 37.9666C96.8408 38.1573 96.8928 38.3176 96.9968 38.4476C97.1095 38.5776 97.2958 38.7033 97.5558 38.8246C97.8245 38.946 98.1842 39.0846 98.6348 39.2406C99.0508 39.3793 99.4322 39.5396 99.7788 39.7216C100.125 39.9036 100.398 40.1333 100.598 40.4106C100.806 40.6793 100.91 41.026 100.91 41.4506C100.91 41.8146 100.819 42.157 100.637 42.4776C100.463 42.7896 100.173 43.0453 99.7658 43.2446C99.3585 43.4353 98.8125 43.5306 98.1278 43.5306ZM95.3733 35.1456V34.6386L96.3223 34.2226H100.898V35.1456H95.3733ZM99.8193 34.6386V33.1696H100.911V34.6386H99.8193ZM105.216 43.5176C104.514 43.5176 103.951 43.4266 103.526 43.2446C103.11 43.0626 102.807 42.807 102.616 42.4776C102.434 42.1483 102.343 41.7583 102.343 41.3076C102.343 40.909 102.4 40.5926 102.512 40.3586C102.634 40.116 102.781 39.9383 102.954 39.8256C103.136 39.713 103.323 39.6393 103.513 39.6046V39.5526C103.34 39.5006 103.158 39.414 102.967 39.2926C102.777 39.1713 102.616 39.0023 102.486 38.7856C102.365 38.569 102.304 38.296 102.304 37.9666C102.304 37.6633 102.374 37.3773 102.512 37.1086C102.651 36.84 102.876 36.619 103.188 36.4456C103.5 36.2723 103.912 36.1856 104.423 36.1856C104.631 36.1856 104.848 36.203 105.073 36.2376C105.299 36.2636 105.472 36.3113 105.593 36.3806L105.385 37.2776C105.29 37.243 105.164 37.2126 105.008 37.1866C104.861 37.152 104.705 37.1346 104.54 37.1346C104.176 37.1346 103.908 37.2213 103.734 37.3946C103.561 37.5593 103.474 37.7803 103.474 38.0576C103.474 38.361 103.548 38.5906 103.695 38.7466C103.851 38.9026 104.046 39.011 104.28 39.0716C104.523 39.1236 104.774 39.1496 105.034 39.1496H105.281V39.9946H105.034C104.514 39.9946 104.129 40.09 103.877 40.2806C103.635 40.4626 103.513 40.7703 103.513 41.2036C103.513 41.455 103.561 41.6846 103.656 41.8926C103.76 42.1006 103.934 42.2653 104.176 42.3866C104.428 42.508 104.774 42.5686 105.216 42.5686C105.658 42.5686 106.001 42.508 106.243 42.3866C106.495 42.2653 106.672 42.092 106.776 41.8666C106.88 41.6326 106.932 41.3553 106.932 41.0346V36.2766H108.089V40.9566C108.089 41.8666 107.855 42.521 107.387 42.9196C106.928 43.3183 106.204 43.5176 105.216 43.5176ZM115.054 43.5306C114.82 43.5306 114.595 43.4916 114.378 43.4136C114.162 43.3356 113.984 43.197 113.845 42.9976C113.707 42.7983 113.637 42.521 113.637 42.1656V36.2766H114.794V42.0226C114.794 42.222 114.838 42.365 114.924 42.4516C115.011 42.5383 115.15 42.5816 115.34 42.5816C115.418 42.5816 115.501 42.573 115.587 42.5556C115.674 42.5383 115.756 42.5166 115.834 42.4906L115.99 43.3356C115.826 43.4136 115.665 43.4656 115.509 43.4916C115.353 43.5176 115.202 43.5306 115.054 43.5306ZM118.888 43.5306C118.654 43.5306 118.429 43.4916 118.212 43.4136C117.996 43.3356 117.818 43.197 117.679 42.9976C117.541 42.7983 117.471 42.521 117.471 42.1656V36.2766H118.628V42.0226C118.628 42.222 118.672 42.365 118.758 42.4516C118.845 42.5383 118.984 42.5816 119.174 42.5816C119.252 42.5816 119.335 42.573 119.421 42.5556C119.508 42.5383 119.59 42.5166 119.668 42.4906L119.824 43.3356C119.66 43.4136 119.499 43.4656 119.343 43.4916C119.187 43.5176 119.036 43.5306 118.888 43.5306ZM125.156 43.4006V38.6556C125.156 38.0923 125.026 37.6936 124.766 37.4596C124.515 37.217 124.09 37.0956 123.492 37.0956C123.059 37.0956 122.643 37.1563 122.244 37.2776C121.854 37.3903 121.482 37.5506 121.126 37.7586V36.6796C121.378 36.5496 121.716 36.4283 122.14 36.3156C122.574 36.203 123.059 36.1466 123.596 36.1466C124.056 36.1466 124.454 36.1986 124.792 36.3026C125.13 36.398 125.408 36.5453 125.624 36.7446C125.85 36.944 126.019 37.1996 126.131 37.5116C126.244 37.815 126.3 38.1746 126.3 38.5906V43.4006H125.156ZM122.92 43.5306C122.158 43.5306 121.573 43.3573 121.165 43.0106C120.767 42.6553 120.567 42.1483 120.567 41.4896C120.567 40.7703 120.827 40.2156 121.347 39.8256C121.876 39.4356 122.73 39.206 123.908 39.1366L125.39 39.0456V40.0076L124.064 40.0986C123.18 40.1593 122.569 40.298 122.231 40.5146C121.902 40.7313 121.737 41.0476 121.737 41.4636C121.737 41.8536 121.859 42.1396 122.101 42.3216C122.353 42.5036 122.699 42.5946 123.141 42.5946C123.289 42.5946 123.423 42.586 123.544 42.5686C123.666 42.5426 123.783 42.5123 123.895 42.4776L124.077 43.3486C123.913 43.4093 123.731 43.4526 123.531 43.4786C123.341 43.5133 123.137 43.5306 122.92 43.5306ZM129.346 38.9286C128.991 38.9286 128.7 38.8766 128.475 38.7726C128.258 38.66 128.102 38.5213 128.007 38.3566C127.912 38.1833 127.864 38.0013 127.864 37.8106C127.864 37.6806 127.881 37.5463 127.916 37.4076C127.959 37.269 128.011 37.152 128.072 37.0566L129.047 37.2126C129.03 37.256 129.008 37.3166 128.982 37.3946C128.965 37.4726 128.956 37.5506 128.956 37.6286C128.956 37.7413 128.986 37.8366 129.047 37.9146C129.108 37.984 129.22 38.0186 129.385 38.0186H131.244V38.9286H129.346ZM129.346 42.5686C128.991 42.5686 128.7 42.5166 128.475 42.4126C128.258 42.3 128.102 42.1613 128.007 41.9966C127.912 41.8233 127.864 41.6413 127.864 41.4506C127.864 41.3206 127.881 41.1863 127.916 41.0476C127.959 40.909 128.011 40.792 128.072 40.6966L129.047 40.8526C129.03 40.896 129.008 40.9566 128.982 41.0346C128.965 41.1126 128.956 41.1906 128.956 41.2686C128.956 41.3813 128.986 41.4766 129.047 41.5546C129.108 41.624 129.22 41.6586 129.385 41.6586H131.244V42.5686H129.346ZM135.546 43.5176C134.844 43.5176 134.28 43.4266 133.856 43.2446C133.44 43.0626 133.136 42.807 132.946 42.4776C132.764 42.1483 132.673 41.7583 132.673 41.3076C132.673 40.909 132.729 40.5926 132.842 40.3586C132.963 40.116 133.11 39.9383 133.284 39.8256C133.466 39.713 133.652 39.6393 133.843 39.6046V39.5526C133.669 39.5006 133.487 39.414 133.297 39.2926C133.106 39.1713 132.946 39.0023 132.816 38.7856C132.694 38.569 132.634 38.296 132.634 37.9666C132.634 37.6633 132.703 37.3773 132.842 37.1086C132.98 36.84 133.206 36.619 133.518 36.4456C133.83 36.2723 134.241 36.1856 134.753 36.1856C134.961 36.1856 135.177 36.203 135.403 36.2376C135.628 36.2636 135.801 36.3113 135.923 36.3806L135.715 37.2776C135.619 37.243 135.494 37.2126 135.338 37.1866C135.19 37.152 135.034 37.1346 134.87 37.1346C134.506 37.1346 134.237 37.2213 134.064 37.3946C133.89 37.5593 133.804 37.7803 133.804 38.0576C133.804 38.361 133.877 38.5906 134.025 38.7466C134.181 38.9026 134.376 39.011 134.61 39.0716C134.852 39.1236 135.104 39.1496 135.364 39.1496H135.611V39.9946H135.364C134.844 39.9946 134.458 40.09 134.207 40.2806C133.964 40.4626 133.843 40.7703 133.843 41.2036C133.843 41.455 133.89 41.6846 133.986 41.8926C134.09 42.1006 134.263 42.2653 134.506 42.3866C134.757 42.508 135.104 42.5686 135.546 42.5686C135.988 42.5686 136.33 42.508 136.573 42.3866C136.824 42.2653 137.002 42.092 137.106 41.8666C137.21 41.6326 137.262 41.3553 137.262 41.0346V36.2766H138.419V40.9566C138.419 41.8666 138.185 42.521 137.717 42.9196C137.257 43.3183 136.534 43.5176 135.546 43.5176ZM132.888 35.1456V34.6386L133.837 34.2226H138.413V35.1456H132.888ZM137.334 34.6386V33.1696H138.426V34.6386H137.334ZM144.694 43.4006V38.6556C144.694 38.0923 144.564 37.6936 144.304 37.4596C144.053 37.217 143.628 37.0956 143.03 37.0956C142.597 37.0956 142.181 37.1563 141.782 37.2776C141.392 37.3903 141.02 37.5506 140.664 37.7586V36.6796C140.916 36.5496 141.254 36.4283 141.678 36.3156C142.112 36.203 142.597 36.1466 143.134 36.1466C143.594 36.1466 143.984 36.1986 144.304 36.3026C144.634 36.4066 144.876 36.5973 145.032 36.8746C145.336 37.0133 145.544 37.23 145.656 37.5246C145.778 37.8193 145.838 38.1746 145.838 38.5906V43.4006H144.694ZM142.458 43.5306C141.696 43.5306 141.111 43.3573 140.703 43.0106C140.305 42.6553 140.105 42.1483 140.105 41.4896C140.105 40.7703 140.365 40.2156 140.885 39.8256C141.414 39.4356 142.268 39.206 143.446 39.1366L144.928 39.0456V40.0076L143.602 40.0986C142.718 40.1593 142.107 40.298 141.769 40.5146C141.44 40.7313 141.275 41.0476 141.275 41.4636C141.275 41.8536 141.397 42.1396 141.639 42.3216C141.891 42.5036 142.237 42.5946 142.679 42.5946C142.827 42.5946 142.961 42.586 143.082 42.5686C143.204 42.5426 143.321 42.5123 143.433 42.4776L143.615 43.3486C143.451 43.4093 143.269 43.4526 143.069 43.4786C142.879 43.5133 142.675 43.5306 142.458 43.5306ZM144.993 37.2776L144.343 36.6666C144.569 36.632 144.781 36.5453 144.98 36.4066C145.18 36.268 145.279 36.0686 145.279 35.8086H146.41C146.41 36.0773 146.345 36.3156 146.215 36.5236C146.094 36.723 145.925 36.8876 145.708 37.0176C145.492 37.139 145.253 37.2256 144.993 37.2776ZM143.708 35.5226C143.647 35.4273 143.599 35.306 143.565 35.1586C143.521 35.0026 143.5 34.851 143.5 34.7036C143.5 34.5216 143.539 34.3526 143.617 34.1966C143.695 34.032 143.833 33.8976 144.033 33.7936C144.232 33.6896 144.509 33.6376 144.865 33.6376H146.646V34.5346H145.164C144.99 34.5346 144.852 34.5693 144.748 34.6386C144.644 34.6993 144.592 34.8076 144.592 34.9636C144.592 35.0243 144.605 35.0893 144.631 35.1586C144.648 35.228 144.674 35.2973 144.709 35.3666L143.708 35.5226ZM32.6071 60.5306C31.7925 60.5306 31.1685 60.3313 30.7351 59.9326C30.3018 59.534 30.0851 58.9403 30.0851 58.1516V57.3326C30.0851 56.8213 30.1718 56.427 30.3451 56.1496C30.5185 55.8636 30.7135 55.595 30.9301 55.3436C31.0601 55.1963 31.1771 55.062 31.2811 54.9406C31.3851 54.8106 31.4415 54.6806 31.4501 54.5506L31.4111 54.5246C31.3158 54.594 31.2031 54.6546 31.0731 54.7066C30.9518 54.75 30.8131 54.7716 30.6571 54.7716C30.3451 54.7716 30.0895 54.6676 29.8901 54.4596C29.6908 54.243 29.5911 53.9396 29.5911 53.5496V53.2766H30.6051C30.6051 53.5366 30.6355 53.7273 30.6961 53.8486C30.7655 53.9613 30.8738 54.0176 31.0211 54.0176C31.1165 54.0176 31.2161 54.0003 31.3201 53.9656C31.4241 53.931 31.5195 53.879 31.6061 53.8096L31.8531 53.2766H32.4901V53.8616C32.4901 54.113 32.4815 54.334 32.4641 54.5246C32.4468 54.7153 32.3991 54.9016 32.3211 55.0836C32.2431 55.257 32.1131 55.4606 31.9311 55.6946C31.8011 55.8593 31.6841 56.011 31.5801 56.1496C31.4761 56.2796 31.3938 56.427 31.3331 56.5916C31.2725 56.7563 31.2421 56.973 31.2421 57.2416V58.0866C31.2421 58.494 31.3071 58.806 31.4371 59.0226C31.5671 59.2393 31.7361 59.3866 31.9441 59.4646C32.1521 59.5426 32.3731 59.5816 32.6071 59.5816C33.0578 59.5816 33.4045 59.482 33.6471 59.2826C33.8898 59.0746 34.0111 58.7583 34.0111 58.3336V56.5136C34.0111 56.193 33.9331 55.9503 33.7771 55.7856C33.6298 55.6123 33.3915 55.5256 33.0621 55.5256H33.0101V54.7846H33.0751C33.4305 54.7846 33.6818 54.7023 33.8291 54.5376C33.9765 54.373 34.0631 54.1736 34.0891 53.9396C34.1238 53.697 34.1411 53.476 34.1411 53.2766H35.2981C35.2981 53.736 35.2375 54.1216 35.1161 54.4336C34.9948 54.7456 34.7435 54.9753 34.3621 55.1226V55.1746C34.6915 55.27 34.9081 55.4433 35.0121 55.6946C35.1161 55.946 35.1681 56.258 35.1681 56.6306V58.3986C35.1681 59.066 34.9471 59.5903 34.5051 59.9716C34.0631 60.3443 33.4305 60.5306 32.6071 60.5306ZM29.9035 52.1456V51.6386L30.8525 51.2226H33.4395L33.2705 51.5476C33.2272 51.4523 33.2012 51.3656 33.1925 51.2876C33.1752 51.201 33.1665 51.1316 33.1665 51.0796C33.1665 50.759 33.2749 50.499 33.4915 50.2996C33.6995 50.1003 33.9899 50.0006 34.3625 50.0006C34.7439 50.0006 35.0472 50.1046 35.2725 50.3126C35.4892 50.512 35.5975 50.772 35.5975 51.0926C35.5975 51.3873 35.4979 51.6386 35.2985 51.8466C35.0992 52.046 34.8089 52.1456 34.4275 52.1456H29.9035ZM34.3885 51.5866C34.5619 51.5866 34.6962 51.539 34.7915 51.4436C34.8869 51.3396 34.9345 51.2183 34.9345 51.0796C34.9345 50.9323 34.8869 50.811 34.7915 50.7156C34.6875 50.6203 34.5489 50.5726 34.3755 50.5726C34.2022 50.5726 34.0679 50.6203 33.9725 50.7156C33.8772 50.8023 33.8295 50.9193 33.8295 51.0666C33.8295 51.2053 33.8772 51.3266 33.9725 51.4306C34.0592 51.5346 34.1979 51.5866 34.3885 51.5866ZM33.9557 49.4026V47.2836H35.0607V49.4026H33.9557ZM38.4658 60.4006L36.2428 53.2766H37.4128L39.3368 59.3996H39.4928C39.7008 59.3996 39.9044 59.352 40.1038 59.2566C40.3031 59.1526 40.4721 59.0226 40.6108 58.8666C40.8708 58.5806 41.0614 58.221 41.1828 57.7876C41.3041 57.3456 41.3648 56.9123 41.3648 56.4876C41.3648 55.7683 41.2001 55.205 40.8708 54.7976C40.5501 54.3816 40.1038 54.1736 39.5318 54.1736C39.4191 54.1736 39.3064 54.1823 39.1938 54.1996C39.0898 54.217 39.0031 54.2386 38.9338 54.2646L38.6478 53.3416C38.8298 53.2896 38.9988 53.255 39.1548 53.2376C39.3194 53.2203 39.4668 53.2116 39.5968 53.2116C40.0301 53.2116 40.4158 53.2766 40.7538 53.4066C41.1004 53.528 41.3951 53.71 41.6378 53.9526C41.9411 54.2473 42.1621 54.6156 42.3008 55.0576C42.4481 55.4996 42.5218 55.9893 42.5218 56.5266C42.5218 57.2026 42.4178 57.805 42.2098 58.3336C42.0018 58.8536 41.7418 59.2696 41.4298 59.5816C41.1784 59.833 40.8708 60.0323 40.5068 60.1796C40.1428 60.327 39.6791 60.4006 39.1158 60.4006H38.4658ZM45.8902 60.5306C45.6562 60.5306 45.4308 60.4916 45.2142 60.4136C44.9975 60.3356 44.8198 60.197 44.6812 59.9976C44.5425 59.7983 44.4732 59.521 44.4732 59.1656V53.2766H45.6302V59.0226C45.6302 59.222 45.6735 59.365 45.7602 59.4516C45.8468 59.5383 45.9855 59.5816 46.1762 59.5816C46.2542 59.5816 46.3365 59.573 46.4232 59.5556C46.5098 59.5383 46.5922 59.5166 46.6702 59.4906L46.8262 60.3356C46.6615 60.4136 46.5012 60.4656 46.3452 60.4916C46.1892 60.5176 46.0375 60.5306 45.8902 60.5306ZM50.8325 60.5306C49.8098 60.5306 49.0775 60.2966 48.6355 59.8286C48.1935 59.3606 47.9725 58.6933 47.9725 57.8266V53.2766H49.1295V57.8396C49.1295 58.4203 49.2682 58.8536 49.5455 59.1396C49.8228 59.4256 50.2518 59.5686 50.8325 59.5686C51.4218 59.5686 51.8552 59.4256 52.1325 59.1396C52.4185 58.8536 52.5615 58.4203 52.5615 57.8396V50.7156H53.7185V57.8266C53.7185 58.6933 53.4932 59.3606 53.0425 59.8286C52.6005 60.2966 51.8638 60.5306 50.8325 60.5306ZM50.6696 52.3406C50.4356 52.3406 50.2363 52.293 50.0716 52.1976C49.8983 52.0936 49.7596 51.942 49.6556 51.7426L49.2136 52.3016C48.7109 52.3016 48.3166 52.1803 48.0306 51.9376C47.7446 51.6863 47.6016 51.3266 47.6016 50.8586C47.6016 50.3646 47.7489 50.0006 48.0436 49.7666C48.3296 49.524 48.6633 49.4026 49.0446 49.4026H51.8266V50.1826H49.2136C49.0143 50.1826 48.8496 50.239 48.7196 50.3516C48.5809 50.4643 48.5116 50.6463 48.5116 50.8976C48.5116 51.0796 48.5593 51.2313 48.6546 51.3526C48.7499 51.474 48.9103 51.5346 49.1356 51.5346L49.6556 50.8846H49.9806C49.9893 51.11 50.0413 51.2833 50.1366 51.4046C50.2233 51.5173 50.3489 51.5736 50.5136 51.5736C50.6609 51.5736 50.7823 51.526 50.8776 51.4306C50.9643 51.3266 51.0076 51.1966 51.0076 51.0406V50.8846H51.8396V51.0666C51.8396 51.4913 51.7356 51.812 51.5276 52.0286C51.3109 52.2366 51.0249 52.3406 50.6696 52.3406ZM58.3006 60.5306C57.7893 60.5306 57.3473 60.444 56.9746 60.2706C56.6106 60.0886 56.3289 59.8156 56.1296 59.4516C55.9389 59.0876 55.8436 58.6153 55.8436 58.0346V53.2766H57.0006V57.9696C57.0006 58.4896 57.1306 58.884 57.3906 59.1526C57.6593 59.4213 58.0449 59.5556 58.5476 59.5556C59.1543 59.5556 59.6223 59.3606 59.9516 58.9706C60.2896 58.5806 60.4586 58.0563 60.4586 57.3976V53.2766H61.6156V60.4006H60.6536L60.6016 59.3476H60.5366C60.3806 59.6943 60.1076 59.9803 59.7176 60.2056C59.3363 60.4223 58.8639 60.5306 58.3006 60.5306ZM67.9893 60.4006V55.6556C67.9893 55.0923 67.8593 54.6936 67.5993 54.4596C67.3479 54.217 66.9233 54.0956 66.3253 54.0956C65.8919 54.0956 65.4759 54.1563 65.0773 54.2776C64.6873 54.3903 64.3146 54.5506 63.9593 54.7586V53.6796C64.2106 53.5496 64.5486 53.4283 64.9733 53.3156C65.4066 53.203 65.8919 53.1466 66.4293 53.1466C66.8886 53.1466 67.2786 53.1986 67.5993 53.3026C67.9286 53.4066 68.1713 53.5973 68.3273 53.8746C68.6306 54.0133 68.8386 54.23 68.9513 54.5246C69.0726 54.8193 69.1333 55.1746 69.1333 55.5906V60.4006H67.9893ZM65.7533 60.5306C64.9906 60.5306 64.4056 60.3573 63.9983 60.0106C63.5996 59.6553 63.4003 59.1483 63.4003 58.4896C63.4003 57.7703 63.6603 57.2156 64.1803 56.8256C64.7089 56.4356 65.5626 56.206 66.7413 56.1366L68.2233 56.0456V57.0076L66.8973 57.0986C66.0133 57.1593 65.4023 57.298 65.0643 57.5146C64.7349 57.7313 64.5703 58.0476 64.5703 58.4636C64.5703 58.8536 64.6916 59.1396 64.9343 59.3216C65.1856 59.5036 65.5323 59.5946 65.9743 59.5946C66.1216 59.5946 66.2559 59.586 66.3773 59.5686C66.4986 59.5426 66.6156 59.5123 66.7283 59.4776L66.9103 60.3486C66.7456 60.4093 66.5636 60.4526 66.3643 60.4786C66.1736 60.5133 65.9699 60.5306 65.7533 60.5306ZM68.2883 54.2776L67.6383 53.6666C67.8636 53.632 68.0759 53.5453 68.2753 53.4066C68.4746 53.268 68.5743 53.0686 68.5743 52.8086H69.7053C69.7053 53.0773 69.6403 53.3156 69.5103 53.5236C69.3889 53.723 69.2199 53.8876 69.0033 54.0176C68.7866 54.139 68.5483 54.2256 68.2883 54.2776ZM73.2707 60.4006V55.3436C73.2707 54.919 73.171 54.607 72.9717 54.4076C72.781 54.2083 72.456 54.1086 71.9967 54.1086C71.6847 54.1086 71.39 54.152 71.1127 54.2386C70.844 54.3166 70.584 54.4293 70.3327 54.5766V53.5366C70.506 53.45 70.753 53.3633 71.0737 53.2766C71.3944 53.19 71.7757 53.1466 72.2177 53.1466C72.6684 53.1466 73.0584 53.2116 73.3877 53.3416C73.717 53.4716 73.9727 53.6883 74.1547 53.9916C74.3367 54.2863 74.4277 54.6806 74.4277 55.1746V60.4006H73.2707ZM78.149 60.5306C77.915 60.5306 77.6896 60.4916 77.473 60.4136C77.2563 60.3356 77.0786 60.197 76.94 59.9976C76.8013 59.7983 76.732 59.521 76.732 59.1656V53.2766H77.889V59.0226C77.889 59.222 77.9323 59.365 78.019 59.4516C78.1056 59.5383 78.2443 59.5816 78.435 59.5816C78.513 59.5816 78.5953 59.573 78.682 59.5556C78.7686 59.5383 78.851 59.5166 78.929 59.4906L79.085 60.3356C78.9203 60.4136 78.76 60.4656 78.604 60.4916C78.448 60.5176 78.2963 60.5306 78.149 60.5306ZM80.4749 60.4006V53.2766H81.6319V56.3576H81.6709L84.6349 53.2766H85.9869V53.3156L81.6319 57.7226V60.4006H80.4749ZM84.8949 60.4006V57.8916C84.8949 57.3803 84.7389 56.9816 84.4269 56.6956C84.1149 56.4096 83.5993 56.2666 82.8799 56.2666L83.5559 55.4216C84.1019 55.4216 84.5569 55.5213 84.9209 55.7206C85.2936 55.9113 85.5753 56.1886 85.7659 56.5526C85.9566 56.9166 86.0519 57.3543 86.0519 57.8656V60.4006H84.8949ZM90.5228 60.5306C89.7948 60.5306 89.2315 60.366 88.8328 60.0366C88.4342 59.6986 88.1568 59.2436 88.0008 58.6716C87.8448 58.091 87.7668 57.4323 87.7668 56.6956C87.7668 55.8463 87.8448 55.1616 88.0008 54.6416C88.1655 54.1216 88.4038 53.7446 88.7158 53.5106C89.0278 53.268 89.4092 53.1466 89.8598 53.1466C90.1632 53.1466 90.4188 53.1986 90.6268 53.3026C90.8435 53.4066 90.9952 53.58 91.0818 53.8226H91.1338C91.2205 53.5713 91.3765 53.398 91.6018 53.3026C91.8272 53.1986 92.0915 53.1466 92.3948 53.1466C92.9582 53.1466 93.3915 53.2983 93.6948 53.6016C94.0068 53.8963 94.1628 54.3513 94.1628 54.9666V60.4006H93.0058V54.9796C93.0058 54.6416 92.9322 54.412 92.7848 54.2906C92.6375 54.1693 92.4512 54.1086 92.2258 54.1086C91.9745 54.1086 91.7882 54.1693 91.6668 54.2906C91.5542 54.412 91.4848 54.6113 91.4588 54.8886H90.7308C90.6962 54.5853 90.6052 54.3816 90.4578 54.2776C90.3105 54.165 90.1458 54.1086 89.9638 54.1086C89.6172 54.1086 89.3572 54.3123 89.1838 54.7196C89.0105 55.1183 88.9238 55.7813 88.9238 56.7086C88.9238 57.3066 88.9672 57.818 89.0538 58.2426C89.1492 58.6673 89.3225 58.9966 89.5738 59.2306C89.8252 59.456 90.1892 59.5686 90.6658 59.5686C90.8392 59.5686 90.9822 59.56 91.0948 59.5426C91.2075 59.5253 91.3158 59.5036 91.4198 59.4776L91.5368 60.3616C91.4068 60.4223 91.2508 60.4656 91.0688 60.4916C90.8868 60.5176 90.7048 60.5306 90.5228 60.5306ZM93.117 63.7936V62.4156C93.117 62.199 93.0217 62.0906 92.831 62.0906C92.7877 62.0906 92.7444 62.095 92.701 62.1036C92.649 62.1123 92.6014 62.1253 92.558 62.1426L92.467 61.3626C92.597 61.3193 92.74 61.2846 92.896 61.2586C93.0434 61.2413 93.1647 61.2326 93.26 61.2326C93.5634 61.2326 93.7887 61.302 93.936 61.4406C94.0747 61.588 94.144 61.7873 94.144 62.0386V63.7936H93.117ZM96.3695 60.4006V53.2766H97.5265V56.3576H97.5655L100.529 53.2766H101.881V53.3156L97.5265 57.7226V60.4006H96.3695ZM100.789 60.4006V57.8916C100.789 57.3803 100.633 56.9816 100.321 56.6956C100.009 56.4096 99.4938 56.2666 98.7745 56.2666L99.4505 55.4216C99.9965 55.4216 100.451 55.5213 100.815 55.7206C101.188 55.9113 101.47 56.1886 101.66 56.5526C101.851 56.9166 101.946 57.3543 101.946 57.8656V60.4006H100.789ZM108.068 60.4006V55.6556C108.068 55.0923 107.938 54.6936 107.678 54.4596C107.427 54.217 107.002 54.0956 106.404 54.0956C105.971 54.0956 105.555 54.1563 105.156 54.2776C104.766 54.3903 104.394 54.5506 104.038 54.7586V53.6796C104.29 53.5496 104.628 53.4283 105.052 53.3156C105.486 53.203 105.971 53.1466 106.508 53.1466C106.968 53.1466 107.366 53.1986 107.704 53.3026C108.042 53.398 108.32 53.5453 108.536 53.7446C108.762 53.944 108.931 54.1996 109.043 54.5116C109.156 54.815 109.212 55.1746 109.212 55.5906V60.4006H108.068ZM105.832 60.5306C105.07 60.5306 104.485 60.3573 104.077 60.0106C103.679 59.6553 103.479 59.1483 103.479 58.4896C103.479 57.7703 103.739 57.2156 104.259 56.8256C104.788 56.4356 105.642 56.206 106.82 56.1366L108.302 56.0456V57.0076L106.976 57.0986C106.092 57.1593 105.481 57.298 105.143 57.5146C104.814 57.7313 104.649 58.0476 104.649 58.4636C104.649 58.8536 104.771 59.1396 105.013 59.3216C105.265 59.5036 105.611 59.5946 106.053 59.5946C106.201 59.5946 106.335 59.586 106.456 59.5686C106.578 59.5426 106.695 59.5123 106.807 59.4776L106.989 60.3486C106.825 60.4093 106.643 60.4526 106.443 60.4786C106.253 60.5133 106.049 60.5306 105.832 60.5306ZM107.372 52.1456C107.008 52.1456 106.718 52.0936 106.501 51.9896C106.285 51.8856 106.129 51.7513 106.033 51.5866C105.929 51.422 105.877 51.2486 105.877 51.0666C105.877 50.9366 105.899 50.798 105.942 50.6506C105.977 50.4946 106.025 50.369 106.085 50.2736L107.06 50.4426C107.043 50.4773 107.026 50.538 107.008 50.6246C106.991 50.7026 106.982 50.7763 106.982 50.8456C106.982 50.9583 107.017 51.058 107.086 51.1446C107.156 51.2226 107.273 51.2616 107.437 51.2616H110.726V52.1456H107.372ZM111.257 60.4006V57.9306C111.257 57.3846 111.378 56.9903 111.621 56.7476C111.864 56.4963 112.171 56.323 112.544 56.2276L112.557 56.1886L111.127 55.6426V55.2136C111.127 54.8583 111.244 54.5246 111.478 54.2126C111.712 53.892 112.046 53.6363 112.479 53.4456C112.921 53.2463 113.445 53.1466 114.052 53.1466C114.581 53.1466 115.07 53.2333 115.521 53.4066C115.972 53.5713 116.331 53.8356 116.6 54.1996C116.877 54.555 117.016 55.023 117.016 55.6036V60.4006H115.859V55.7206C115.859 55.14 115.681 54.7283 115.326 54.4856C114.979 54.2343 114.55 54.1086 114.039 54.1086C113.51 54.1086 113.09 54.2213 112.778 54.4466C112.466 54.6633 112.31 54.9406 112.31 55.2786L113.714 55.9806L113.61 56.6046C113.289 56.6046 113.008 56.713 112.765 56.9296C112.531 57.1376 112.414 57.4713 112.414 57.9306V60.4006H111.257ZM121.626 60.5306C120.811 60.5306 120.179 60.3356 119.728 59.9456C119.286 59.547 119.065 58.9533 119.065 58.1646V57.3716C119.065 56.9383 119.126 56.596 119.247 56.3446C119.368 56.0933 119.498 55.8766 119.637 55.6946C119.784 55.4953 119.91 55.322 120.014 55.1746C120.127 55.0273 120.183 54.8496 120.183 54.6416C120.183 54.4596 120.135 54.3296 120.04 54.2516C119.953 54.1736 119.841 54.1346 119.702 54.1346C119.598 54.1346 119.485 54.152 119.364 54.1866C119.251 54.2213 119.139 54.2646 119.026 54.3166L118.766 53.4846C118.922 53.3806 119.113 53.307 119.338 53.2636C119.572 53.2203 119.776 53.1986 119.949 53.1986C120.27 53.1986 120.525 53.255 120.716 53.3676C120.915 53.4803 121.058 53.6363 121.145 53.8356C121.232 54.0263 121.275 54.2516 121.275 54.5116C121.275 54.8323 121.219 55.0966 121.106 55.3046C121.002 55.5126 120.876 55.7163 120.729 55.9156C120.582 56.1323 120.46 56.3403 120.365 56.5396C120.27 56.739 120.222 56.999 120.222 57.3196V58.0866C120.222 58.4853 120.287 58.793 120.417 59.0096C120.547 59.2263 120.72 59.378 120.937 59.4646C121.154 59.5426 121.383 59.5816 121.626 59.5816C122.059 59.5816 122.389 59.482 122.614 59.2826C122.848 59.0746 122.965 58.7583 122.965 58.3336V53.2766H124.122V58.3986C124.122 59.066 123.91 59.5903 123.485 59.9716C123.069 60.3443 122.449 60.5306 121.626 60.5306ZM128.748 60.5306C127.812 60.5306 127.11 60.288 126.642 59.8026C126.183 59.3086 125.953 58.5373 125.953 57.4886C125.953 57.3153 125.958 57.129 125.966 56.9296C125.984 56.7216 126.001 56.518 126.018 56.3186H128.748V57.2286H127.11V57.4886C127.11 58.0346 127.171 58.4636 127.292 58.7756C127.414 59.079 127.591 59.2913 127.825 59.4126C128.068 59.534 128.367 59.5946 128.722 59.5946C129.112 59.5946 129.45 59.521 129.736 59.3736C130.022 59.2263 130.243 58.9576 130.399 58.5676C130.555 58.1776 130.633 57.6186 130.633 56.8906C130.633 56.2493 130.564 55.725 130.425 55.3176C130.287 54.9103 130.057 54.607 129.736 54.4076C129.424 54.2083 129 54.1086 128.462 54.1086C128.185 54.1086 127.916 54.1346 127.656 54.1866C127.396 54.23 127.145 54.2993 126.902 54.3946C126.66 54.4813 126.421 54.594 126.187 54.7326V53.6536C126.361 53.5583 126.573 53.476 126.824 53.4066C127.076 53.3286 127.353 53.268 127.656 53.2246C127.96 53.1726 128.276 53.1466 128.605 53.1466C129.368 53.1466 129.983 53.3026 130.451 53.6146C130.928 53.918 131.275 54.3513 131.491 54.9146C131.708 55.4693 131.816 56.128 131.816 56.8906C131.816 57.6533 131.717 58.3076 131.517 58.8536C131.318 59.3996 130.993 59.8156 130.542 60.1016C130.1 60.3876 129.502 60.5306 128.748 60.5306ZM134.861 60.4006L132.638 53.2766H133.808L135.732 59.3996H135.888C136.096 59.3996 136.3 59.352 136.499 59.2566C136.699 59.1526 136.868 59.0226 137.006 58.8666C137.266 58.5806 137.457 58.221 137.578 57.7876C137.7 57.3456 137.76 56.9123 137.76 56.4876C137.76 55.7683 137.596 55.205 137.266 54.7976C136.946 54.3816 136.499 54.1736 135.927 54.1736C135.815 54.1736 135.702 54.1823 135.589 54.1996C135.485 54.217 135.399 54.2386 135.329 54.2646L135.043 53.3416C135.225 53.2896 135.394 53.255 135.55 53.2376C135.715 53.2203 135.862 53.2116 135.992 53.2116C136.426 53.2116 136.811 53.2766 137.149 53.4066C137.496 53.528 137.791 53.71 138.033 53.9526C138.337 54.2473 138.558 54.6156 138.696 55.0576C138.844 55.4996 138.917 55.9893 138.917 56.5266C138.917 57.2026 138.813 57.805 138.605 58.3336C138.397 58.8536 138.137 59.2696 137.825 59.5816C137.574 59.833 137.266 60.0323 136.902 60.1796C136.538 60.327 136.075 60.4006 135.511 60.4006H134.861ZM140.609 60.4006V57.9306C140.609 57.3846 140.73 56.9903 140.973 56.7476C141.215 56.4963 141.523 56.323 141.896 56.2276L141.909 56.1886L140.479 55.6426V55.2136C140.479 54.8583 140.596 54.5246 140.83 54.2126C141.064 53.892 141.397 53.6363 141.831 53.4456C142.273 53.2463 142.797 53.1466 143.404 53.1466C143.932 53.1466 144.422 53.2333 144.873 53.4066C145.323 53.5713 145.683 53.8356 145.952 54.1996C146.229 54.555 146.368 55.023 146.368 55.6036V60.4006H145.211V55.7206C145.211 55.14 145.033 54.7283 144.678 54.4856C144.331 54.2343 143.902 54.1086 143.391 54.1086C142.862 54.1086 142.442 54.2213 142.13 54.4466C141.818 54.6633 141.662 54.9406 141.662 55.2786L143.066 55.9806L142.962 56.6046C142.641 56.6046 142.359 56.713 142.117 56.9296C141.883 57.1376 141.766 57.4713 141.766 57.9306V60.4006H140.609ZM152.642 60.4006V55.6556C152.642 55.0923 152.512 54.6936 152.252 54.4596C152 54.217 151.576 54.0956 150.978 54.0956C150.544 54.0956 150.128 54.1563 149.73 54.2776C149.34 54.3903 148.967 54.5506 148.612 54.7586V53.6796C148.863 53.5496 149.201 53.4283 149.626 53.3156C150.059 53.203 150.544 53.1466 151.082 53.1466C151.541 53.1466 151.94 53.1986 152.278 53.3026C152.616 53.398 152.893 53.5453 153.11 53.7446C153.335 53.944 153.504 54.1996 153.617 54.5116C153.729 54.815 153.786 55.1746 153.786 55.5906V60.4006H152.642ZM150.406 60.5306C149.643 60.5306 149.058 60.3573 148.651 60.0106C148.252 59.6553 148.053 59.1483 148.053 58.4896C148.053 57.7703 148.313 57.2156 148.833 56.8256C149.361 56.4356 150.215 56.206 151.394 56.1366L152.876 56.0456V57.0076L151.55 57.0986C150.666 57.1593 150.055 57.298 149.717 57.5146C149.387 57.7313 149.223 58.0476 149.223 58.4636C149.223 58.8536 149.344 59.1396 149.587 59.3216C149.838 59.5036 150.185 59.5946 150.627 59.5946C150.774 59.5946 150.908 59.586 151.03 59.5686C151.151 59.5426 151.268 59.5123 151.381 59.4776L151.563 60.3486C151.398 60.4093 151.216 60.4526 151.017 60.4786C150.826 60.5133 150.622 60.5306 150.406 60.5306ZM148.071 52.1456V51.6386L149.02 51.2226H153.596V52.1456H148.071ZM152.504 49.4026V47.2836H153.609V49.4026H152.504ZM158.352 60.5306C157.841 60.5306 157.399 60.444 157.026 60.2706C156.662 60.0886 156.381 59.8156 156.181 59.4516C155.991 59.0876 155.895 58.6153 155.895 58.0346V53.2766H157.052V57.9696C157.052 58.4896 157.182 58.884 157.442 59.1526C157.711 59.4213 158.097 59.5556 158.599 59.5556C159.206 59.5556 159.674 59.3606 160.003 58.9706C160.341 58.5806 160.51 58.0563 160.51 57.3976V53.2766H161.667V60.4006H160.705L160.653 59.3476H160.588C160.432 59.6943 160.159 59.9803 159.769 60.2056C159.388 60.4223 158.916 60.5306 158.352 60.5306ZM62.8603 71.5766V69.2496C62.8603 68.9203 62.8906 68.656 62.9513 68.4566C63.0119 68.2486 63.0943 68.0796 63.1983 67.9496C63.3023 67.8196 63.4149 67.7113 63.5363 67.6246L63.5233 67.5726H61.2613L61.5603 66.6626H65.2263V67.5726C64.9056 67.5726 64.6239 67.6766 64.3813 67.8846C64.1386 68.0926 64.0173 68.474 64.0173 69.0286V71.5766H62.8603ZM64.2773 77.5306C64.0433 77.5306 63.8179 77.4916 63.6013 77.4136C63.3846 77.3356 63.2069 77.197 63.0683 76.9976C62.9296 76.7983 62.8603 76.521 62.8603 76.1656V70.2766H64.0173V76.0226C64.0173 76.222 64.0606 76.365 64.1473 76.4516C64.2339 76.5383 64.3726 76.5816 64.5633 76.5816C64.6413 76.5816 64.7236 76.573 64.8103 76.5556C64.8969 76.5383 64.9793 76.5166 65.0573 76.4906L65.2133 77.3356C65.0486 77.4136 64.8883 77.4656 64.7323 77.4916C64.5763 77.5176 64.4246 77.5306 64.2773 77.5306ZM69.8635 77.5306C69.3088 77.5306 68.8278 77.4223 68.4205 77.2056C68.0218 76.9803 67.7488 76.6683 67.6015 76.2696H67.5495L67.4845 77.4006H66.5355V70.2766H67.6925V74.3976C67.6925 74.831 67.7662 75.2123 67.9135 75.5416C68.0695 75.8623 68.2905 76.1136 68.5765 76.2956C68.8712 76.469 69.2222 76.5556 69.6295 76.5556C70.1408 76.5556 70.5222 76.4213 70.7735 76.1526C71.0248 75.884 71.1505 75.4896 71.1505 74.9696V70.2766H72.3075V75.0476C72.3075 75.6196 72.2078 76.0876 72.0085 76.4516C71.8178 76.8156 71.5405 77.0886 71.1765 77.2706C70.8125 77.444 70.3748 77.5306 69.8635 77.5306ZM71.1514 69.1456V66.4026H72.2954V69.1456H71.1514ZM75.1838 77.4006L73.8968 70.2766H75.0798L75.5868 73.3706C75.6302 73.622 75.6735 73.947 75.7168 74.3456C75.7602 74.7443 75.8122 75.2166 75.8728 75.7626H75.9118C75.9898 75.39 76.0635 75.0563 76.1328 74.7616C76.2108 74.467 76.2802 74.2026 76.3408 73.9686C76.4102 73.726 76.4708 73.5136 76.5228 73.3316L77.3938 70.2766H78.3428L79.2268 73.3316C79.2788 73.5136 79.3352 73.726 79.3958 73.9686C79.4652 74.2026 79.5345 74.467 79.6038 74.7616C79.6818 75.0563 79.7598 75.39 79.8378 75.7626H79.8898C79.9418 75.2166 79.9895 74.7443 80.0328 74.3456C80.0762 73.947 80.1195 73.622 80.1628 73.3706L80.6828 70.2766H81.8658L80.5788 77.4006H79.4478L78.2518 73.5266C78.1912 73.31 78.1305 73.0846 78.0698 72.8506C78.0178 72.6166 77.9658 72.309 77.9138 71.9276H77.8618C77.8272 72.179 77.7882 72.4 77.7448 72.5906C77.7015 72.7813 77.6582 72.9503 77.6148 73.0976C77.5715 73.245 77.5282 73.388 77.4848 73.5266L76.3148 77.4006H75.1838ZM75.7971 69.1456V68.6386L76.7461 68.2226H79.3331L79.1641 68.5476C79.1207 68.4523 79.0947 68.3656 79.0861 68.2876C79.0687 68.201 79.0601 68.1316 79.0601 68.0796C79.0601 67.759 79.1684 67.499 79.3851 67.2996C79.5931 67.1003 79.8834 67.0006 80.2561 67.0006C80.6374 67.0006 80.9407 67.1046 81.1661 67.3126C81.3827 67.512 81.4911 67.772 81.4911 68.0926C81.4911 68.3873 81.3914 68.6386 81.1921 68.8466C80.9927 69.046 80.7024 69.1456 80.3211 69.1456H75.7971ZM80.2821 68.5866C80.4554 68.5866 80.5897 68.539 80.6851 68.4436C80.7804 68.3396 80.8281 68.2183 80.8281 68.0796C80.8281 67.9323 80.7804 67.811 80.6851 67.7156C80.5811 67.6203 80.4424 67.5726 80.2691 67.5726C80.0957 67.5726 79.9614 67.6203 79.8661 67.7156C79.7707 67.8023 79.7231 67.9193 79.7231 68.0666C79.7231 68.2053 79.7707 68.3266 79.8661 68.4306C79.9527 68.5346 80.0914 68.5866 80.2821 68.5866ZM84.6259 77.4006L82.4029 70.2766H83.5729L85.4969 76.3996H85.6529C85.8609 76.3996 86.0646 76.352 86.2639 76.2566C86.4632 76.1526 86.6322 76.0226 86.7709 75.8666C87.0309 75.5806 87.2216 75.221 87.3429 74.7876C87.4642 74.3456 87.5249 73.9123 87.5249 73.4876C87.5249 72.7683 87.3602 72.205 87.0309 71.7976C86.7102 71.3816 86.2639 71.1736 85.6919 71.1736C85.5792 71.1736 85.4666 71.1823 85.3539 71.1996C85.2499 71.217 85.1632 71.2386 85.0939 71.2646L84.8079 70.3416C84.9899 70.2896 85.1589 70.255 85.3149 70.2376C85.4796 70.2203 85.6269 70.2116 85.7569 70.2116C86.1902 70.2116 86.5759 70.2766 86.9139 70.4066C87.2606 70.528 87.5552 70.71 87.7979 70.9526C88.1012 71.2473 88.3222 71.6156 88.4609 72.0576C88.6082 72.4996 88.6819 72.9893 88.6819 73.5266C88.6819 74.2026 88.5779 74.805 88.3699 75.3336C88.1619 75.8536 87.9019 76.2696 87.5899 76.5816C87.3386 76.833 87.0309 77.0323 86.6669 77.1796C86.3029 77.327 85.8392 77.4006 85.2759 77.4006H84.6259ZM93.2983 77.5306C92.2757 77.5306 91.5433 77.2966 91.1013 76.8286C90.6593 76.3606 90.4383 75.6933 90.4383 74.8266V70.2766H91.5953V74.8396C91.5953 75.4203 91.734 75.8536 92.0113 76.1396C92.2887 76.4256 92.7177 76.5686 93.2983 76.5686C93.8877 76.5686 94.321 76.4256 94.5983 76.1396C94.8843 75.8536 95.0273 75.4203 95.0273 74.8396V67.7156H96.1843V74.8266C96.1843 75.6933 95.959 76.3606 95.5083 76.8286C95.0663 77.2966 94.3297 77.5306 93.2983 77.5306ZM100.311 77.5306C99.8001 77.5306 99.3234 77.483 98.8814 77.3876C98.4481 77.2836 98.0798 77.1623 97.7764 77.0236L98.1144 76.0876C98.2964 76.157 98.5044 76.2306 98.7384 76.3086C98.9724 76.3866 99.2238 76.4516 99.4924 76.5036C99.7698 76.547 100.051 76.5686 100.337 76.5686C100.797 76.5686 101.178 76.482 101.481 76.3086C101.785 76.1353 101.936 75.884 101.936 75.5546C101.936 75.3553 101.88 75.1863 101.767 75.0476C101.663 74.9003 101.499 74.766 101.273 74.6446C101.048 74.5233 100.758 74.4063 100.402 74.2936C99.8564 74.1203 99.3928 73.9383 99.0114 73.7476C98.6388 73.5483 98.3528 73.3143 98.1534 73.0456C97.9628 72.7683 97.8674 72.426 97.8674 72.0186C97.8674 71.6546 97.9628 71.334 98.1534 71.0566C98.3528 70.7706 98.6561 70.5496 99.0634 70.3936C99.4794 70.229 100.008 70.1466 100.649 70.1466C101.065 70.1466 101.455 70.1856 101.819 70.2636C102.192 70.333 102.482 70.4326 102.69 70.5626V71.5376C102.543 71.4683 102.357 71.399 102.131 71.3296C101.915 71.2603 101.676 71.204 101.416 71.1606C101.156 71.1173 100.888 71.0956 100.61 71.0956C100.03 71.0956 99.6181 71.1866 99.3754 71.3686C99.1414 71.542 99.0244 71.7413 99.0244 71.9666C99.0244 72.1573 99.0764 72.3176 99.1804 72.4476C99.2931 72.5776 99.4794 72.7033 99.7394 72.8246C100.008 72.946 100.368 73.0846 100.818 73.2406C101.234 73.3793 101.616 73.5396 101.962 73.7216C102.309 73.9036 102.582 74.1333 102.781 74.4106C102.989 74.6793 103.093 75.026 103.093 75.4506C103.093 75.8146 103.002 76.157 102.82 76.4776C102.647 76.7896 102.357 77.0453 101.949 77.2446C101.542 77.4353 100.996 77.5306 100.311 77.5306ZM105.593 72.9286C105.238 72.9286 104.947 72.8766 104.722 72.7726C104.505 72.66 104.349 72.5213 104.254 72.3566C104.159 72.1833 104.111 72.0013 104.111 71.8106C104.111 71.6806 104.128 71.5463 104.163 71.4076C104.206 71.269 104.258 71.152 104.319 71.0566L105.294 71.2126C105.277 71.256 105.255 71.3166 105.229 71.3946C105.212 71.4726 105.203 71.5506 105.203 71.6286C105.203 71.7413 105.233 71.8366 105.294 71.9146C105.355 71.984 105.467 72.0186 105.632 72.0186H107.491V72.9286H105.593ZM105.593 76.5686C105.238 76.5686 104.947 76.5166 104.722 76.4126C104.505 76.3 104.349 76.1613 104.254 75.9966C104.159 75.8233 104.111 75.6413 104.111 75.4506C104.111 75.3206 104.128 75.1863 104.163 75.0476C104.206 74.909 104.258 74.792 104.319 74.6966L105.294 74.8526C105.277 74.896 105.255 74.9566 105.229 75.0346C105.212 75.1126 105.203 75.1906 105.203 75.2686C105.203 75.3813 105.233 75.4766 105.294 75.5546C105.355 75.624 105.467 75.6586 105.632 75.6586H107.491V76.5686H105.593ZM113.223 77.4006V72.6556C113.223 72.0923 113.093 71.6936 112.833 71.4596C112.581 71.217 112.157 71.0956 111.559 71.0956C111.125 71.0956 110.709 71.1563 110.311 71.2776C109.921 71.3903 109.548 71.5506 109.193 71.7586V70.6796C109.444 70.5496 109.782 70.4283 110.207 70.3156C110.64 70.203 111.125 70.1466 111.663 70.1466C112.122 70.1466 112.512 70.1986 112.833 70.3026C113.162 70.4066 113.405 70.5973 113.561 70.8746C113.864 71.0133 114.072 71.23 114.185 71.5246C114.306 71.8193 114.367 72.1746 114.367 72.5906V77.4006H113.223ZM110.987 77.5306C110.224 77.5306 109.639 77.3573 109.232 77.0106C108.833 76.6553 108.634 76.1483 108.634 75.4896C108.634 74.7703 108.894 74.2156 109.414 73.8256C109.942 73.4356 110.796 73.206 111.975 73.1366L113.457 73.0456V74.0076L112.131 74.0986C111.247 74.1593 110.636 74.298 110.298 74.5146C109.968 74.7313 109.804 75.0476 109.804 75.4636C109.804 75.8536 109.925 76.1396 110.168 76.3216C110.419 76.5036 110.766 76.5946 111.208 76.5946C111.355 76.5946 111.489 76.586 111.611 76.5686C111.732 76.5426 111.849 76.5123 111.962 76.4776L112.144 77.3486C111.979 77.4093 111.797 77.4526 111.598 77.4786C111.407 77.5133 111.203 77.5306 110.987 77.5306ZM113.522 71.2776L112.872 70.6666C113.097 70.632 113.309 70.5453 113.509 70.4066C113.708 70.268 113.808 70.0686 113.808 69.8086H114.939C114.939 70.0773 114.874 70.3156 114.744 70.5236C114.622 70.723 114.453 70.8876 114.237 71.0176C114.02 71.139 113.782 71.2256 113.522 71.2776ZM117.659 77.4006L115.436 70.2766H116.606L118.53 76.3996H118.686C118.894 76.3996 119.098 76.352 119.297 76.2566C119.496 76.1526 119.665 76.0226 119.804 75.8666C120.064 75.5806 120.255 75.221 120.376 74.7876C120.497 74.3456 120.558 73.9123 120.558 73.4876C120.558 72.7683 120.393 72.205 120.064 71.7976C119.743 71.3816 119.297 71.1736 118.725 71.1736C118.612 71.1736 118.5 71.1823 118.387 71.1996C118.283 71.217 118.196 71.2386 118.127 71.2646L117.841 70.3416C118.023 70.2896 118.192 70.255 118.348 70.2376C118.513 70.2203 118.66 70.2116 118.79 70.2116C119.223 70.2116 119.609 70.2766 119.947 70.4066C120.294 70.528 120.588 70.71 120.831 70.9526C121.134 71.2473 121.355 71.6156 121.494 72.0576C121.641 72.4996 121.715 72.9893 121.715 73.5266C121.715 74.2026 121.611 74.805 121.403 75.3336C121.195 75.8536 120.935 76.2696 120.623 76.5816C120.372 76.833 120.064 77.0323 119.7 77.1796C119.336 77.327 118.872 77.4006 118.309 77.4006H117.659ZM123.472 77.4006V72.8506C123.472 71.9753 123.706 71.308 124.174 70.8486C124.642 70.3806 125.387 70.1466 126.41 70.1466C127.441 70.1466 128.186 70.3806 128.646 70.8486C129.114 71.308 129.348 71.9753 129.348 72.8506V77.4006H128.191V72.8506C128.191 72.27 128.039 71.8366 127.736 71.5506C127.432 71.256 126.986 71.1086 126.397 71.1086C125.816 71.1086 125.374 71.256 125.071 71.5506C124.776 71.8366 124.629 72.27 124.629 72.8506V74.2936L124.668 74.3066C124.858 73.9686 125.092 73.7476 125.37 73.6436C125.647 73.531 126.037 73.4746 126.54 73.4746H126.969V74.4236H126.54C126.011 74.4236 125.608 74.4973 125.331 74.6446C125.062 74.792 124.876 74.987 124.772 75.2296C124.676 75.4636 124.629 75.728 124.629 76.0226V77.4006H123.472ZM127.077 69.5226C127.016 69.4273 126.968 69.306 126.934 69.1586C126.89 69.0026 126.869 68.851 126.869 68.7036C126.869 68.5216 126.908 68.3526 126.986 68.1966C127.064 68.032 127.202 67.8976 127.402 67.7936C127.601 67.6896 127.878 67.6376 128.234 67.6376H130.015V68.5346H128.533C128.359 68.5346 128.221 68.5693 128.117 68.6386C128.013 68.6993 127.961 68.8076 127.961 68.9636C127.961 69.0243 127.974 69.0893 128 69.1586C128.017 69.228 128.043 69.2973 128.078 69.3666L127.077 69.5226Z" fill="#1A2A40"/>
</g>
<defs>
<filter id="filter0_d_96_58" x="0" y="0.275391" width="208.481" height="126.707" filterUnits="userSpaceOnUse" color-interpolation-filters="sRGB">
<feFlood flood-opacity="0" result="BackgroundImageFix"/>
<feColorMatrix in="SourceAlpha" type="matrix" values="0 0 0 0 0 0 0 0 0 0 0 0 0 0 0 0 0 0 127 0" result="hardAlpha"/>
<feOffset dx="8" dy="8"/>
<feGaussianBlur stdDeviation="11.5"/>
<feComposite in2="hardAlpha" operator="out"/>
<feColorMatrix type="matrix" values="0 0 0 0 0 0 0 0 0 0 0 0 0 0 0 0 0 0 0.25 0"/>
<feBlend mode="normal" in2="BackgroundImageFix" result="effect1_dropShadow_96_58"/>
<feBlend mode="normal" in="SourceGraphic" in2="effect1_dropShadow_96_58" result="shape"/>
</filter>
<filter id="filter1_d_96_58" x="29.5913" y="33.1697" width="143.976" height="56.2608" filterUnits="userSpaceOnUse" color-interpolation-filters="sRGB">
<feFlood flood-opacity="0" result="BackgroundImageFix"/>
<feColorMatrix in="SourceAlpha" type="matrix" values="0 0 0 0 0 0 0 0 0 0 0 0 0 0 0 0 0 0 127 0" result="hardAlpha"/>
<feOffset dx="6" dy="6"/>
<feGaussianBlur stdDeviation="2.95"/>
<feComposite in2="hardAlpha" operator="out"/>
<feColorMatrix type="matrix" values="0 0 0 0 0 0 0 0 0 0 0 0 0 0 0 0 0 0 0.25 0"/>
<feBlend mode="normal" in2="BackgroundImageFix" result="effect1_dropShadow_96_58"/>
<feBlend mode="normal" in="SourceGraphic" in2="effect1_dropShadow_96_58" result="shape"/>
</filter>
</defs>
</svg>
